<?xml version="1.0" encoding="UTF-8"?>
<!-- Generator: Adobe Illustrator 23.0.1, SVG Export Plug-In . SVG Version: 6.00 Build 0)  -->
<svg version="1.1" id="Layer_1" xmlns="http://www.w3.org/2000/svg" xmlns:xlink="http://www.w3.org/1999/xlink" x="0px" y="0px" viewBox="0 0 200 65" style="enable-background:new 0 0 200 65;" xml:space="preserve">
<style type="text/css">
	.st0{fill:#008EC6;}
</style>
<g>
	<polygon points="31.39,42.37 32.47,42.37 36.68,48.4 36.7,48.4 36.7,42.37 37.56,42.37 37.56,49.63 36.47,49.63 32.27,43.6    32.25,43.6 32.25,49.63 31.39,49.63  "/>
	<polygon points="40.39,42.37 44.95,42.37 44.95,43.17 41.25,43.17 41.25,45.45 44.71,45.45 44.71,46.25 41.25,46.25 41.25,48.83    45.14,48.83 45.14,49.63 40.39,49.63  "/>
	<polygon points="49.21,45.81 46.77,42.37 47.87,42.37 49.83,45.21 51.77,42.37 52.85,42.37 50.41,45.81 53.08,49.63 51.94,49.63    49.79,46.41 47.63,49.63 46.56,49.63  "/>
	<polygon points="59.85,43.17 57.45,43.17 57.45,49.63 56.59,49.63 56.59,43.17 54.19,43.17 54.19,42.37 59.85,42.37  "/>
	<rect x="60.12" y="46.8" width="2.51" height="0.74"/>
	<path d="M71.18,49.14c-0.42,0.23-0.86,0.4-1.32,0.51c-0.46,0.11-0.93,0.16-1.4,0.16c-0.57,0-1.09-0.09-1.56-0.28   c-0.47-0.18-0.88-0.44-1.23-0.78c-0.35-0.34-0.61-0.74-0.81-1.21c-0.19-0.47-0.29-0.99-0.29-1.55c0-0.57,0.1-1.1,0.3-1.56   c0.2-0.47,0.48-0.87,0.84-1.2c0.36-0.33,0.77-0.59,1.24-0.77c0.47-0.18,0.98-0.28,1.53-0.28c0.48,0,0.94,0.07,1.38,0.22   c0.44,0.14,0.84,0.39,1.18,0.74l-0.65,0.68c-0.25-0.27-0.54-0.47-0.9-0.62c-0.35-0.14-0.71-0.22-1.08-0.22   c-0.42,0-0.8,0.08-1.16,0.23c-0.36,0.15-0.67,0.36-0.93,0.62c-0.26,0.27-0.47,0.58-0.61,0.95c-0.15,0.37-0.22,0.77-0.22,1.21   c0,0.43,0.07,0.83,0.22,1.2c0.15,0.37,0.35,0.69,0.61,0.96c0.26,0.27,0.58,0.48,0.95,0.63c0.37,0.15,0.78,0.23,1.22,0.23   c0.29,0,0.6-0.04,0.92-0.11c0.32-0.07,0.61-0.18,0.88-0.31v-2.22h-1.67v-0.8h2.53V49.14z"/>
	<polygon points="74.01,42.37 78.57,42.37 78.57,43.17 74.87,43.17 74.87,45.45 78.33,45.45 78.33,46.25 74.87,46.25 74.87,48.83    78.76,48.83 78.76,49.63 74.01,49.63  "/>
	<polygon points="81.12,42.37 82.2,42.37 86.41,48.4 86.43,48.4 86.43,42.37 87.29,42.37 87.29,49.63 86.2,49.63 82,43.6    81.98,43.6 81.98,49.63 81.12,49.63  "/>
	<path d="M94.72,48.83h1.64c0.42,0,0.8-0.06,1.16-0.16c0.36-0.11,0.66-0.28,0.92-0.51c0.26-0.23,0.46-0.52,0.61-0.88   c0.15-0.36,0.23-0.78,0.23-1.28c0-0.5-0.08-0.93-0.23-1.28c-0.15-0.36-0.36-0.65-0.61-0.88c-0.26-0.23-0.57-0.4-0.92-0.51   c-0.36-0.11-0.74-0.16-1.16-0.16h-1.64V48.83z M93.86,42.37h2.79c0.24,0,0.49,0.03,0.76,0.08c0.27,0.06,0.53,0.14,0.8,0.26   c0.26,0.12,0.52,0.28,0.76,0.47c0.24,0.19,0.46,0.42,0.64,0.69c0.19,0.27,0.33,0.58,0.44,0.93c0.11,0.35,0.16,0.75,0.16,1.19   c0,0.45-0.06,0.84-0.16,1.2c-0.11,0.35-0.26,0.66-0.44,0.93c-0.18,0.27-0.4,0.5-0.64,0.69c-0.24,0.19-0.5,0.35-0.76,0.47   c-0.26,0.12-0.53,0.21-0.8,0.26c-0.27,0.05-0.52,0.08-0.76,0.08h-2.79V42.37z"/>
	<polygon points="102.62,42.37 103.71,42.37 107.91,48.4 107.93,48.4 107.93,42.37 108.79,42.37 108.79,49.63 107.7,49.63    103.5,43.6 103.48,43.6 103.48,49.63 102.62,49.63  "/>
	<path d="M114.37,43.48h-0.02l-1.51,3.57h2.96L114.37,43.48z M113.98,42.37h0.81l3.09,7.26h-1.01l-0.74-1.78h-3.63l-0.75,1.78h-0.97   L113.98,42.37z"/>
	<path d="M127.19,43.65c-0.14-0.23-0.34-0.4-0.57-0.51c-0.24-0.11-0.49-0.16-0.75-0.16c-0.19,0-0.38,0.02-0.56,0.07   c-0.19,0.05-0.35,0.12-0.5,0.22c-0.15,0.1-0.26,0.22-0.35,0.38c-0.09,0.16-0.13,0.34-0.13,0.55c0,0.16,0.03,0.31,0.08,0.44   c0.05,0.13,0.14,0.24,0.25,0.34c0.12,0.1,0.27,0.2,0.47,0.29c0.2,0.09,0.44,0.18,0.73,0.27c0.28,0.09,0.55,0.18,0.82,0.29   c0.26,0.1,0.5,0.23,0.7,0.39c0.2,0.16,0.36,0.35,0.48,0.59c0.12,0.24,0.18,0.53,0.18,0.89c0,0.36-0.07,0.68-0.22,0.94   c-0.14,0.27-0.33,0.49-0.57,0.66c-0.24,0.17-0.51,0.3-0.82,0.39c-0.31,0.08-0.63,0.13-0.95,0.13c-0.21,0-0.42-0.02-0.64-0.06   c-0.21-0.04-0.41-0.1-0.61-0.17c-0.19-0.08-0.38-0.18-0.55-0.31c-0.17-0.13-0.32-0.28-0.44-0.47l0.74-0.61   c0.16,0.27,0.38,0.47,0.66,0.61c0.28,0.14,0.58,0.21,0.89,0.21c0.19,0,0.37-0.03,0.56-0.08c0.19-0.05,0.36-0.14,0.51-0.24   c0.15-0.11,0.27-0.24,0.37-0.39c0.1-0.16,0.14-0.34,0.14-0.54c0-0.23-0.04-0.41-0.11-0.55c-0.08-0.14-0.19-0.26-0.35-0.36   c-0.16-0.1-0.36-0.2-0.6-0.28c-0.24-0.08-0.52-0.18-0.84-0.29c-0.26-0.08-0.5-0.18-0.72-0.28c-0.22-0.11-0.41-0.24-0.57-0.39   c-0.16-0.15-0.29-0.34-0.38-0.55c-0.09-0.22-0.14-0.47-0.14-0.77c0-0.35,0.07-0.65,0.21-0.91c0.14-0.26,0.32-0.48,0.55-0.65   c0.23-0.17,0.5-0.31,0.79-0.39c0.29-0.09,0.6-0.13,0.92-0.13c0.41,0,0.78,0.06,1.12,0.19c0.34,0.13,0.64,0.35,0.91,0.66   L127.19,43.65z"/>
	<polygon points="130.47,42.37 135.03,42.37 135.03,43.17 131.33,43.17 131.33,45.45 134.79,45.45 134.79,46.25 131.33,46.25    131.33,48.83 135.22,48.83 135.22,49.63 130.47,49.63  "/>
	<path d="M138.08,45.91c0,0.41,0.07,0.79,0.22,1.15c0.14,0.36,0.34,0.66,0.59,0.93c0.25,0.26,0.55,0.47,0.89,0.62   c0.34,0.15,0.71,0.23,1.12,0.23c0.4,0,0.77-0.08,1.11-0.23c0.34-0.15,0.64-0.36,0.89-0.62c0.25-0.26,0.45-0.57,0.59-0.93   c0.14-0.36,0.22-0.74,0.22-1.15c0-0.4-0.07-0.78-0.21-1.14c-0.14-0.36-0.34-0.66-0.58-0.93c-0.25-0.26-0.55-0.47-0.89-0.62   c-0.34-0.15-0.72-0.23-1.13-0.23c-0.41,0-0.79,0.08-1.13,0.23c-0.34,0.15-0.64,0.36-0.89,0.62c-0.25,0.26-0.44,0.57-0.58,0.93   C138.15,45.13,138.08,45.51,138.08,45.91 M145.1,49.63h-4.21c-0.53,0-1.03-0.1-1.48-0.29c-0.45-0.19-0.85-0.45-1.18-0.78   c-0.33-0.33-0.59-0.72-0.78-1.18c-0.19-0.46-0.29-0.94-0.29-1.47c0-0.53,0.1-1.02,0.29-1.47c0.19-0.45,0.45-0.85,0.78-1.18   c0.33-0.33,0.72-0.59,1.18-0.78c0.46-0.19,0.95-0.29,1.48-0.29c0.53,0,1.03,0.1,1.48,0.29c0.46,0.19,0.85,0.45,1.18,0.78   s0.59,0.72,0.78,1.18c0.19,0.46,0.29,0.95,0.29,1.47c0,0.31-0.04,0.61-0.12,0.92c-0.08,0.3-0.2,0.59-0.35,0.85   c-0.15,0.26-0.34,0.5-0.55,0.71c-0.22,0.21-0.46,0.37-0.73,0.49v0.02h2.25V49.63z"/>
	<path d="M152.6,46.86c0,0.4-0.05,0.77-0.15,1.13c-0.1,0.36-0.26,0.67-0.47,0.94c-0.22,0.27-0.5,0.49-0.85,0.65   c-0.35,0.16-0.77,0.24-1.27,0.24c-0.5,0-0.92-0.08-1.27-0.24c-0.35-0.16-0.63-0.38-0.85-0.65c-0.22-0.27-0.37-0.58-0.47-0.94   c-0.1-0.36-0.15-0.73-0.15-1.13v-4.49h0.86v4.37c0,0.29,0.03,0.58,0.09,0.85c0.06,0.27,0.16,0.52,0.31,0.73   c0.14,0.21,0.33,0.38,0.57,0.51c0.24,0.13,0.54,0.19,0.9,0.19c0.36,0,0.66-0.06,0.9-0.19c0.24-0.13,0.43-0.3,0.57-0.51   c0.14-0.21,0.25-0.45,0.31-0.73c0.06-0.27,0.09-0.56,0.09-0.85v-4.37h0.86V46.86z"/>
	<polygon points="155.4,42.37 159.96,42.37 159.96,43.17 156.26,43.17 156.26,45.45 159.71,45.45 159.71,46.25 156.26,46.25    156.26,48.83 160.14,48.83 160.14,49.63 155.4,49.63  "/>
	<polygon points="162.5,42.37 163.59,42.37 167.79,48.4 167.81,48.4 167.81,42.37 168.67,42.37 168.67,49.63 167.59,49.63    163.38,43.6 163.36,43.6 163.36,49.63 162.5,49.63  "/>
	<path d="M176.59,43.87c-0.22-0.29-0.49-0.51-0.81-0.66c-0.32-0.15-0.66-0.22-1-0.22c-0.4,0-0.77,0.08-1.11,0.25   c-0.34,0.16-0.63,0.38-0.88,0.66c-0.25,0.28-0.44,0.6-0.57,0.96c-0.14,0.37-0.21,0.75-0.21,1.14c0,0.42,0.07,0.82,0.21,1.18   c0.14,0.37,0.33,0.68,0.57,0.95c0.24,0.27,0.53,0.48,0.87,0.64s0.71,0.24,1.12,0.24c0.44,0,0.84-0.09,1.19-0.26   c0.35-0.17,0.65-0.43,0.91-0.75l0.65,0.54c-0.33,0.44-0.72,0.76-1.18,0.96c-0.46,0.21-0.98,0.31-1.56,0.31c-0.52,0-1-0.1-1.46-0.29   s-0.84-0.46-1.17-0.79c-0.33-0.34-0.59-0.74-0.78-1.21c-0.19-0.46-0.28-0.97-0.28-1.53c0-0.53,0.09-1.03,0.27-1.5   c0.18-0.46,0.44-0.87,0.76-1.21c0.33-0.34,0.72-0.61,1.17-0.81c0.45-0.2,0.95-0.3,1.49-0.3c0.49,0,0.97,0.09,1.42,0.27   c0.45,0.18,0.84,0.47,1.14,0.87L176.59,43.87z"/>
	<rect x="179.75" y="42.37" width="0.86" height="7.26"/>
	<polygon points="183.44,42.37 184.53,42.37 188.73,48.4 188.75,48.4 188.75,42.37 189.61,42.37 189.61,49.63 188.53,49.63    184.32,43.6 184.3,43.6 184.3,49.63 183.44,49.63  "/>
	<path d="M198.62,49.14c-0.42,0.23-0.86,0.4-1.32,0.51c-0.46,0.11-0.93,0.16-1.4,0.16c-0.57,0-1.09-0.09-1.56-0.28   c-0.47-0.18-0.88-0.44-1.23-0.78c-0.35-0.34-0.61-0.74-0.81-1.21c-0.19-0.47-0.29-0.99-0.29-1.55c0-0.57,0.1-1.1,0.3-1.56   c0.2-0.47,0.48-0.87,0.84-1.2c0.36-0.33,0.77-0.59,1.24-0.77c0.47-0.18,0.98-0.28,1.53-0.28c0.48,0,0.94,0.07,1.38,0.22   c0.44,0.14,0.84,0.39,1.18,0.74l-0.65,0.68c-0.25-0.27-0.54-0.47-0.9-0.62c-0.35-0.14-0.71-0.22-1.08-0.22   c-0.42,0-0.8,0.08-1.16,0.23c-0.36,0.15-0.67,0.36-0.93,0.62c-0.26,0.27-0.47,0.58-0.61,0.95c-0.15,0.37-0.22,0.77-0.22,1.21   c0,0.43,0.07,0.83,0.22,1.2c0.15,0.37,0.35,0.69,0.61,0.96c0.26,0.27,0.58,0.48,0.95,0.63c0.37,0.15,0.78,0.23,1.22,0.23   c0.29,0,0.6-0.04,0.92-0.11c0.32-0.07,0.61-0.18,0.88-0.31v-2.22h-1.67v-0.8h2.53V49.14z"/>
	<polygon points="31.39,53.8 34.4,53.8 34.4,54.34 31.96,54.34 31.96,55.94 34.23,55.94 34.23,56.48 31.96,56.48 31.96,58.66    31.39,58.66  "/>
	<path d="M38.09,58.25c0.28,0,0.54-0.05,0.78-0.16c0.24-0.11,0.44-0.25,0.61-0.43c0.17-0.18,0.3-0.4,0.39-0.64   c0.09-0.24,0.14-0.51,0.14-0.79c0-0.28-0.05-0.54-0.14-0.79c-0.09-0.24-0.23-0.46-0.39-0.64c-0.17-0.18-0.37-0.33-0.61-0.43   c-0.24-0.1-0.5-0.16-0.78-0.16c-0.28,0-0.54,0.05-0.78,0.16c-0.24,0.11-0.44,0.25-0.61,0.43c-0.17,0.18-0.3,0.4-0.39,0.64   c-0.09,0.24-0.14,0.51-0.14,0.79c0,0.28,0.05,0.54,0.14,0.79c0.09,0.24,0.23,0.46,0.39,0.64c0.17,0.18,0.37,0.33,0.61,0.43   C37.55,58.2,37.81,58.25,38.09,58.25 M38.09,58.79c-0.37,0-0.71-0.06-1.02-0.19c-0.31-0.13-0.58-0.31-0.8-0.53   c-0.23-0.23-0.4-0.5-0.53-0.81c-0.12-0.31-0.19-0.65-0.19-1.02c0-0.37,0.06-0.71,0.19-1.02c0.13-0.31,0.3-0.58,0.53-0.81   c0.23-0.23,0.49-0.4,0.8-0.53c0.31-0.13,0.65-0.19,1.02-0.19c0.37,0,0.71,0.06,1.02,0.19c0.31,0.13,0.58,0.31,0.8,0.53   c0.23,0.23,0.4,0.5,0.53,0.81c0.13,0.31,0.19,0.65,0.19,1.02c0,0.37-0.06,0.71-0.19,1.02c-0.13,0.31-0.3,0.58-0.53,0.81   c-0.23,0.23-0.49,0.4-0.8,0.53C38.8,58.72,38.46,58.79,38.09,58.79"/>
	<path d="M42.76,55.94h0.52c0.16,0,0.33,0,0.5-0.01c0.17-0.01,0.33-0.04,0.47-0.09c0.14-0.05,0.26-0.13,0.36-0.24   c0.09-0.11,0.14-0.26,0.14-0.46c0-0.17-0.03-0.31-0.1-0.42c-0.07-0.11-0.16-0.19-0.27-0.24c-0.11-0.06-0.24-0.09-0.38-0.11   c-0.14-0.02-0.28-0.03-0.42-0.03h-0.81V55.94z M42.19,53.8h1.24c0.23,0,0.47,0.01,0.7,0.04c0.23,0.03,0.44,0.09,0.62,0.18   c0.18,0.09,0.33,0.23,0.45,0.4c0.11,0.18,0.17,0.42,0.17,0.72c0,0.36-0.11,0.64-0.32,0.86c-0.22,0.22-0.51,0.36-0.89,0.42   l1.38,2.24h-0.71l-1.32-2.18h-0.74v2.18h-0.58V53.8z"/>
	<path d="M51.39,54.55h-0.01l-1.01,2.39h1.98L51.39,54.55z M51.13,53.8h0.54l2.07,4.86h-0.67l-0.49-1.19h-2.43l-0.5,1.19h-0.65   L51.13,53.8z"/>
	<path d="M58.41,54.81c-0.15-0.2-0.33-0.34-0.54-0.44c-0.22-0.1-0.44-0.15-0.67-0.15c-0.27,0-0.52,0.06-0.74,0.16   c-0.23,0.11-0.42,0.26-0.59,0.44c-0.16,0.19-0.29,0.4-0.38,0.65c-0.09,0.24-0.14,0.5-0.14,0.76c0,0.28,0.04,0.55,0.14,0.79   c0.09,0.24,0.22,0.46,0.38,0.64c0.16,0.18,0.36,0.32,0.58,0.43c0.23,0.1,0.48,0.16,0.75,0.16c0.3,0,0.56-0.06,0.8-0.17   s0.44-0.28,0.61-0.5l0.43,0.36c-0.22,0.29-0.48,0.51-0.79,0.64c-0.31,0.14-0.66,0.21-1.05,0.21c-0.35,0-0.67-0.06-0.97-0.19   c-0.3-0.13-0.56-0.31-0.79-0.53c-0.22-0.23-0.4-0.49-0.52-0.81c-0.13-0.31-0.19-0.65-0.19-1.02c0-0.36,0.06-0.69,0.18-1   c0.12-0.31,0.29-0.58,0.51-0.81c0.22-0.23,0.48-0.41,0.78-0.54c0.3-0.13,0.63-0.2,0.99-0.2c0.33,0,0.65,0.06,0.95,0.18   c0.3,0.12,0.56,0.31,0.76,0.58L58.41,54.81z"/>
	<path d="M63.88,54.81c-0.15-0.2-0.33-0.34-0.54-0.44c-0.22-0.1-0.44-0.15-0.67-0.15c-0.27,0-0.52,0.06-0.74,0.16   c-0.23,0.11-0.42,0.26-0.59,0.44c-0.16,0.19-0.29,0.4-0.38,0.65c-0.09,0.24-0.14,0.5-0.14,0.76c0,0.28,0.04,0.55,0.14,0.79   c0.09,0.24,0.22,0.46,0.38,0.64c0.16,0.18,0.36,0.32,0.58,0.43c0.23,0.1,0.48,0.16,0.75,0.16c0.3,0,0.56-0.06,0.8-0.17   s0.44-0.28,0.61-0.5l0.43,0.36c-0.22,0.29-0.48,0.51-0.79,0.64c-0.31,0.14-0.66,0.21-1.05,0.21c-0.35,0-0.67-0.06-0.97-0.19   c-0.3-0.13-0.56-0.31-0.79-0.53c-0.22-0.23-0.4-0.49-0.52-0.81c-0.13-0.31-0.19-0.65-0.19-1.02c0-0.36,0.06-0.69,0.18-1   c0.12-0.31,0.29-0.58,0.51-0.81c0.22-0.23,0.48-0.41,0.78-0.54c0.3-0.13,0.63-0.2,0.99-0.2c0.33,0,0.65,0.06,0.95,0.18   c0.3,0.12,0.56,0.31,0.76,0.58L63.88,54.81z"/>
	<path d="M69.58,56.81c0,0.27-0.03,0.52-0.1,0.76c-0.07,0.24-0.17,0.45-0.32,0.63c-0.14,0.18-0.33,0.32-0.57,0.43   c-0.23,0.11-0.52,0.16-0.85,0.16c-0.33,0-0.62-0.05-0.85-0.16c-0.23-0.11-0.42-0.25-0.57-0.43c-0.14-0.18-0.25-0.39-0.32-0.63   c-0.07-0.24-0.1-0.49-0.1-0.76V53.8h0.58v2.92c0,0.2,0.02,0.39,0.06,0.57c0.04,0.18,0.11,0.35,0.21,0.49   c0.1,0.14,0.22,0.26,0.38,0.34c0.16,0.08,0.36,0.13,0.6,0.13c0.24,0,0.44-0.04,0.6-0.13c0.16-0.08,0.29-0.2,0.38-0.34   c0.1-0.14,0.16-0.3,0.21-0.49c0.04-0.18,0.06-0.37,0.06-0.57V53.8h0.58V56.81z"/>
	<path d="M71.97,55.94h0.52c0.16,0,0.33,0,0.5-0.01c0.17-0.01,0.33-0.04,0.47-0.09c0.14-0.05,0.26-0.13,0.36-0.24   c0.09-0.11,0.14-0.26,0.14-0.46c0-0.17-0.03-0.31-0.1-0.42c-0.07-0.11-0.16-0.19-0.27-0.24c-0.11-0.06-0.24-0.09-0.38-0.11   c-0.14-0.02-0.28-0.03-0.42-0.03h-0.81V55.94z M71.4,53.8h1.24c0.23,0,0.47,0.01,0.7,0.04c0.23,0.03,0.44,0.09,0.62,0.18   c0.18,0.09,0.33,0.23,0.45,0.4c0.11,0.18,0.17,0.42,0.17,0.72c0,0.36-0.11,0.64-0.32,0.86c-0.22,0.22-0.51,0.36-0.89,0.42   l1.38,2.24h-0.71l-1.32-2.18h-0.74v2.18H71.4V53.8z"/>
	<path d="M78.06,54.55h-0.01l-1.01,2.39h1.98L78.06,54.55z M77.8,53.8h0.54l2.07,4.86h-0.67l-0.49-1.19h-2.43l-0.5,1.19h-0.65   L77.8,53.8z"/>
	<polygon points="84.31,54.34 82.7,54.34 82.7,58.66 82.13,58.66 82.13,54.34 80.52,54.34 80.52,53.8 84.31,53.8  "/>
	<polygon points="85.62,53.8 88.67,53.8 88.67,54.34 86.2,54.34 86.2,55.86 88.51,55.86 88.51,56.4 86.2,56.4 86.2,58.13    88.8,58.13 88.8,58.66 85.62,58.66  "/>
	<polygon points="92.86,53.8 93.72,53.8 95.37,57.61 95.38,57.61 97.04,53.8 97.88,53.8 97.88,58.66 97.3,58.66 97.3,54.59    97.29,54.59 95.54,58.66 95.19,58.66 93.45,54.59 93.44,54.59 93.44,58.66 92.86,58.66  "/>
	<rect x="99.71" y="53.8" width="0.58" height="4.86"/>
	<path d="M105.53,54.81c-0.15-0.2-0.33-0.34-0.54-0.44c-0.22-0.1-0.44-0.15-0.67-0.15c-0.27,0-0.52,0.06-0.74,0.16   c-0.23,0.11-0.42,0.26-0.59,0.44c-0.16,0.19-0.29,0.4-0.38,0.65c-0.09,0.24-0.14,0.5-0.14,0.76c0,0.28,0.04,0.55,0.14,0.79   c0.09,0.24,0.22,0.46,0.38,0.64c0.16,0.18,0.36,0.32,0.58,0.43c0.23,0.1,0.48,0.16,0.75,0.16c0.3,0,0.56-0.06,0.8-0.17   s0.44-0.28,0.61-0.5l0.43,0.36c-0.22,0.29-0.48,0.51-0.79,0.64c-0.31,0.14-0.66,0.21-1.05,0.21c-0.35,0-0.67-0.06-0.97-0.19   c-0.3-0.13-0.56-0.31-0.79-0.53c-0.22-0.23-0.4-0.49-0.52-0.81c-0.13-0.31-0.19-0.65-0.19-1.02c0-0.36,0.06-0.69,0.18-1   c0.12-0.31,0.29-0.58,0.51-0.81c0.22-0.23,0.48-0.41,0.78-0.54c0.3-0.13,0.63-0.2,0.99-0.2c0.33,0,0.65,0.06,0.95,0.18   c0.3,0.12,0.56,0.31,0.76,0.58L105.53,54.81z"/>
	<path d="M108.17,55.94h0.52c0.16,0,0.33,0,0.5-0.01c0.17-0.01,0.33-0.04,0.47-0.09c0.14-0.05,0.26-0.13,0.36-0.24   c0.09-0.11,0.14-0.26,0.14-0.46c0-0.17-0.03-0.31-0.1-0.42c-0.07-0.11-0.16-0.19-0.27-0.24c-0.11-0.06-0.24-0.09-0.38-0.11   c-0.14-0.02-0.28-0.03-0.42-0.03h-0.81V55.94z M107.59,53.8h1.24c0.23,0,0.47,0.01,0.7,0.04c0.23,0.03,0.44,0.09,0.62,0.18   c0.18,0.09,0.33,0.23,0.45,0.4c0.11,0.18,0.17,0.42,0.17,0.72c0,0.36-0.11,0.64-0.32,0.86c-0.22,0.22-0.51,0.36-0.89,0.42   l1.38,2.24h-0.71l-1.32-2.18h-0.74v2.18h-0.58V53.8z"/>
	<path d="M114.67,58.25c0.28,0,0.54-0.05,0.78-0.16c0.24-0.11,0.44-0.25,0.61-0.43c0.17-0.18,0.3-0.4,0.39-0.64   c0.09-0.24,0.14-0.51,0.14-0.79c0-0.28-0.05-0.54-0.14-0.79c-0.09-0.24-0.23-0.46-0.39-0.64c-0.17-0.18-0.37-0.33-0.61-0.43   c-0.24-0.1-0.5-0.16-0.78-0.16c-0.28,0-0.54,0.05-0.78,0.16c-0.24,0.11-0.44,0.25-0.61,0.43c-0.17,0.18-0.3,0.4-0.39,0.64   c-0.09,0.24-0.14,0.51-0.14,0.79c0,0.28,0.05,0.54,0.14,0.79c0.09,0.24,0.23,0.46,0.39,0.64c0.17,0.18,0.37,0.33,0.61,0.43   C114.13,58.2,114.39,58.25,114.67,58.25 M114.67,58.79c-0.37,0-0.71-0.06-1.02-0.19c-0.31-0.13-0.58-0.31-0.8-0.53   c-0.23-0.23-0.4-0.5-0.53-0.81c-0.13-0.31-0.19-0.65-0.19-1.02c0-0.37,0.06-0.71,0.19-1.02c0.13-0.31,0.3-0.58,0.53-0.81   c0.23-0.23,0.49-0.4,0.8-0.53c0.31-0.13,0.65-0.19,1.02-0.19c0.37,0,0.71,0.06,1.02,0.19c0.31,0.13,0.58,0.31,0.8,0.53   c0.23,0.23,0.4,0.5,0.53,0.81c0.13,0.31,0.19,0.65,0.19,1.02c0,0.37-0.06,0.71-0.19,1.02c-0.13,0.31-0.3,0.58-0.53,0.81   c-0.23,0.23-0.49,0.4-0.8,0.53C115.38,58.72,115.04,58.79,114.67,58.79"/>
	<path d="M119.35,58.13h0.97c0.14,0,0.28-0.01,0.42-0.04c0.14-0.03,0.27-0.08,0.38-0.14c0.11-0.07,0.2-0.15,0.27-0.26   c0.07-0.11,0.1-0.24,0.1-0.39c0-0.17-0.03-0.31-0.1-0.43c-0.07-0.11-0.15-0.21-0.26-0.27c-0.11-0.07-0.23-0.12-0.37-0.14   c-0.14-0.03-0.28-0.04-0.43-0.04h-0.99V58.13z M119.35,55.86h0.8c0.14,0,0.27-0.01,0.4-0.03c0.13-0.02,0.25-0.06,0.35-0.11   c0.1-0.06,0.19-0.14,0.25-0.24c0.06-0.1,0.1-0.24,0.1-0.41c0-0.15-0.03-0.27-0.09-0.37s-0.14-0.17-0.24-0.22   c-0.1-0.05-0.21-0.09-0.34-0.11c-0.13-0.02-0.25-0.03-0.38-0.03h-0.86V55.86z M118.77,53.8h1.48c0.2,0,0.4,0.02,0.59,0.06   c0.19,0.04,0.36,0.11,0.52,0.2c0.15,0.09,0.27,0.22,0.37,0.37c0.09,0.15,0.14,0.34,0.14,0.56c0,0.28-0.08,0.52-0.23,0.7   c-0.15,0.19-0.36,0.32-0.62,0.39v0.01c0.15,0.01,0.3,0.05,0.44,0.12c0.13,0.07,0.25,0.15,0.35,0.26c0.1,0.11,0.17,0.23,0.23,0.37   c0.06,0.14,0.08,0.29,0.08,0.45c0,0.27-0.06,0.49-0.17,0.67c-0.11,0.17-0.26,0.31-0.44,0.41c-0.18,0.1-0.38,0.18-0.61,0.22   c-0.23,0.04-0.45,0.06-0.68,0.06h-1.45V53.8z"/>
	<rect x="123.72" y="53.8" width="0.58" height="4.86"/>
	<path d="M127.98,54.55h-0.01l-1.01,2.39h1.98L127.98,54.55z M127.72,53.8h0.54l2.07,4.86h-0.67l-0.49-1.19h-2.43l-0.5,1.19h-0.65   L127.72,53.8z"/>
	<polygon points="131.6,53.8 132.18,53.8 132.18,58.13 134.4,58.13 134.4,58.66 131.6,58.66  "/>
	<rect x="138.2" y="53.8" width="0.58" height="4.86"/>
	<path d="M141.11,58.13h1.1c0.28,0,0.54-0.04,0.78-0.11c0.24-0.07,0.44-0.19,0.62-0.34c0.17-0.15,0.31-0.35,0.41-0.59   c0.1-0.24,0.15-0.52,0.15-0.86c0-0.33-0.05-0.62-0.15-0.86c-0.1-0.24-0.24-0.43-0.41-0.59c-0.17-0.15-0.38-0.27-0.62-0.34   c-0.24-0.07-0.5-0.11-0.78-0.11h-1.1V58.13z M140.53,53.8h1.87c0.16,0,0.33,0.02,0.51,0.06c0.18,0.04,0.36,0.09,0.53,0.17   c0.18,0.08,0.35,0.18,0.51,0.31c0.16,0.13,0.31,0.28,0.43,0.46c0.12,0.18,0.22,0.39,0.29,0.62c0.07,0.24,0.11,0.5,0.11,0.8   c0,0.3-0.04,0.56-0.11,0.8c-0.07,0.23-0.17,0.44-0.29,0.62c-0.12,0.18-0.27,0.34-0.43,0.46c-0.16,0.13-0.33,0.23-0.51,0.31   c-0.18,0.08-0.35,0.14-0.53,0.17c-0.18,0.04-0.35,0.06-0.51,0.06h-1.87V53.8z"/>
	<polygon points="146.33,53.8 149.39,53.8 149.39,54.34 146.91,54.34 146.91,55.86 149.22,55.86 149.22,56.4 146.91,56.4    146.91,58.13 149.51,58.13 149.51,58.66 146.33,58.66  "/>
	<polygon points="151.03,53.8 151.76,53.8 154.57,57.84 154.59,57.84 154.59,53.8 155.16,53.8 155.16,58.66 154.44,58.66    151.62,54.63 151.61,54.63 151.61,58.66 151.03,58.66  "/>
	<polygon points="160.26,54.34 158.66,54.34 158.66,58.66 158.08,58.66 158.08,54.34 156.47,54.34 156.47,53.8 160.26,53.8  "/>
	<rect x="161.57" y="53.8" width="0.58" height="4.86"/>
	<polygon points="163.99,53.8 167,53.8 167,54.34 164.57,54.34 164.57,55.94 166.83,55.94 166.83,56.48 164.57,56.48 164.57,58.66    163.99,58.66  "/>
	<rect x="168.44" y="53.8" width="0.58" height="4.86"/>
	<path d="M174.25,54.81c-0.15-0.2-0.33-0.34-0.54-0.44c-0.22-0.1-0.44-0.15-0.67-0.15c-0.27,0-0.52,0.06-0.74,0.16   c-0.23,0.11-0.42,0.26-0.59,0.44c-0.16,0.19-0.29,0.4-0.38,0.65c-0.09,0.24-0.14,0.5-0.14,0.76c0,0.28,0.04,0.55,0.14,0.79   c0.09,0.24,0.22,0.46,0.38,0.64c0.16,0.18,0.36,0.32,0.58,0.43c0.23,0.1,0.48,0.16,0.75,0.16c0.3,0,0.56-0.06,0.8-0.17   c0.23-0.12,0.44-0.28,0.61-0.5l0.43,0.36c-0.22,0.29-0.48,0.51-0.79,0.64c-0.31,0.14-0.66,0.21-1.05,0.21   c-0.35,0-0.67-0.06-0.97-0.19c-0.3-0.13-0.56-0.31-0.79-0.53c-0.22-0.23-0.4-0.49-0.52-0.81c-0.13-0.31-0.19-0.65-0.19-1.02   c0-0.36,0.06-0.69,0.18-1c0.12-0.31,0.29-0.58,0.51-0.81c0.22-0.23,0.48-0.41,0.78-0.54c0.3-0.13,0.63-0.2,0.99-0.2   c0.33,0,0.65,0.06,0.95,0.18c0.3,0.12,0.56,0.31,0.76,0.58L174.25,54.81z"/>
	<path d="M178.15,54.55h-0.01l-1.01,2.39h1.98L178.15,54.55z M177.89,53.8h0.54l2.07,4.86h-0.67l-0.49-1.19h-2.43l-0.5,1.19h-0.65   L177.89,53.8z"/>
	<polygon points="184.4,54.34 182.8,54.34 182.8,58.66 182.22,58.66 182.22,54.34 180.61,54.34 180.61,53.8 184.4,53.8  "/>
	<rect x="185.71" y="53.8" width="0.58" height="4.86"/>
	<path d="M190.39,58.25c0.28,0,0.54-0.05,0.78-0.16c0.24-0.11,0.44-0.25,0.61-0.43c0.17-0.18,0.3-0.4,0.39-0.64   c0.09-0.24,0.14-0.51,0.14-0.79c0-0.28-0.05-0.54-0.14-0.79c-0.09-0.24-0.23-0.46-0.39-0.64c-0.17-0.18-0.37-0.33-0.61-0.43   c-0.24-0.1-0.5-0.16-0.78-0.16c-0.28,0-0.54,0.05-0.78,0.16c-0.24,0.11-0.44,0.25-0.61,0.43c-0.17,0.18-0.3,0.4-0.39,0.64   c-0.09,0.24-0.14,0.51-0.14,0.79c0,0.28,0.05,0.54,0.14,0.79c0.09,0.24,0.23,0.46,0.39,0.64c0.17,0.18,0.37,0.33,0.61,0.43   C189.84,58.2,190.1,58.25,190.39,58.25 M190.39,58.79c-0.37,0-0.71-0.06-1.02-0.19c-0.31-0.13-0.58-0.31-0.8-0.53   c-0.23-0.23-0.4-0.5-0.53-0.81c-0.12-0.31-0.19-0.65-0.19-1.02c0-0.37,0.06-0.71,0.19-1.02c0.13-0.31,0.3-0.58,0.53-0.81   c0.23-0.23,0.49-0.4,0.8-0.53c0.31-0.13,0.65-0.19,1.02-0.19c0.37,0,0.71,0.06,1.02,0.19c0.31,0.13,0.58,0.31,0.8,0.53   c0.23,0.23,0.4,0.5,0.53,0.81c0.13,0.31,0.19,0.65,0.19,1.02c0,0.37-0.06,0.71-0.19,1.02c-0.13,0.31-0.3,0.58-0.53,0.81   c-0.23,0.23-0.49,0.4-0.8,0.53C191.1,58.72,190.76,58.79,190.39,58.79"/>
	<polygon points="194.48,53.8 195.21,53.8 198.02,57.84 198.04,57.84 198.04,53.8 198.61,53.8 198.61,58.66 197.89,58.66    195.07,54.63 195.06,54.63 195.06,58.66 194.48,58.66  "/>
	<path d="M11.15,34.68c1.21,0,2.18-0.98,2.18-2.18c0-1.21-0.98-2.18-2.18-2.18c-1.21,0-2.18,0.98-2.18,2.18   C8.97,33.7,9.95,34.68,11.15,34.68"/>
	<path d="M19.97,44.82c-0.7,0-1.3,0.41-1.6,1h-7.22v1.6h7.22c0.29,0.59,0.9,0.99,1.6,0.99c1.01,0,1.83-0.8,1.83-1.79   C21.8,45.62,20.98,44.82,19.97,44.82"/>
	<path d="M13.29,38.04c0.32,0.74,1.07,1.26,1.94,1.26c1.14,0,2.07-0.93,2.07-2.07s-0.93-2.07-2.07-2.07c-0.87,0-1.62,0.52-1.94,1.26   l-2.13,0.23v1.16L13.29,38.04z"/>
	<path d="M16.23,42.72c0.32,0.63,0.96,1.06,1.71,1.06c1.08,0,1.97-0.87,1.97-1.93c0-1.07-0.88-1.93-1.97-1.93   c-0.79,0-1.46,0.48-1.76,1.15l-5.02,0.17v1.31L16.23,42.72z"/>
	<path d="M15.27,51.85c0.2,0.4,0.6,0.68,1.08,0.68c0.68,0,1.23-0.54,1.23-1.2c0-0.66-0.55-1.2-1.23-1.2c-0.48,0-0.88,0.28-1.08,0.68   l-4.11-0.14v1.32L15.27,51.85z"/>
	<path d="M12.34,56.49c0.16,0.29,0.47,0.48,0.82,0.48c0.54,0,0.97-0.43,0.97-0.95c0-0.53-0.44-0.95-0.97-0.95   c-0.35,0-0.66,0.2-0.82,0.48l-1.19-0.13v1.19L12.34,56.49z"/>
	<path class="st0" d="M11.17,62.9c1.21,0,2.18-0.98,2.18-2.18c0-1.2-0.98-2.18-2.18-2.18c-1.21,0-2.18,0.98-2.18,2.18   C8.98,61.92,9.96,62.9,11.17,62.9"/>
	<path class="st0" d="M11.15,45.81H3.93c-0.3-0.59-0.91-0.99-1.63-0.99c-0.99,0-1.79,0.8-1.79,1.79c0,0.99,0.8,1.79,1.79,1.79   c0.71,0,1.33-0.41,1.63-0.99h7.22v-0.8V45.81z"/>
	<path class="st0" d="M9.21,36.28c-0.53,0-0.95,0.43-0.95,0.95c0,0.53,0.43,0.95,0.95,0.95c0.36,0,0.68-0.2,0.84-0.49l1.1,0.12   v-1.16l-1.1,0.12C9.88,36.48,9.57,36.28,9.21,36.28"/>
	<path class="st0" d="M6.24,40.69c-0.66,0-1.2,0.54-1.2,1.2c0,0.66,0.54,1.2,1.2,1.2c0.48,0,0.89-0.28,1.09-0.67l3.82,0.13v-1.31   l-3.82,0.13C7.13,40.97,6.72,40.69,6.24,40.69"/>
	<path class="st0" d="M4.41,49.39c-1.08,0-1.97,0.87-1.97,1.93c0,1.07,0.88,1.93,1.97,1.93c0.77,0,1.43-0.46,1.74-1.11l5.01-0.17   v-1.32L6.15,50.5C5.83,49.85,5.18,49.39,4.41,49.39"/>
	<path class="st0" d="M7.2,53.95c-1.14,0-2.07,0.93-2.07,2.07c0,1.14,0.93,2.07,2.07,2.07c0.87,0,1.62-0.52,1.94-1.26l2.01-0.21   v-1.19l-2.01-0.21C8.82,54.47,8.07,53.95,7.2,53.95"/>
	<path d="M2.33,20.18c0.7,0,1.3-0.41,1.6-0.99h7.22v-1.6H3.92c-0.29-0.59-0.9-0.99-1.6-0.99c-1.01,0-1.83,0.8-1.83,1.79   C0.5,19.38,1.32,20.18,2.33,20.18"/>
	<path d="M9.01,26.96c-0.32-0.74-1.07-1.26-1.94-1.26C5.93,25.7,5,26.63,5,27.77s0.93,2.07,2.07,2.07c0.87,0,1.62-0.52,1.94-1.26   l2.13-0.23v-1.16L9.01,26.96z"/>
	<path d="M6.07,22.28c-0.32-0.63-0.96-1.06-1.71-1.06c-1.08,0-1.97,0.87-1.97,1.93c0,1.07,0.88,1.93,1.97,1.93   c0.79,0,1.46-0.48,1.76-1.15l5.02-0.17v-1.31L6.07,22.28z"/>
	<path d="M7.03,13.15c-0.2-0.4-0.6-0.68-1.08-0.68c-0.68,0-1.23,0.54-1.23,1.2c0,0.66,0.55,1.2,1.23,1.2c0.48,0,0.88-0.28,1.08-0.68   l4.11,0.14v-1.32L7.03,13.15z"/>
	<path d="M9.96,8.51C9.79,8.22,9.49,8.03,9.13,8.03c-0.54,0-0.97,0.43-0.97,0.95c0,0.53,0.44,0.95,0.97,0.95   c0.35,0,0.66-0.2,0.82-0.48l1.19,0.13V8.39L9.96,8.51z"/>
	<path class="st0" d="M11.13,2.1c-1.21,0-2.18,0.98-2.18,2.18c0,1.21,0.98,2.18,2.18,2.18c1.21,0,2.18-0.98,2.18-2.18   C13.31,3.08,12.34,2.1,11.13,2.1"/>
	<path class="st0" d="M11.14,19.19h7.22c0.3,0.59,0.91,1,1.63,1c0.99,0,1.79-0.8,1.79-1.79c0-0.99-0.8-1.79-1.79-1.79   c-0.71,0-1.33,0.41-1.63,0.99h-7.22v0.8V19.19z"/>
	<path class="st0" d="M13.09,28.72c0.53,0,0.95-0.43,0.95-0.95c0-0.53-0.43-0.95-0.95-0.95c-0.36,0-0.68,0.2-0.84,0.49l-1.11-0.12   v1.16l1.1-0.12C12.42,28.52,12.73,28.72,13.09,28.72"/>
	<path class="st0" d="M16.06,24.31c0.66,0,1.2-0.54,1.2-1.2c0-0.66-0.54-1.2-1.2-1.2c-0.48,0-0.89,0.28-1.09,0.67l-3.82-0.13v1.31   l3.82-0.13C15.17,24.03,15.58,24.31,16.06,24.31"/>
	<path class="st0" d="M17.89,15.61c1.08,0,1.97-0.87,1.97-1.93c0-1.07-0.88-1.93-1.97-1.93c-0.77,0-1.43,0.46-1.74,1.11l-5.01,0.17   v1.32l5.01,0.16C16.46,15.15,17.12,15.61,17.89,15.61"/>
	<path class="st0" d="M15.1,11.05c1.14,0,2.07-0.93,2.07-2.07s-0.93-2.07-2.07-2.07c-0.87,0-1.62,0.52-1.94,1.26l-2.01,0.21v1.19   l2.01,0.21C13.48,10.53,14.23,11.05,15.1,11.05"/>
	<path d="M41.95,29.89l-8.03-14.94v18.89c0,0.69-0.58,1.27-1.27,1.27c-0.69,0-1.27-0.58-1.27-1.27V9.92c0-0.69,0.58-1.27,1.27-1.27   c0.58,0,0.96,0.35,1.15,0.73l9.29,17.4l9.33-17.4c0.15-0.27,0.46-0.73,1.15-0.73c0.69,0,1.27,0.58,1.27,1.27v23.92   c0,0.69-0.58,1.27-1.27,1.27c-0.69,0-1.27-0.58-1.27-1.27V14.95l-8.06,14.94c-0.27,0.5-0.69,0.73-1.15,0.73   C42.71,30.62,42.21,30.42,41.95,29.89"/>
	<path d="M62.43,33.88c0,0.69-0.54,1.23-1.23,1.23c-0.69,0-1.23-0.54-1.23-1.23V18.29c0-0.69,0.54-1.23,1.23-1.23   c0.69,0,1.23,0.54,1.23,1.23V33.88z M59.74,11.99c0-1.11,0.54-1.54,1.46-1.54c0.92,0,1.46,0.42,1.46,1.54   c0,0.92-0.54,1.46-1.46,1.46C60.28,13.45,59.74,12.91,59.74,11.99"/>
	<path d="M74.18,16.83c3.42,0,5.3,1.81,5.91,2.65c0.19,0.27,0.27,0.46,0.27,0.73c0,0.65-0.5,1.11-1.11,1.11   c-0.38,0-0.65-0.15-0.92-0.46c-0.58-0.65-1.61-1.81-4.15-1.81c-3.53,0-5.42,2.27-5.42,6.99c0,4.8,1.88,7.03,5.42,7.03   c2.23,0,3.57-1,4.45-1.65c0.27-0.19,0.46-0.27,0.73-0.27c0.61,0,1.11,0.5,1.11,1.11c0,0.35-0.11,0.62-0.5,0.96   c-0.84,0.69-2.69,2.07-5.8,2.07c-4.95,0-7.91-2.96-7.91-9.26S69.23,16.83,74.18,16.83"/>
	<path d="M86.81,19.98c0.77-1.77,2.69-3.07,5.34-3.07c0.65,0,1.19,0.54,1.19,1.19c0,0.65-0.54,1.19-1.19,1.19   c-3.53,0-5.34,2.46-5.34,5.99v8.6c0,0.69-0.54,1.23-1.23,1.23c-0.69,0-1.23-0.54-1.23-1.23V18.29c0-0.69,0.54-1.23,1.23-1.23   c0.69,0,1.23,0.54,1.23,1.23V19.98z"/>
	<path d="M107.47,26.05c0-4.84-2.04-6.99-5.57-6.99c-3.53,0-5.57,2.15-5.57,6.99c0,4.92,2.03,7.03,5.57,7.03   C105.43,33.07,107.47,30.96,107.47,26.05 M109.96,26.05c0,6.3-3.07,9.26-8.06,9.26c-4.95,0-8.06-2.96-8.06-9.26   c0-6.3,3.11-9.22,8.06-9.22C106.89,16.83,109.96,19.75,109.96,26.05"/>
	<path d="M132.12,29.89v-5.57h-6.41c-0.65,0-1.19-0.54-1.19-1.19c0-0.65,0.54-1.19,1.19-1.19h7.76c0.61,0,1.19,0.54,1.19,1.19v6.72   c0,0.46-0.15,0.84-0.5,1.27c-1.84,2.15-4.53,4.22-9.18,4.22c-7.45,0-11.98-3.99-11.98-13.44c0-9.1,4.53-13.48,11.98-13.48   c3.65,0,6.84,1.58,8.64,4.07c0.19,0.27,0.27,0.54,0.27,0.81c0,0.69-0.54,1.23-1.23,1.23c-0.35,0-0.69-0.11-1-0.5   c-1.31-1.8-3.76-3.23-6.68-3.23c-5.91,0-9.29,3.57-9.29,11.1c0,7.99,3.38,11.06,9.29,11.06C128.55,32.96,130.85,31.46,132.12,29.89   "/>
	<path d="M146.02,19.06c-3.34,0-5.18,2.15-5.41,5.57h10.33C150.94,21.86,149.98,19.06,146.02,19.06 M146.02,16.83   c6.14,0,7.34,4.88,7.34,7.49c0,1.11,0,2.46-1.54,2.46h-11.21c0,3.8,2.19,6.26,5.8,6.26c2.23,0,3.53-0.84,4.61-1.65   c0.23-0.15,0.38-0.23,0.69-0.23c0.61,0,1.11,0.5,1.11,1.11c0,0.42-0.19,0.65-0.42,0.88c-0.58,0.58-2.57,2.15-5.99,2.15   c-5.11,0-8.29-2.8-8.29-9.26C138.11,20.13,141.03,16.83,146.02,16.83"/>
	<path d="M170.92,23.63v10.25c0,0.69-0.54,1.23-1.23,1.23c-0.69,0-1.23-0.54-1.23-1.23v-9.75c0-3.03-0.88-5.11-4.61-5.11   c-3.8,0-5.11,2.3-5.11,5.38v9.49c0,0.69-0.54,1.23-1.23,1.23c-0.69,0-1.23-0.54-1.23-1.23V18.29c0-0.69,0.54-1.23,1.23-1.23   c0.69,0,1.23,0.54,1.23,1.23v1.23c0.73-1.46,2.61-2.69,5.11-2.69C169.76,16.83,170.92,20.36,170.92,23.63"/>
	<path d="M197.66,28.41c-0.36,0-0.71-0.17-0.92-0.49l-3.58-5.36l-3.58,5.36c-0.22,0.32-0.58,0.49-0.92,0.49   c-0.58,0-1.12-0.49-1.12-1.11c0-0.22,0.06-0.43,0.19-0.62l4.12-6.05l-4.05-5.94c-0.13-0.19-0.19-0.41-0.19-0.62   c0-0.58,0.49-1.12,1.12-1.12c0.36,0,0.71,0.17,0.92,0.49l3.52,5.26l3.52-5.26c0.22-0.32,0.58-0.49,0.92-0.49   c0.58,0,1.09,0.51,1.09,1.12c0,0.22-0.07,0.43-0.19,0.62l-4.06,5.94l4.14,6.05c0.13,0.19,0.19,0.41,0.19,0.62   C198.78,27.88,198.28,28.41,197.66,28.41"/>
	<path d="M183.04,22.41c0,2.25-1.31,3.63-3.6,3.63h-1.97V15.32h1.97c2.3,0,3.6,1.35,3.6,3.63V22.41z M179.41,13.16h-2.83   c-0.77,0-1.39,0.62-1.39,1.37v12.29c0,0.75,0.62,1.38,1.39,1.38h2.83c3.52,0,5.9-2.34,5.9-5.84v-3.37   C185.32,15.49,182.94,13.16,179.41,13.16"/>
	<path class="st0" d="M198.54,32.75h-23.11c-0.53,0-0.96,0.43-0.96,0.96c0,0.53,0.43,0.96,0.96,0.96h23.11   c0.53,0,0.96-0.43,0.96-0.96C199.5,33.18,199.07,32.75,198.54,32.75"/>
</g>
</svg>