<?xml version="1.0" encoding="UTF-8"?>
<!DOCTYPE svg PUBLIC "-//W3C//DTD SVG 1.1//EN" "http://www.w3.org/Graphics/SVG/1.1/DTD/svg11.dtd">
<svg version="1.1" id="Layer_1" xmlns="http://www.w3.org/2000/svg" x="0px" y="0px" width="810px" height="450px" viewBox="0 0 810 450" enable-background="new 0 0 810 450" xml:space="preserve">

<style>

@supports (-webkit-appearance:none) or (-moz-appearance:meterbar) {
  #blood {
        stroke-dasharray: 1000px;
        stroke-dashoffset: 1000px;
        animation: blood 1s cubic-bezier(0.39, 0.575, 0.565, 1) 1s forwards;
      }

    #purple-line {
      stroke-dasharray: 600px;
      stroke-dashoffset: 1000px;
      animation: line-animate 2s cubic-bezier(0.39, 0.575, 0.565, 1) 0.85s forwards;
    }

    #green-line {
    stroke-dasharray: 600px;
    stroke-dashoffset: 1000px;
      animation: line-animate 2s cubic-bezier(0.39, 0.575, 0.565, 1) 1.5s forwards;
    }

  #orange-line {
  stroke-dasharray: 600px;
  stroke-dashoffset: 1000px;
  animation: line-animate 2s cubic-bezier(0.39, 0.575, 0.565, 1) 1s forwards;
  }

  #orange-dot {
    opacity: 0;
    transform-origin: 50% 50%;
    animation: dot 0.3s cubic-bezier(0.39, 0.575, 0.565, 1) 1.3s forwards;
  }

  #purple-dot {
    opacity: 0;
    transform-origin: 50% 50%;
    animation: dot 0.3s cubic-bezier(0.39, 0.575, 0.565, 1) 1.4s forwards;
  }

  #blue-dot {
    opacity: 0;
    transform-origin: 50% 50%;
    animation: dot 0.45s cubic-bezier(0.39, 0.575, 0.565, 1) 1.4s forwards;
  }

  #blue-dot-2 {
    opacity: 0;
    transform-origin: 50% 50%;
    animation: dot 0.5s cubic-bezier(0.39, 0.575, 0.565, 1) 1.4s forwards;
  }

  #green-dot{
    opacity: 0;
    transform-origin: 50% 50%;
    animation: dot 0.75s cubic-bezier(0.39, 0.575, 0.565, 1) 1.4s forwards;
  }

  #purple-circle{
  opacity: 0;
  transform-origin: 50% 50%;
  animation: dot 0.75s cubic-bezier(0.39, 0.575, 0.565, 1) 1.4s forwards;
  }
  }

  #p, #i, #x, #e, #l {
    opacity: 0;
    transform: translateY(-40px);
  }

  #p {
    animation: letter-animate 1s cubic-bezier(0.39, 0.575, 0.565, 1) 1.8s forwards;
  }

  #i {
    animation: letter-animate 1s cubic-bezier(0.39, 0.575, 0.565, 1) 1.9s forwards;
  }

  #x {
    animation: letter-animate 1s cubic-bezier(0.39, 0.575, 0.565, 1) 2.0s forwards;
  }

  #e {
    animation: letter-animate 1s cubic-bezier(0.39, 0.575, 0.565, 1) 2.1s forwards;
  }

  #l {
    animation: letter-animate 1s cubic-bezier(0.39, 0.575, 0.565, 1) 2.2s forwards;
  }


  #labcorp {
    opacity: 0;
    animation: letter-animate-up 0.5s cubic-bezier(0.39, 0.575, 0.565, 1) 2s forwards;
  }


  @keyframes line-animate {
  to {
  stroke-dashoffset: 0px;
    }
  }

  @keyframes line-animate-to-dot {
    0% {
  stroke-dashoffset: 600px;
  transform: translateX(0px);
    }
    50% {
  stroke-dashoffset: 0;
  transform: translateX(0px);
    }
    100% {
  stroke-dashoffset: 599px;
  transform: translateX(180px);
    }
  }

  @keyframes blood {
    0% {
    transform: translateX(75px) translateY(-50px);
  }
  50% {
    transform: translateX(75px) translateY(0);
  }
  100% {
    transform: translateX(0) translateY(0);
    stroke-dashoffset: 0;
  }
  }

  @keyframes dot {
    from {
  transform: translateX(-20px);
  opacity: 0;
    }
    to {
  transform: translateX(0px);
  opacity: 1;
    }
  }

  @keyframes letter-animate {
    from {
  opacity: 0;
    }

    to {
  opacity: 1;
    }
  }

  @keyframes letter-animate-up {
    from {
  opacity: 0;
    }

    to {
  opacity: 1;
  transform: translate(-228px, -160px) scale(1.4);
    }
  }




</style>

  <!-- PIXEL -->
  <path id="p" fill="#4B2E6E" d="M386.498,309.159c0,5.447-2.724,7.047-6.59,7.047h-1.6c-3.809,0-6.59-1.581-6.59-7.047V163.98  c0-0.457,2.267-1.6,4.99-1.6c4.99,0,9.522,2.495,9.522,14.322v4.761c9.77-13.332,22.492-20.95,40.451-20.95  c28.567,0,51.116,22.264,51.116,56.583c0,34.32-22.034,57.04-52.03,57.04c-19.312,0-33.176-10.228-39.309-20.683L386.498,309.159z   M424.588,261.224c22.854,0,38.09-17.731,38.09-43.804c0-25.444-15.902-43.803-37.709-43.803c-18.854,0-32.034,9.999-38.852,25.673  v25.444c0.152,20.587,18.111,36.49,38.547,36.49H424.588z"/>
  <path id="i" fill="#4B2E6E" d="M505.548,126.48c0-6.589,3.409-9.77,9.998-9.77c6.59,0,9.522,3.181,9.522,9.77c0,6.59-3.408,9.77-9.998,9.77  C508.957,136.25,505.548,132.842,505.548,126.48z M507.814,169.427c0-5.447,2.723-7.046,6.589-7.046h1.581  c3.809,0,6.59,1.6,6.59,7.046v95.872c0,5.447-2.724,7.047-6.59,7.047h-1.581c-3.809,0-6.589-1.6-6.589-7.047V169.427z"/>
  <path id="x" fill="#4B2E6E" d="M588.488,217.591l-37.728-48.85c-0.457-0.686,1.6-6.361,7.503-6.361c5.219,0,7.732,2.952,11.142,7.503  l28.567,38.624l27.939-38.395c4.094-5.713,7.731-7.732,10.912-7.732c5.904,0,8.171,5.904,7.732,6.361l-38.09,48.85l37.5,48.393  c0.457,0.686-1.601,6.361-7.504,6.361c-5.219,0-7.732-2.952-11.142-7.504l-28.567-38.395l-27.729,38.09  c-3.638,4.99-6.818,7.732-11.142,7.732c-5.903,0-8.17-5.904-7.731-6.361L588.488,217.591z"/>
  <path id="e" fill="#4B2E6E" d="M715.042,160.571c30.472,0,50.431,21.578,50.431,54.526v1.371c0,4.095-1.58,4.99-6.132,4.99h-84.064  c1.143,23.177,17.959,39.538,41.118,39.538c21.14,0,30.681-9.085,37.042-19.312c0.457-0.686,8.627,1.371,8.627,8.398  c0,7.504-16.359,24.092-45.707,24.092c-32.948,0-55.897-23.178-55.897-56.354S683.675,160.571,715.042,160.571z M749.799,208.736  c-1.371-21.35-14.55-35.214-34.757-35.214s-36.186,14.55-39.309,35.214H749.799z"/>
  <path id="l" fill="#4B2E6E" d="M795.24,118.311c0-0.458,2.267-1.581,4.99-1.581c4.989,0,9.77,2.495,9.77,14.322v134.286  c0,5.447-2.724,7.047-6.59,7.047h-1.58c-3.81,0-6.59-1.6-6.59-7.047V118.311z"/>
  <!-- END PIXEL -->

  <path id="blood" fill="none" stroke="#EA1C2D" stroke-width="19" stroke-linecap="round" stroke-linejoin="round" stroke-miterlimit="10" d="  M274.5,268.271c0,44.632-36.181,80.812-80.813,80.812c-44.632,0-80.813-36.181-80.813-80.812  c0-44.632,80.813-178.813,80.813-178.813S274.5,223.639,274.5,268.271z"/>

  <line id="green-line" fill="none" stroke="#96C93F" stroke-width="25" stroke-linecap="round" stroke-miterlimit="10" x1="62.833" y1="166.322" x2="107.547" y2="166.322"/>
  <circle id="green-dot" fill="#60873B" cx="107.547" cy="166.208" r="12.398"/>


  <circle id="blue-dot" fill="#59C9E8" cx="71.438" cy="118.615" r="12.398"/>
  <circle id="blue-dot-2" fill="#59C9E8" cx="27.729" cy="264.271" r="12.398"/>

  <line id="purple-line" fill="none" stroke="#724C9F" stroke-width="25" stroke-linecap="round" stroke-miterlimit="10" x1="12.833" y1="215.401" x2="193.547" y2="215.401"/>
  <circle id="purple-dot" fill="#724C9F" cx="77.951" cy="312.931" r="12.398"/>
  <circle id="purple-circle" fill="#4B2E6E" cx="193.687" cy="215.42" r="12.398"/>

  <line id="orange-line" fill="none" stroke="#F99D26" stroke-width="25" stroke-linecap="round" stroke-miterlimit="10" x1="71.833" y1="263.834" x2="166.547" y2="263.834"/>
  <circle id="orange-dot" fill="#A46812" cx="166.624" cy="264.271" r="12.398"/>

  <!-- LABCORP COPY -->
  <g id="labcorp">
  <path fill="#4B2E6E" d="M481.018,342.945c0.037,2.286-0.199,4.568-0.704,6.799c-0.384,1.72-1.096,3.349-2.095,4.8     c-0.863,1.223-2.023,2.206-3.371,2.856c-1.433,0.656-2.995,0.982-4.571,0.952c-1.625,0.056-3.233-0.34-4.646-1.143     c-1.318-0.827-2.405-1.974-3.162-3.333l-0.267,3.81h-4.875v-46.451h5.332v17.35c0.772-1.278,1.845-2.351,3.124-3.123     c1.359-0.758,2.899-1.134,4.456-1.086c1.584-0.027,3.155,0.284,4.609,0.915c1.356,0.618,2.525,1.584,3.39,2.799     c1.008,1.46,1.72,3.104,2.095,4.838c0.508,2.288,0.744,4.627,0.705,6.971L481.018,342.945z M475.686,339.879     c0.02-1.588-0.095-3.174-0.343-4.742c-0.171-1.178-0.559-2.314-1.143-3.352c-0.513-0.82-1.245-1.48-2.114-1.904     c-1.019-0.475-2.134-0.703-3.257-0.667c-1.382-0.05-2.735,0.403-3.809,1.276c-1.024,0.881-1.838,1.98-2.381,3.218v15.599     c0.277,0.616,0.615,1.203,1.009,1.752c0.386,0.534,0.848,1.009,1.372,1.409c0.524,0.401,1.109,0.717,1.732,0.934     c0.688,0.226,1.409,0.335,2.134,0.323c2.088,0.162,4.098-0.832,5.237-2.59c1.221-2.515,1.766-5.305,1.58-8.095L475.686,339.879z"/>
    <path fill="#4B2E6E" d="M496.501,348.85l5.962-23.863h5.713l-10.855,37.766c-0.277,0.897-0.614,1.776-1.01,2.628     c-0.437,0.95-0.993,1.84-1.656,2.647c-0.671,0.823-1.484,1.52-2.4,2.057c-0.988,0.571-2.114,0.861-3.256,0.838h-0.705l-0.781-0.133     l-0.742-0.152l-0.553-0.134v-4.552c0.196,0.022,0.395,0.022,0.591,0h0.59c0.708,0.014,1.414-0.076,2.096-0.267     c0.598-0.179,1.149-0.483,1.618-0.895c0.514-0.47,0.934-1.031,1.238-1.657c0.4-0.811,0.72-1.659,0.952-2.533l0.934-3.237     l-9.637-32.49h5.847L496.501,348.85z"/>
    <path fill="#4B2E6E" d="M533.905,353.001h17.236v4.761h-22.854v-44.107h5.58L533.905,353.001z"/>
    <path fill="#4B2E6E" d="M573.995,357.743c-0.21-0.501-0.357-1.025-0.438-1.562c-0.114-0.635-0.197-1.308-0.248-2.019     c-0.39,0.571-0.829,1.106-1.314,1.6c-0.497,0.509-1.054,0.956-1.656,1.333c-0.596,0.382-1.235,0.688-1.905,0.914     c-0.74,0.224-1.511,0.332-2.285,0.324c-1.294,0.007-2.581-0.199-3.809-0.61c-1.128-0.401-2.149-1.052-2.99-1.904     c-0.849-0.843-1.499-1.864-1.904-2.99c-0.469-1.326-0.695-2.726-0.667-4.133c-0.015-1.493,0.264-2.975,0.819-4.36     c0.535-1.317,1.362-2.496,2.418-3.447c1.176-1.03,2.55-1.808,4.038-2.286c1.844-0.597,3.775-0.88,5.714-0.838h3.809v-3.485     c0.499-2.484-1.11-4.904-3.596-5.403c-0.554-0.111-1.123-0.119-1.68-0.024c-0.793-0.017-1.582,0.119-2.323,0.4     c-0.641,0.248-1.224,0.624-1.714,1.104c-0.465,0.46-0.828,1.011-1.067,1.619c-0.236,0.606-0.359,1.253-0.361,1.904h-5.352     c0.011-1.21,0.276-2.404,0.78-3.504c0.524-1.177,1.275-2.238,2.21-3.124c1.017-0.957,2.206-1.713,3.504-2.228     c1.465-0.587,3.031-0.878,4.608-0.857c1.41-0.014,2.814,0.173,4.171,0.552c1.21,0.333,2.329,0.932,3.276,1.753     c0.951,0.854,1.683,1.926,2.133,3.123c0.544,1.494,0.803,3.077,0.762,4.666v16.15c0,0.546,0,1.123,0,1.732s0.114,1.2,0.19,1.791     c0.076,0.59,0.21,1.143,0.324,1.676c0.118,0.496,0.265,0.986,0.438,1.466v0.477L573.995,357.743z M566.854,353.478     c0.718,0.007,1.432-0.103,2.114-0.324c0.67-0.2,1.31-0.488,1.904-0.857c0.532-0.342,1.02-0.752,1.447-1.219     c0.393-0.422,0.726-0.896,0.99-1.409v-7.865h-2.818c-1.182-0.017-2.36,0.124-3.505,0.419c-0.955,0.241-1.858,0.654-2.666,1.219     c-0.708,0.492-1.289,1.145-1.695,1.904c-0.406,0.843-0.608,1.77-0.59,2.704c-0.019,0.843,0.084,1.683,0.305,2.495     c0.163,0.614,0.478,1.177,0.914,1.638c0.422,0.426,0.946,0.734,1.523,0.896c0.64,0.22,1.306,0.354,1.98,0.4H566.854z"/>
    <path fill="#4B2E6E" d="M610.485,342.945c0.037,2.286-0.2,4.568-0.705,6.799c-0.384,1.72-1.095,3.349-2.095,4.8     c-0.863,1.223-2.022,2.206-3.371,2.856c-1.433,0.656-2.995,0.982-4.57,0.952c-1.625,0.056-3.233-0.34-4.647-1.143     c-1.317-0.827-2.405-1.974-3.161-3.333l-0.267,3.81h-4.876v-46.451h5.333v17.35c0.772-1.278,1.845-2.351,3.123-3.123     c1.36-0.758,2.9-1.134,4.457-1.086c1.584-0.027,3.155,0.284,4.608,0.915c1.357,0.618,2.526,1.584,3.391,2.799     c1.008,1.46,1.72,3.104,2.095,4.838c0.507,2.288,0.744,4.627,0.704,6.971L610.485,342.945z M605.152,339.879     c0.021-1.588-0.095-3.174-0.343-4.742c-0.17-1.178-0.558-2.314-1.143-3.352c-0.512-0.82-1.244-1.48-2.113-1.904     c-1.019-0.475-2.134-0.703-3.257-0.667c-1.383-0.05-2.736,0.403-3.81,1.276c-1.024,0.881-1.838,1.98-2.38,3.218v15.599     c0.277,0.616,0.615,1.203,1.009,1.752c0.386,0.534,0.848,1.009,1.371,1.409c0.524,0.401,1.109,0.717,1.733,0.934     c0.688,0.226,1.409,0.335,2.133,0.323c2.089,0.162,4.099-0.832,5.237-2.59c1.222-2.515,1.767-5.305,1.581-8.095L605.152,339.879z"/>
    <path fill="#4B2E6E" d="M645.719,343.707c-0.086,2.082-0.471,4.141-1.143,6.113c-0.576,1.7-1.497,3.263-2.705,4.59     c-1.204,1.287-2.69,2.278-4.342,2.895c-1.927,0.706-3.967,1.048-6.019,1.01c-2.072,0.034-4.125-0.408-5.999-1.295     c-1.787-0.898-3.34-2.203-4.532-3.809c-1.321-1.752-2.303-3.735-2.896-5.848c-0.696-2.479-1.036-5.043-1.009-7.617v-8.151     c-0.027-2.574,0.312-5.14,1.009-7.618c0.591-2.126,1.587-4.117,2.934-5.866c1.248-1.62,2.859-2.925,4.704-3.809     c1.977-0.903,4.13-1.353,6.304-1.314c1.948-0.038,3.887,0.291,5.713,0.972c1.598,0.618,3.031,1.596,4.19,2.856     c1.205,1.344,2.125,2.918,2.704,4.628c0.684,2.041,1.062,4.172,1.124,6.323h-5.6c-0.089-1.512-0.325-3.011-0.704-4.476     c-0.283-1.124-0.788-2.18-1.486-3.104c-0.622-0.839-1.457-1.496-2.418-1.904c-1.113-0.419-2.297-0.619-3.485-0.591     c-1.452-0.035-2.89,0.306-4.171,0.99c-1.188,0.671-2.188,1.627-2.914,2.781c-0.823,1.328-1.403,2.792-1.714,4.323     c-0.392,1.878-0.577,3.794-0.553,5.713v8.209c-0.009,1.819,0.151,3.637,0.477,5.428c0.262,1.537,0.77,3.023,1.505,4.399     c0.648,1.2,1.593,2.216,2.742,2.951c1.242,0.739,2.669,1.109,4.113,1.067c1.292,0.032,2.58-0.154,3.81-0.553     c0.995-0.338,1.879-0.944,2.552-1.752c0.711-0.905,1.225-1.95,1.505-3.066c0.38-1.473,0.622-2.978,0.724-4.494L645.719,343.707z"/>
    <path fill="#4B2E6E" d="M651.355,339.898c-0.04-2.287,0.295-4.564,0.99-6.742c0.571-1.776,1.49-3.421,2.705-4.838     c1.103-1.261,2.477-2.257,4.019-2.913c1.559-0.664,3.237-1.001,4.933-0.991c1.713-0.009,3.41,0.328,4.989,0.991     c1.546,0.642,2.926,1.624,4.038,2.875c1.214,1.417,2.133,3.062,2.704,4.838c0.695,2.178,1.03,4.455,0.99,6.742v3.085     c0.038,2.273-0.296,4.538-0.99,6.704c-0.571,1.775-1.491,3.42-2.704,4.837c-1.101,1.265-2.475,2.262-4.019,2.914     c-3.19,1.281-6.752,1.281-9.941,0c-1.545-0.652-2.919-1.648-4.019-2.914c-1.214-1.417-2.133-3.062-2.705-4.837     c-0.693-2.166-1.028-4.431-0.99-6.704V339.898z M656.707,342.983c-0.029,1.604,0.156,3.206,0.553,4.761     c0.307,1.208,0.829,2.35,1.543,3.371c0.601,0.854,1.397,1.554,2.323,2.038c0.901,0.46,1.901,0.695,2.914,0.686     c4.862,0,7.294-3.612,7.294-10.837v-3.104c0.027-1.593-0.158-3.181-0.553-4.724c-0.309-1.212-0.831-2.36-1.542-3.39     c-0.602-0.859-1.397-1.564-2.324-2.057c-0.899-0.468-1.899-0.709-2.913-0.705c-1.002-0.004-1.99,0.237-2.876,0.705     c-0.921,0.492-1.712,1.197-2.305,2.057c-0.7,1.033-1.216,2.181-1.523,3.39c-0.395,1.543-0.58,3.131-0.553,4.724L656.707,342.983z"/>
    <path fill="#4B2E6E" d="M697.14,330.014c-0.419-0.076-0.812-0.133-1.181-0.171h-1.238c-1.303-0.047-2.576,0.387-3.58,1.219     c-1.001,0.889-1.749,2.024-2.171,3.295v23.444h-5.352v-32.758h5.218v3.333c0.602-1.137,1.455-2.12,2.495-2.876     c1.052-0.724,2.305-1.097,3.58-1.066h0.553l0.628,0.114l0.553,0.134l0.381,0.133L697.14,330.014z"/>
    <path fill="#4B2E6E" d="M726.146,342.945c0,5.192-0.934,9.059-2.8,11.599c-1.829,2.525-4.809,3.958-7.923,3.809     c-1.534,0.041-3.056-0.285-4.438-0.952c-1.263-0.658-2.347-1.612-3.161-2.78v15.75h-5.333v-45.384h4.818l0.267,3.637     c0.792-1.294,1.892-2.373,3.2-3.142c1.388-0.758,2.952-1.133,4.532-1.086c1.597-0.03,3.181,0.281,4.647,0.914     c1.353,0.616,2.517,1.583,3.37,2.8c0.998,1.463,1.703,3.106,2.076,4.837c0.508,2.288,0.744,4.628,0.705,6.971L726.146,342.945z     M720.832,339.898c0.199-2.815-0.388-5.631-1.695-8.133c-1.216-1.783-3.295-2.779-5.447-2.609c-1.26-0.043-2.498,0.332-3.523,1.067     c-0.978,0.735-1.772,1.688-2.323,2.78v17.141c0.544,1.059,1.318,1.983,2.267,2.704c2.969,1.874,6.878,1.172,9.008-1.619     c1.312-2.514,1.905-5.341,1.715-8.17V339.898z"/>
</g>
  <!-- END LABCORP COPY -->

</svg>