<?xml version="1.0" encoding="UTF-8" standalone="no"?>
<svg
   xmlns:dc="http://purl.org/dc/elements/1.1/"
   xmlns:cc="http://creativecommons.org/ns#"
   xmlns:rdf="http://www.w3.org/1999/02/22-rdf-syntax-ns#"
   xmlns:svg="http://www.w3.org/2000/svg"
   xmlns="http://www.w3.org/2000/svg"
   xmlns:sodipodi="http://sodipodi.sourceforge.net/DTD/sodipodi-0.dtd"
   xmlns:inkscape="http://www.inkscape.org/namespaces/inkscape"
   inkscape:version="1.0 (4035a4fb49, 2020-05-01)"
   sodipodi:docname="logo-sticker.svg"
   id="svg12"
   version="1.1"
   viewBox="0 0 225 75"
   height="75"
   width="225">
  <metadata
     id="metadata16">
    <rdf:RDF>
      <cc:Work
         rdf:about="">
        <dc:format>image/svg+xml</dc:format>
        <dc:type
           rdf:resource="http://purl.org/dc/dcmitype/StillImage" />
        <dc:title>logo</dc:title>
      </cc:Work>
    </rdf:RDF>
  </metadata>
  <sodipodi:namedview
     inkscape:lockguides="false"
     showguides="true"
     inkscape:document-rotation="0"
     inkscape:current-layer="svg12"
     inkscape:window-maximized="0"
     inkscape:window-y="40"
     inkscape:window-x="0"
     inkscape:cy="52.597121"
     inkscape:cx="108.71383"
     inkscape:zoom="4.4783383"
     showgrid="false"
     id="namedview14"
     inkscape:window-height="998"
     inkscape:window-width="1918"
     inkscape:pageshadow="2"
     inkscape:pageopacity="0"
     guidetolerance="10"
     gridtolerance="10"
     objecttolerance="10"
     borderopacity="1"
     bordercolor="#666666"
     pagecolor="#ffffff" />
  <!-- Generator: Sketch 51.3 (57544) - http://www.bohemiancoding.com/sketch -->
  <title
     id="title2">logo</title>
  <desc
     id="desc4">Created with Sketch.</desc>
  <defs
     id="defs6">
    <rect
       id="rect2107"
       height="67.10701"
       width="194.52635"
       y="-9.3339529"
       x="-6.2959623" />
  </defs>
  <text
     id="text4353"
     y="-48.136044"
     x="4.2678823"
     style="font-style:normal;font-weight:normal;font-size:40px;line-height:1.25;font-family:sans-serif;letter-spacing:0px;word-spacing:0px;fill:#000000;fill-opacity:1;stroke:none"
     xml:space="preserve" />
  <g
     transform="translate(3.7856587,21.899785)"
     aria-label=")"
     id="text846"
     style="font-style:normal;font-weight:normal;font-size:40px;line-height:1.25;font-family:sans-serif;letter-spacing:0px;word-spacing:0px;fill:#bc0000;fill-opacity:1;stroke:none">
    <path
       d="m 45.225101,21.162674 q 0,5.527344 -1.816406,10.175781 -1.796875,4.648438 -5.546875,9.042969 h -7.363281 v -0.566406 q 1.5625,-1.386719 3.046875,-3.261719 1.484375,-1.875 2.636719,-4.199219 1.210937,-2.421875 1.914062,-5.136719 0.722656,-2.714843 0.722656,-6.054687 0,-3.203125 -0.742187,-6.035156 Q 37.354008,12.295486 36.182133,9.9712677 34.951664,7.5493927 33.506351,5.7525177 32.08057,3.9361115 30.498539,2.5103302 V 1.943924 h 7.363281 q 3.75,4.3945312 5.546875,9.042969 1.816406,4.648437 1.816406,10.175781 z"
       style="font-style:normal;font-variant:normal;font-weight:bold;font-stretch:normal;font-size:40px;font-family:Verdana;-inkscape-font-specification:'Verdana, Normal';font-variant-ligatures:normal;font-variant-caps:normal;font-variant-numeric:normal;font-variant-east-asian:normal;fill:#ff5555"
       id="path869" />
  </g>
  <g
     transform="translate(3.7856587,21.899785)"
     aria-label="âš"
     id="text943"
     style="font-size:40px;line-height:1.25;font-family:GurbaniBoliLite;-inkscape-font-specification:GurbaniBoliLite;letter-spacing:0px;word-spacing:0px;opacity:0.973217">
    <path
       d="M 10.258948,21.778152 8.3922828,20.434153 q 1.3813322,-4.367996 2.5386642,-7.46666 1.157333,-3.0986645 2.090665,-4.8533297 2.053332,-3.84533 3.807997,-3.84533 1.343999,0 2.949331,2.4266646 1.530665,2.2773313 2.799997,5.8613281 H 20.152273 Q 19.032274,9.6448287 18.061608,8.0394967 17.202942,6.6208312 16.829609,6.6208312 q -0.298666,0 -1.045332,1.1199991 -0.709333,1.119999 -1.605332,3.1359977 -1.045333,2.351998 -2.053332,5.077329 -0.970666,2.725331 -1.866665,5.823995 z m 4.143996,6.682661 Q 11.341614,26.370148 8.8776157,24.578149 6.4509511,22.748818 4.6589527,21.143486 0.85095591,17.783488 0.85095591,16.32749 q 0,-1.530666 1.67999859,-2.277332 0.746666,-0.335999 1.9039984,-0.522666 1.1573323,-0.224 2.7626643,-0.149333 l 2.6879977,0.07467 -0.6719994,2.239999 -2.0159983,-0.07467 q -2.1653315,0 -3.2479973,0.298666 -0.746666,0.224 -0.746666,0.410667 0,0.261333 0.8586659,1.194665 0.858666,0.896 2.3893313,2.202665 1.6799986,1.455999 4.1066629,3.285331 2.463998,1.791998 5.674662,3.994663 z M 27.1336,23.756817 26.274934,21.554152 q 4.106663,-3.583997 4.106663,-4.703996 0,-0.149333 -0.485332,-0.373333 Q 29.410932,16.21549 28.477599,16.066157 27.320267,15.87949 25.528268,15.76749 23.773603,15.618157 21.384272,15.618157 H 19.33094 q -1.605332,0 -3.17333,0 -1.567999,0 -3.061331,0.07467 l 0.671999,-2.239999 q 1.269332,-0.03733 2.613331,-0.03733 1.343999,-0.03733 2.837331,-0.03733 h 1.941332 q 3.098664,0 5.263995,0.186666 2.165332,0.186667 3.434664,0.56 2.837331,0.821332 2.837331,2.575998 0,1.082665 -1.231999,2.650664 -1.269332,1.642665 -4.330663,4.40533 z m -1.493332,10.602657 q -1.493332,0 -3.583997,-0.933332 -2.053331,-0.895999 -4.293329,-2.575998 l 1.866665,-1.381332 q 1.007999,0.746666 2.127998,1.381332 1.119999,0.634666 2.127998,1.007999 1.007999,0.373333 1.642665,0.373333 0.298667,0 0.336,-0.07467 0.07467,-0.112 0.07467,-0.56 0,-0.858666 -0.410667,-2.501331 -0.373333,-1.642665 -1.082666,-3.770664 -0.671999,-2.127998 -1.567998,-4.442663 -0.895999,-2.314664 -1.903999,-4.479996 h 2.501332 q 1.343999,2.949331 2.351998,5.898662 1.045332,2.949331 1.642665,5.413329 0.597333,2.463998 0.597333,3.95733 0,2.687997 -2.426665,2.687997 z M 8.0936164,34.172808 q -2.1653315,0 -2.1653315,-2.911998 0,-2.725331 1.1199991,-7.093327 l 1.9413316,1.343999 q -0.9333325,4.06933 -0.9333325,5.823995 0,0.485333 0.037333,0.597333 0.074667,0.112 0.2239998,0.112 0.6346661,0 2.2026651,-0.746666 1.567999,-0.746666 3.658664,-1.978665 2.127998,-1.231999 4.367996,-2.762665 2.277331,-1.567998 4.330663,-3.17333 l 0.858666,2.090665 q -1.829332,1.455998 -4.06933,2.986664 -2.202665,1.530665 -4.442663,2.837331 -2.239998,1.306665 -4.106663,2.090664 -1.8666655,0.784 -3.0239976,0.784 z"
       style="font-style:normal;font-variant:normal;font-weight:normal;font-stretch:normal;font-size:37.3333px;font-family:'Comic Sans MS';-inkscape-font-specification:'Comic Sans MS'"
       id="path866" />
  </g>
  <text
     id="text947"
     y="-39.160362"
     x="-17.65653"
     style="font-size:40px;line-height:1.25;font-family:GurbaniBoliLite;-inkscape-font-specification:GurbaniBoliLite;letter-spacing:0px;word-spacing:0px"
     xml:space="preserve"><tspan
       y="-39.160362"
       x="-17.65653"
       id="tspan945"
       sodipodi:role="line" /></text>
  <text
     xml:space="preserve"
     style="font-size:40px;line-height:1.25;font-family:GurbaniBoliLite;-inkscape-font-specification:GurbaniBoliLite;letter-spacing:0px;word-spacing:0px"
     x="-111.53504"
     y="-17.744659"
     id="text849"><tspan
       sodipodi:role="line"
       id="tspan847"
       x="-111.53504"
       y="-17.744659" /></text>
  <text
     id="text1506"
     y="78.28334"
     x="225.07397"
     style="font-size:40px;line-height:1.25;font-family:GurbaniBoliLite;-inkscape-font-specification:GurbaniBoliLite;letter-spacing:0px;word-spacing:0px"
     xml:space="preserve"><tspan
       y="78.28334"
       x="225.07397"
       id="tspan1504"
       sodipodi:role="line" /></text>
  <text
     style="font-size:40px;line-height:1.25;font-family:GurbaniBoliLite;-inkscape-font-specification:GurbaniBoliLite;letter-spacing:0px;word-spacing:0px;white-space:pre;shape-inside:url(#rect2107);"
     id="text2105"
     xml:space="preserve" />
  <text
     id="text885"
     y="60.020702"
     x="16.352695"
     style="font-size:40px;line-height:1.25;font-family:GurbaniBoliLite;-inkscape-font-specification:GurbaniBoliLite;letter-spacing:0px;word-spacing:0px"
     xml:space="preserve"><tspan
       y="60.020702"
       x="16.352695"
       id="tspan883"
       sodipodi:role="line" /></text>
  <text
     id="text889"
     y="74.308884"
     x="13.878025"
     style="font-size:40px;line-height:1.25;font-family:GurbaniBoliLite;-inkscape-font-specification:GurbaniBoliLite;letter-spacing:0px;word-spacing:0px"
     xml:space="preserve"><tspan
       style="font-style:normal;font-variant:normal;font-weight:normal;font-stretch:normal;font-size:13.3333px;font-family:GurbaniBoliLite;-inkscape-font-specification:'GurbaniBoliLite, Normal';font-variant-ligatures:normal;font-variant-caps:normal;font-variant-numeric:normal;font-variant-east-asian:normal"
       y="74.308884"
       x="13.878025"
       id="tspan887"
       sodipodi:role="line" /></text>
  <g
     style="font-size:40px;line-height:1.25;font-family:GurbaniBoliLite;-inkscape-font-specification:GurbaniBoliLite;letter-spacing:0px;word-spacing:0px"
     id="text893"
     aria-label="healthshieldogic.com 


">
    <path
       id="path994"
       style="font-style:normal;font-variant:normal;font-weight:normal;font-stretch:normal;font-size:16px;font-family:Inconsolata;-inkscape-font-specification:'Inconsolata, Normal';font-variant-ligatures:normal;font-variant-caps:normal;font-variant-numeric:normal;font-variant-east-asian:normal"
       d="m 59.784005,23.673725 h 1.264 v 0.112 q -0.096,0.096 -0.128,0.208 -0.016,0.112 -0.016,0.384 v 3.92 q 0.432,-0.672 1.072,-1.072 0.656,-0.4 1.328,-0.4 0.992,0 1.6,0.704 0.624,0.688 0.624,2.352 v 4.432 h -1.12 v -4.4 q 0,-1.152 -0.4,-1.616 -0.384,-0.464 -0.944,-0.464 -0.48,0 -0.992,0.272 -0.496,0.272 -0.832,0.784 -0.336,0.496 -0.336,1.216 v 4.208 h -1.12 z" />
    <path
       id="path996"
       style="font-style:normal;font-variant:normal;font-weight:normal;font-stretch:normal;font-size:16px;font-family:Inconsolata;-inkscape-font-specification:'Inconsolata, Normal';font-variant-ligatures:normal;font-variant-caps:normal;font-variant-numeric:normal;font-variant-east-asian:normal"
       d="m 70.967974,34.473725 q -1.6,0 -2.592,-0.976 -0.976,-0.976 -0.976,-2.816 0,-1.248 0.448,-2.096 0.464,-0.864 1.216,-1.312 0.768,-0.448 1.696,-0.448 0.832,0 1.504,0.368 0.672,0.368 1.072,1.136 0.4,0.768 0.4,1.968 0,0.128 -0.016,0.272 0,0.128 -0.016,0.256 h -5.2 q 0.064,1.408 0.784,2.064 0.736,0.656 1.712,0.656 1.152,0 1.888,-0.816 l 0.64,0.624 q -0.928,1.12 -2.56,1.12 z m -2.416,-4.544 h 4.016 q 0,-1.024 -0.528,-1.616 -0.512,-0.608 -1.36,-0.608 -0.752,0 -1.36,0.544 -0.608,0.528 -0.768,1.68 z" />
    <path
       id="path998"
       style="font-style:normal;font-variant:normal;font-weight:normal;font-stretch:normal;font-size:16px;font-family:Inconsolata;-inkscape-font-specification:'Inconsolata, Normal';font-variant-ligatures:normal;font-variant-caps:normal;font-variant-numeric:normal;font-variant-east-asian:normal"
       d="m 77.991944,34.489725 q -1.248,0 -1.92,-0.56 -0.672,-0.576 -0.672,-1.456 0,-0.784 0.496,-1.344 0.496,-0.576 1.328,-0.88 0.848,-0.32 1.856,-0.32 0.368,0 0.768,0.016 0.416,0.016 0.88,0.08 -0.096,-1.28 -0.672,-1.76 -0.56,-0.48 -1.616,-0.48 -0.528,0 -1.04,0.208 -0.512,0.192 -0.928,0.608 l -0.56,-0.736 q 0.512,-0.512 1.184,-0.768 0.672,-0.256 1.424,-0.256 0.976,0 1.696,0.32 0.72,0.32 1.12,1.104 0.4,0.784 0.4,2.16 v 3.888 h -1.248 v -1.12 q -0.272,0.528 -0.704,0.816 -0.416,0.272 -0.896,0.368 -0.464,0.112 -0.896,0.112 z m -1.44,-2.08 q 0,0.688 0.448,0.944 0.448,0.256 1.104,0.256 1.184,0 1.872,-0.688 0.688,-0.704 0.752,-2.016 -0.832,-0.112 -1.552,-0.112 -1.152,0 -1.888,0.384 -0.736,0.384 -0.736,1.232 z" />
    <path
       id="path1000"
       style="font-style:normal;font-variant:normal;font-weight:normal;font-stretch:normal;font-size:16px;font-family:Inconsolata;-inkscape-font-specification:'Inconsolata, Normal';font-variant-ligatures:normal;font-variant-caps:normal;font-variant-numeric:normal;font-variant-east-asian:normal"
       d="m 83.879913,34.313725 v -0.928 h 2.16 v -8.784 h -2.064 v -0.928 h 3.232 v 9.712 h 2.144 v 0.928 z" />
    <path
       id="path1002"
       style="font-style:normal;font-variant:normal;font-weight:normal;font-stretch:normal;font-size:16px;font-family:Inconsolata;-inkscape-font-specification:'Inconsolata, Normal';font-variant-ligatures:normal;font-variant-caps:normal;font-variant-numeric:normal;font-variant-east-asian:normal"
       d="m 95.399883,34.425725 q -0.944,0 -1.44,-0.432 -0.48,-0.432 -0.64,-1.328 -0.16,-0.912 -0.112,-2.32 l 0.096,-2.4 h -1.568 v -0.944 h 1.6 l 0.064,-1.872 1.2,-0.144 0.16,-0.016 0.016,0.112 q -0.08,0.112 -0.144,0.224 -0.048,0.112 -0.08,0.384 l -0.112,1.312 h 2.56 v 0.944 h -2.544 l -0.112,2.48 q -0.048,1.216 0.064,1.888 0.112,0.656 0.4,0.912 0.288,0.24 0.768,0.24 0.528,0 0.928,-0.208 0.416,-0.208 0.864,-0.528 l 0.352,0.912 q -0.544,0.4 -1.12,0.592 -0.576,0.192 -1.2,0.192 z" />
    <path
       id="path1004"
       style="font-style:normal;font-variant:normal;font-weight:normal;font-stretch:normal;font-size:16px;font-family:Inconsolata;-inkscape-font-specification:'Inconsolata, Normal';font-variant-ligatures:normal;font-variant-caps:normal;font-variant-numeric:normal;font-variant-east-asian:normal"
       d="m 99.783852,23.673725 h 1.263998 v 0.112 q -0.096,0.096 -0.128,0.208 -0.016,0.112 -0.016,0.384 v 3.92 q 0.432,-0.672 1.072,-1.072 0.656,-0.4 1.328,-0.4 0.992,0 1.6,0.704 0.624,0.688 0.624,2.352 v 4.432 h -1.12 v -4.4 q 0,-1.152 -0.4,-1.616 -0.384,-0.464 -0.944,-0.464 -0.48,0 -0.992,0.272 -0.496,0.272 -0.832,0.784 -0.336,0.496 -0.336,1.216 v 4.208 h -1.119998 z" />
    <path
       id="path1006"
       style="font-style:normal;font-variant:normal;font-weight:normal;font-stretch:normal;font-size:16px;font-family:Inconsolata;-inkscape-font-specification:'Inconsolata, Normal';font-variant-ligatures:normal;font-variant-caps:normal;font-variant-numeric:normal;font-variant-east-asian:normal"
       d="m 110.63182,34.473725 q -1.856,0 -3.104,-1.152 l 0.64,-1.088 0.096,-0.144 0.096,0.064 q 0.032,0.128 0.064,0.272 0.048,0.128 0.224,0.32 0.336,0.336 0.8,0.56 0.48,0.208 1.216,0.208 0.88,0 1.36,-0.304 0.496,-0.32 0.496,-0.864 0,-0.464 -0.416,-0.768 -0.4,-0.304 -1.424,-0.64 -1.264,-0.368 -2.016,-0.912 -0.736,-0.544 -0.736,-1.36 0,-0.832 0.672,-1.328 0.688,-0.512 2.016,-0.512 1.024,0 1.696,0.288 0.672,0.288 1.216,0.864 l -0.656,0.8 -0.112,0.128 -0.08,-0.08 q -0.016,-0.128 -0.08,-0.24 -0.048,-0.128 -0.224,-0.304 -0.368,-0.288 -0.832,-0.432 -0.464,-0.16 -0.896,-0.16 -0.64,0 -1.104,0.224 -0.464,0.224 -0.464,0.688 0,0.24 0.16,0.48 0.176,0.224 0.624,0.464 0.448,0.224 1.28,0.464 1.376,0.416 1.936,0.912 0.576,0.48 0.576,1.264 0,0.608 -0.336,1.136 -0.32,0.528 -0.992,0.848 -0.672,0.304 -1.696,0.304 z" />
    <path
       id="path1008"
       style="font-style:normal;font-variant:normal;font-weight:normal;font-stretch:normal;font-size:16px;font-family:Inconsolata;-inkscape-font-specification:'Inconsolata, Normal';font-variant-ligatures:normal;font-variant-caps:normal;font-variant-numeric:normal;font-variant-east-asian:normal"
       d="m 115.78379,23.673725 h 1.264 v 0.112 q -0.096,0.096 -0.128,0.208 -0.016,0.112 -0.016,0.384 v 3.92 q 0.432,-0.672 1.072,-1.072 0.656,-0.4 1.328,-0.4 0.992,0 1.6,0.704 0.624,0.688 0.624,2.352 v 4.432 h -1.12 v -4.4 q 0,-1.152 -0.4,-1.616 -0.384,-0.464 -0.944,-0.464 -0.48,0 -0.992,0.272 -0.496,0.272 -0.832,0.784 -0.336,0.496 -0.336,1.216 v 4.208 h -1.12 z" />
    <path
       id="path1010"
       style="font-style:normal;font-variant:normal;font-weight:normal;font-stretch:normal;font-size:16px;font-family:Inconsolata;-inkscape-font-specification:'Inconsolata, Normal';font-variant-ligatures:normal;font-variant-caps:normal;font-variant-numeric:normal;font-variant-east-asian:normal"
       d="m 124.21576,34.313725 v -0.928 h 1.872 v -5.456 h -1.776 v -0.928 h 2.928 v 6.384 h 1.712 v 0.928 z m 2.384,-8.848 q -0.336,0 -0.576,-0.24 -0.24,-0.24 -0.24,-0.576 0,-0.352 0.224,-0.592 0.24,-0.24 0.592,-0.24 0.336,0 0.576,0.256 0.256,0.24 0.256,0.576 0,0.336 -0.256,0.576 -0.24,0.24 -0.576,0.24 z" />
    <path
       id="path1012"
       style="font-style:normal;font-variant:normal;font-weight:normal;font-stretch:normal;font-size:16px;font-family:Inconsolata;-inkscape-font-specification:'Inconsolata, Normal';font-variant-ligatures:normal;font-variant-caps:normal;font-variant-numeric:normal;font-variant-east-asian:normal"
       d="m 134.96773,34.473725 q -1.6,0 -2.592,-0.976 -0.976,-0.976 -0.976,-2.816 0,-1.248 0.448,-2.096 0.464,-0.864 1.216,-1.312 0.768,-0.448 1.696,-0.448 0.832,0 1.504,0.368 0.672,0.368 1.072,1.136 0.4,0.768 0.4,1.968 0,0.128 -0.016,0.272 0,0.128 -0.016,0.256 h -5.2 q 0.064,1.408 0.784,2.064 0.736,0.656 1.712,0.656 1.152,0 1.888,-0.816 l 0.64,0.624 q -0.928,1.12 -2.56,1.12 z m -2.416,-4.544 h 4.016 q 0,-1.024 -0.528,-1.616 -0.512,-0.608 -1.36,-0.608 -0.752,0 -1.36,0.544 -0.608,0.528 -0.768,1.68 z" />
    <path
       id="path1014"
       style="font-style:normal;font-variant:normal;font-weight:normal;font-stretch:normal;font-size:16px;font-family:Inconsolata;-inkscape-font-specification:'Inconsolata, Normal';font-variant-ligatures:normal;font-variant-caps:normal;font-variant-numeric:normal;font-variant-east-asian:normal"
       d="m 139.8797,34.313725 v -0.928 h 2.16 v -8.784 h -2.064 v -0.928 h 3.232 v 9.712 h 2.144 v 0.928 z" />
    <path
       id="path1016"
       style="font-style:normal;font-variant:normal;font-weight:normal;font-stretch:normal;font-size:16px;font-family:Inconsolata;-inkscape-font-specification:'Inconsolata, Normal';font-variant-ligatures:normal;font-variant-caps:normal;font-variant-numeric:normal;font-variant-east-asian:normal"
       d="m 150.35967,34.473725 q -0.736,0 -1.44,-0.416 -0.688,-0.432 -1.136,-1.296 -0.448,-0.864 -0.448,-2.176 0,-1.344 0.464,-2.176 0.464,-0.832 1.168,-1.216 0.72,-0.384 1.456,-0.384 0.752,0 1.296,0.352 0.56,0.336 0.832,0.912 v -4.4 h 1.216 v 0.112 q -0.096,0.096 -0.128,0.208 -0.016,0.112 -0.016,0.384 l 0.016,8.8 q 0,0.288 0.016,0.576 0.032,0.272 0.144,0.56 h -1.136 q -0.112,-0.288 -0.144,-0.56 -0.016,-0.288 -0.016,-0.576 -0.352,0.592 -0.896,0.944 -0.544,0.352 -1.248,0.352 z m 0.176,-1.008 q 0.704,0 1.12,-0.384 0.432,-0.384 0.608,-1.024 0.192,-0.656 0.192,-1.44 0,-1.232 -0.48,-2.048 -0.48,-0.816 -1.536,-0.816 -0.976,0 -1.488,0.72 -0.496,0.72 -0.496,1.936 0,1.376 0.528,2.224 0.528,0.832 1.552,0.832 z" />
    <path
       id="path1018"
       style="font-style:normal;font-variant:normal;font-weight:normal;font-stretch:normal;font-size:16px;font-family:Inconsolata;-inkscape-font-specification:'Inconsolata, Normal';font-variant-ligatures:normal;font-variant-caps:normal;font-variant-numeric:normal;font-variant-east-asian:normal"
       d="m 158.61564,34.441725 q -0.992,0 -1.76,-0.48 -0.752,-0.496 -1.184,-1.344 -0.432,-0.864 -0.432,-1.968 0,-1.12 0.432,-1.968 0.432,-0.864 1.184,-1.344 0.768,-0.496 1.76,-0.496 0.992,0 1.744,0.496 0.768,0.48 1.2,1.344 0.432,0.848 0.432,1.968 0,1.104 -0.432,1.968 -0.432,0.848 -1.2,1.344 -0.752,0.48 -1.744,0.48 z m 0,-0.96 q 0.64,0 1.12,-0.368 0.48,-0.368 0.752,-1.008 0.288,-0.64 0.288,-1.472 0,-1.248 -0.608,-2.032 -0.608,-0.8 -1.552,-0.8 -0.944,0 -1.552,0.8 -0.608,0.784 -0.608,2.032 0,0.832 0.272,1.472 0.288,0.64 0.768,1.008 0.496,0.368 1.12,0.368 z" />
    <path
       id="path1020"
       style="font-style:normal;font-variant:normal;font-weight:normal;font-stretch:normal;font-size:16px;font-family:Inconsolata;-inkscape-font-specification:'Inconsolata, Normal';font-variant-ligatures:normal;font-variant-caps:normal;font-variant-numeric:normal;font-variant-east-asian:normal"
       d="m 166.23161,31.833725 q -0.624,0 -1.136,-0.224 -0.288,0.352 -0.288,0.672 0,0.384 0.48,0.56 0.48,0.16 1.76,0.16 1.12,0 1.696,0.24 0.576,0.24 0.784,0.656 0.208,0.416 0.208,0.96 0,0.56 -0.304,1.072 -0.304,0.512 -1.008,0.816 -0.688,0.32 -1.856,0.32 -1.536,0 -2.448,-0.48 -0.896,-0.464 -0.896,-1.408 0,-0.592 0.336,-1.008 0.336,-0.432 0.8,-0.64 -0.528,-0.352 -0.528,-0.976 0,-0.352 0.176,-0.688 0.176,-0.336 0.48,-0.656 -0.816,-0.72 -0.816,-1.936 0,-0.704 0.304,-1.28 0.32,-0.576 0.896,-0.912 0.576,-0.352 1.36,-0.352 0.592,0 1.056,0.208 0.48,0.192 0.816,0.544 0.416,-0.384 0.88,-0.544 0.464,-0.176 1.088,-0.128 l 0.144,0.944 q -0.48,-0.048 -0.912,0.016 -0.416,0.064 -0.784,0.304 0.272,0.544 0.272,1.2 0,0.704 -0.32,1.296 -0.304,0.576 -0.88,0.928 -0.56,0.336 -1.36,0.336 z m 0,-0.96 q 0.704,0 1.152,-0.464 0.448,-0.48 0.448,-1.136 0,-0.656 -0.448,-1.12 -0.448,-0.48 -1.152,-0.48 -0.688,0 -1.152,0.48 -0.448,0.464 -0.448,1.12 0,0.656 0.448,1.136 0.464,0.464 1.152,0.464 z m -1.952,4.176 q 0,0.544 0.608,0.848 0.624,0.304 1.696,0.304 1.088,0 1.584,-0.336 0.512,-0.32 0.512,-0.832 0,-0.352 -0.128,-0.576 -0.128,-0.224 -0.528,-0.336 -0.4,-0.112 -1.216,-0.112 -0.56,0 -1.024,-0.048 -0.448,-0.048 -0.816,-0.16 -0.368,0.256 -0.528,0.512 -0.16,0.272 -0.16,0.736 z" />
    <path
       id="path1022"
       style="font-style:normal;font-variant:normal;font-weight:normal;font-stretch:normal;font-size:16px;font-family:Inconsolata;-inkscape-font-specification:'Inconsolata, Normal';font-variant-ligatures:normal;font-variant-caps:normal;font-variant-numeric:normal;font-variant-east-asian:normal"
       d="m 172.21558,34.313725 v -0.928 h 1.872 v -5.456 h -1.776 v -0.928 h 2.928 v 6.384 h 1.712 v 0.928 z m 2.384,-8.848 q -0.336,0 -0.576,-0.24 -0.24,-0.24 -0.24,-0.576 0,-0.352 0.224,-0.592 0.24,-0.24 0.592,-0.24 0.336,0 0.576,0.256 0.256,0.24 0.256,0.576 0,0.336 -0.256,0.576 -0.24,0.24 -0.576,0.24 z" />
    <path
       id="path1024"
       style="font-style:normal;font-variant:normal;font-weight:normal;font-stretch:normal;font-size:16px;font-family:Inconsolata;-inkscape-font-specification:'Inconsolata, Normal';font-variant-ligatures:normal;font-variant-caps:normal;font-variant-numeric:normal;font-variant-east-asian:normal"
       d="m 183.17555,34.489725 q -1.056,0 -1.888,-0.496 -0.832,-0.496 -1.312,-1.36 -0.464,-0.864 -0.464,-1.968 0,-1.104 0.464,-1.952 0.48,-0.864 1.296,-1.36 0.832,-0.496 1.888,-0.496 0.896,0 1.6,0.368 0.72,0.352 1.168,0.992 l -0.72,0.704 -0.112,0.112 -0.08,-0.08 q 0,-0.128 -0.064,-0.24 -0.048,-0.112 -0.24,-0.304 -0.352,-0.32 -0.752,-0.448 -0.4,-0.128 -0.928,-0.128 -0.608,0 -1.152,0.336 -0.528,0.336 -0.864,0.96 -0.32,0.608 -0.32,1.456 0,0.816 0.32,1.472 0.336,0.64 0.912,1.024 0.576,0.368 1.312,0.368 1.104,0 1.904,-0.896 l 0.672,0.784 q -1.072,1.152 -2.64,1.152 z" />
    <path
       id="path1026"
       style="font-style:normal;font-variant:normal;font-weight:normal;font-stretch:normal;font-size:16px;font-family:Inconsolata;-inkscape-font-specification:'Inconsolata, Normal';font-variant-ligatures:normal;font-variant-caps:normal;font-variant-numeric:normal;font-variant-east-asian:normal"
       d="m 190.42352,34.489725 q -0.384,0 -0.656,-0.272 -0.272,-0.272 -0.272,-0.64 0,-0.368 0.272,-0.64 0.272,-0.272 0.656,-0.272 0.368,0 0.64,0.272 0.272,0.272 0.272,0.64 0,0.368 -0.272,0.64 -0.272,0.272 -0.64,0.272 z" />
    <path
       id="path1028"
       style="font-style:normal;font-variant:normal;font-weight:normal;font-stretch:normal;font-size:16px;font-family:Inconsolata;-inkscape-font-specification:'Inconsolata, Normal';font-variant-ligatures:normal;font-variant-caps:normal;font-variant-numeric:normal;font-variant-east-asian:normal"
       d="m 199.17549,34.489725 q -1.056,0 -1.888,-0.496 -0.832,-0.496 -1.312,-1.36 -0.464,-0.864 -0.464,-1.968 0,-1.104 0.464,-1.952 0.48,-0.864 1.296,-1.36 0.832,-0.496 1.888,-0.496 0.896,0 1.6,0.368 0.72,0.352 1.168,0.992 l -0.72,0.704 -0.112,0.112 -0.08,-0.08 q 0,-0.128 -0.064,-0.24 -0.048,-0.112 -0.24,-0.304 -0.352,-0.32 -0.752,-0.448 -0.4,-0.128 -0.928,-0.128 -0.608,0 -1.152,0.336 -0.528,0.336 -0.864,0.96 -0.32,0.608 -0.32,1.456 0,0.816 0.32,1.472 0.336,0.64 0.912,1.024 0.576,0.368 1.312,0.368 1.104,0 1.904,-0.896 l 0.672,0.784 q -1.072,1.152 -2.64,1.152 z" />
    <path
       id="path1030"
       style="font-style:normal;font-variant:normal;font-weight:normal;font-stretch:normal;font-size:16px;font-family:Inconsolata;-inkscape-font-specification:'Inconsolata, Normal';font-variant-ligatures:normal;font-variant-caps:normal;font-variant-numeric:normal;font-variant-east-asian:normal"
       d="m 206.61546,34.441725 q -0.992,0 -1.76,-0.48 -0.752,-0.496 -1.184,-1.344 -0.432,-0.864 -0.432,-1.968 0,-1.12 0.432,-1.968 0.432,-0.864 1.184,-1.344 0.768,-0.496 1.76,-0.496 0.992,0 1.744,0.496 0.768,0.48 1.2,1.344 0.432,0.848 0.432,1.968 0,1.104 -0.432,1.968 -0.432,0.848 -1.2,1.344 -0.752,0.48 -1.744,0.48 z m 0,-0.96 q 0.64,0 1.12,-0.368 0.48,-0.368 0.752,-1.008 0.288,-0.64 0.288,-1.472 0,-1.248 -0.608,-2.032 -0.608,-0.8 -1.552,-0.8 -0.944,0 -1.552,0.8 -0.608,0.784 -0.608,2.032 0,0.832 0.272,1.472 0.288,0.64 0.768,1.008 0.496,0.368 1.12,0.368 z" />
    <path
       id="path1032"
       style="font-style:normal;font-variant:normal;font-weight:normal;font-stretch:normal;font-size:16px;font-family:Inconsolata;-inkscape-font-specification:'Inconsolata, Normal';font-variant-ligatures:normal;font-variant-caps:normal;font-variant-numeric:normal;font-variant-east-asian:normal"
       d="m 211.22343,34.313725 v -7.312 h 1.056 v 0.72 q 0.256,-0.4 0.656,-0.64 0.4,-0.256 0.832,-0.256 0.48,0 0.832,0.304 0.368,0.304 0.464,0.768 0.208,-0.48 0.656,-0.768 0.448,-0.304 0.992,-0.304 0.752,0 1.088,0.544 0.352,0.528 0.32,1.328 v 5.616 h -1.056 v -5.184 q 0,-0.672 -0.096,-0.976 -0.08,-0.304 -0.24,-0.384 -0.16,-0.096 -0.352,-0.096 -0.304,0 -0.576,0.288 -0.256,0.272 -0.432,0.688 -0.16,0.416 -0.16,0.832 v 4.832 h -1.072 v -5.088 q 0,-0.912 -0.176,-1.216 -0.16,-0.304 -0.624,-0.304 -0.352,0 -0.704,0.464 -0.352,0.448 -0.352,1.264 v 4.88 z" />
  </g>
  <g
     style="font-size:13.3333px;line-height:1.25;font-family:GurbaniBoliLite;-inkscape-font-specification:'GurbaniBoliLite, Normal';letter-spacing:0px;word-spacing:0px"
     id="text921"
     aria-label="(818) 851 0033 ">
    <path
       id="path1035"
       style="font-style:normal;font-variant:normal;font-weight:normal;font-stretch:normal;font-size:10.6667px;font-family:Inconsolata;-inkscape-font-specification:'Inconsolata, Normal';font-variant-ligatures:normal;font-variant-caps:normal;font-variant-numeric:normal;font-variant-east-asian:normal"
       d="m 62.854418,47.639526 q -0.885336,-0.416001 -1.546672,-1.109336 -0.650668,-0.704003 -1.013336,-1.578672 -0.352001,-0.885336 -0.352001,-1.834673 0,-0.949336 0.352001,-1.802672 0.352001,-0.864003 0.992003,-1.536005 0.640002,-0.682669 1.504005,-1.088003 l 0.202667,0.661335 q -0.682669,0.373335 -1.205337,0.960003 -0.512002,0.586669 -0.800003,1.312004 -0.288001,0.725336 -0.288001,1.525338 0,0.800003 0.288001,1.536005 0.288001,0.736003 0.821336,1.333338 0.533335,0.597335 1.248004,0.981336 z" />
    <path
       id="path1037"
       style="font-style:normal;font-variant:normal;font-weight:normal;font-stretch:normal;font-size:10.6667px;font-family:Inconsolata;-inkscape-font-specification:'Inconsolata, Normal';font-variant-ligatures:normal;font-variant-caps:normal;font-variant-numeric:normal;font-variant-east-asian:normal"
       d="m 66.641076,46.636857 q -0.629335,0 -1.088003,-0.234668 -0.448002,-0.245334 -0.693336,-0.650669 -0.245334,-0.405334 -0.245334,-0.896002 0,-0.576002 0.362668,-1.077337 0.362668,-0.501335 0.97067,-0.778669 -0.458669,-0.234668 -0.736003,-0.650669 -0.277334,-0.426668 -0.277334,-0.90667 0,-0.682668 0.437335,-1.16267 0.448001,-0.480001 1.322671,-0.480001 0.618668,0 1.002669,0.213334 0.384002,0.213334 0.565336,0.576001 0.192,0.352002 0.192,0.789336 0,0.480002 -0.288001,0.917336 -0.288001,0.426668 -0.768002,0.682669 0.576002,0.266668 0.928003,0.768003 0.352001,0.490668 0.352001,1.06667 0,0.522668 -0.256001,0.938669 -0.245334,0.405335 -0.704002,0.650669 -0.448002,0.234668 -1.077337,0.234668 z m 0.181334,-3.925346 q 0.394668,-0.213334 0.650669,-0.576002 0.256001,-0.362668 0.256001,-0.736002 0,-0.373335 -0.266668,-0.672002 -0.256001,-0.298668 -0.789336,-0.298668 -0.522668,0 -0.778669,0.288001 -0.245334,0.288001 -0.245334,0.650669 0,0.490668 0.341334,0.789335 0.341335,0.288001 0.832003,0.554669 z m -0.160001,3.253343 q 0.618669,0 0.93867,-0.330667 0.320001,-0.341335 0.320001,-0.821336 0,-0.490668 -0.384001,-0.896003 -0.384001,-0.416001 -1.03467,-0.618669 -0.480002,0.202668 -0.800003,0.608002 -0.320001,0.394668 -0.320001,0.87467 0,0.480001 0.330668,0.832002 0.341335,0.352001 0.949336,0.352001 z" />
    <path
       id="path1039"
       style="font-style:normal;font-variant:normal;font-weight:normal;font-stretch:normal;font-size:10.6667px;font-family:Inconsolata;-inkscape-font-specification:'Inconsolata, Normal';font-variant-ligatures:normal;font-variant-caps:normal;font-variant-numeric:normal;font-variant-east-asian:normal"
       d="m 71.761072,46.53019 v -5.728019 l -1.344004,0.394668 -0.170668,-0.416001 1.738672,-0.90667 h 0.522669 v 6.656022 z" />
    <path
       id="path1041"
       style="font-style:normal;font-variant:normal;font-weight:normal;font-stretch:normal;font-size:10.6667px;font-family:Inconsolata;-inkscape-font-specification:'Inconsolata, Normal';font-variant-ligatures:normal;font-variant-caps:normal;font-variant-numeric:normal;font-variant-east-asian:normal"
       d="m 77.307735,46.636857 q -0.629335,0 -1.088003,-0.234668 -0.448002,-0.245334 -0.693336,-0.650669 -0.245334,-0.405334 -0.245334,-0.896002 0,-0.576002 0.362668,-1.077337 0.362668,-0.501335 0.970669,-0.778669 -0.458668,-0.234668 -0.736002,-0.650669 -0.277334,-0.426668 -0.277334,-0.90667 0,-0.682668 0.437335,-1.16267 0.448001,-0.480001 1.32267,-0.480001 0.618669,0 1.00267,0.213334 0.384002,0.213334 0.565335,0.576001 0.192001,0.352002 0.192001,0.789336 0,0.480002 -0.288001,0.917336 -0.288001,0.426668 -0.768002,0.682669 0.576002,0.266668 0.928003,0.768003 0.352001,0.490668 0.352001,1.06667 0,0.522668 -0.256001,0.938669 -0.245334,0.405335 -0.704002,0.650669 -0.448002,0.234668 -1.077337,0.234668 z m 0.181334,-3.925346 q 0.394668,-0.213334 0.650669,-0.576002 0.256,-0.362668 0.256,-0.736002 0,-0.373335 -0.266667,-0.672002 -0.256001,-0.298668 -0.789336,-0.298668 -0.522668,0 -0.778669,0.288001 -0.245334,0.288001 -0.245334,0.650669 0,0.490668 0.341334,0.789335 0.341335,0.288001 0.832003,0.554669 z m -0.160001,3.253343 q 0.618669,0 0.93867,-0.330667 0.320001,-0.341335 0.320001,-0.821336 0,-0.490668 -0.384001,-0.896003 -0.384001,-0.416001 -1.03467,-0.618669 -0.480002,0.202668 -0.800003,0.608002 -0.320001,0.394668 -0.320001,0.87467 0,0.480001 0.330668,0.832002 0.341334,0.352001 0.949336,0.352001 z" />
    <path
       id="path1043"
       style="font-style:normal;font-variant:normal;font-weight:normal;font-stretch:normal;font-size:10.6667px;font-family:Inconsolata;-inkscape-font-specification:'Inconsolata, Normal';font-variant-ligatures:normal;font-variant-caps:normal;font-variant-numeric:normal;font-variant-east-asian:normal"
       d="m 81.393061,47.639526 q 0.885336,-0.416001 1.536005,-1.109336 0.661335,-0.704003 1.013337,-1.578672 0.362667,-0.885336 0.362667,-1.834673 0,-0.949336 -0.352001,-1.802672 -0.352001,-0.864003 -0.992003,-1.536005 -0.640002,-0.682669 -1.504005,-1.088003 L 81.254394,39.3515 q 0.682669,0.373335 1.194671,0.960003 0.522668,0.586669 0.810669,1.312004 0.288001,0.725336 0.288001,1.525338 0,0.800003 -0.288001,1.536005 -0.288001,0.736003 -0.821336,1.333338 -0.533335,0.597335 -1.248004,0.981336 z" />
    <path
       id="path1045"
       style="font-style:normal;font-variant:normal;font-weight:normal;font-stretch:normal;font-size:10.6667px;font-family:Inconsolata;-inkscape-font-specification:'Inconsolata, Normal';font-variant-ligatures:normal;font-variant-caps:normal;font-variant-numeric:normal;font-variant-east-asian:normal"
       d="m 93.307724,46.636857 q -0.629336,0 -1.088004,-0.234668 -0.448001,-0.245334 -0.693335,-0.650669 -0.245335,-0.405334 -0.245335,-0.896002 0,-0.576002 0.362668,-1.077337 0.362668,-0.501335 0.97067,-0.778669 -0.458668,-0.234668 -0.736002,-0.650669 -0.277335,-0.426668 -0.277335,-0.90667 0,-0.682668 0.437335,-1.16267 0.448002,-0.480001 1.322671,-0.480001 0.618669,0 1.00267,0.213334 0.384001,0.213334 0.565335,0.576001 0.192001,0.352002 0.192001,0.789336 0,0.480002 -0.288001,0.917336 -0.288001,0.426668 -0.768003,0.682669 0.576002,0.266668 0.928003,0.768003 0.352001,0.490668 0.352001,1.06667 0,0.522668 -0.256001,0.938669 -0.245334,0.405335 -0.704002,0.650669 -0.448001,0.234668 -1.077336,0.234668 z m 0.181333,-3.925346 q 0.394668,-0.213334 0.650669,-0.576002 0.256001,-0.362668 0.256001,-0.736002 0,-0.373335 -0.266668,-0.672002 -0.256,-0.298668 -0.789335,-0.298668 -0.522669,0 -0.77867,0.288001 -0.245334,0.288001 -0.245334,0.650669 0,0.490668 0.341335,0.789335 0.341334,0.288001 0.832002,0.554669 z m -0.16,3.253343 q 0.618669,0 0.93867,-0.330667 0.320001,-0.341335 0.320001,-0.821336 0,-0.490668 -0.384002,-0.896003 -0.384001,-0.416001 -1.03467,-0.618669 -0.480001,0.202668 -0.800002,0.608002 -0.320001,0.394668 -0.320001,0.87467 0,0.480001 0.330668,0.832002 0.341334,0.352001 0.949336,0.352001 z" />
    <path
       id="path1047"
       style="font-style:normal;font-variant:normal;font-weight:normal;font-stretch:normal;font-size:10.6667px;font-family:Inconsolata;-inkscape-font-specification:'Inconsolata, Normal';font-variant-ligatures:normal;font-variant-caps:normal;font-variant-numeric:normal;font-variant-east-asian:normal"
       d="m 98.630389,46.647523 q -0.608002,0 -1.13067,-0.266667 -0.512002,-0.266668 -0.84267,-0.757336 l 0.682669,-0.512002 0.04267,0.05333 q -0.01067,0.08533 0.02133,0.16 0.04267,0.07467 0.149334,0.213334 0.213334,0.234668 0.469335,0.352001 0.266667,0.106667 0.650669,0.106667 0.341334,0 0.629335,-0.192 0.298668,-0.192001 0.480002,-0.544002 0.181333,-0.362668 0.181333,-0.853336 0,-0.746669 -0.405334,-1.16267 -0.394668,-0.416002 -0.960003,-0.416002 -0.341335,0 -0.672002,0.170668 -0.330668,0.16 -0.576002,0.458668 l -0.469335,-0.192001 0.224001,-3.381344 h 3.370679 v 0.672002 h -2.741344 l -0.106667,1.90934 q 0.533335,-0.256001 1.088003,-0.256001 0.576002,0 1.024004,0.277334 0.458664,0.266668 0.714664,0.768003 0.26667,0.501334 0.26667,1.184003 0,0.682669 -0.27733,1.184004 -0.27734,0.490668 -0.746671,0.757336 -0.469335,0.266667 -1.06667,0.266667 z" />
    <path
       id="path1049"
       style="font-style:normal;font-variant:normal;font-weight:normal;font-stretch:normal;font-size:10.6667px;font-family:Inconsolata;-inkscape-font-specification:'Inconsolata, Normal';font-variant-ligatures:normal;font-variant-caps:normal;font-variant-numeric:normal;font-variant-east-asian:normal"
       d="m 103.76105,46.53019 v -5.728019 l -1.344,0.394668 -0.17067,-0.416001 1.73867,-0.90667 h 0.52267 v 6.656022 z" />
    <path
       id="path1051"
       style="font-style:normal;font-variant:normal;font-weight:normal;font-stretch:normal;font-size:10.6667px;font-family:Inconsolata;-inkscape-font-specification:'Inconsolata, Normal';font-variant-ligatures:normal;font-variant-caps:normal;font-variant-numeric:normal;font-variant-east-asian:normal"
       d="m 114.64104,46.647523 q -0.992,0 -1.52533,-0.885336 -0.53334,-0.885336 -0.53334,-2.517341 0,-1.578672 0.53334,-2.485341 0.53333,-0.917337 1.52533,-0.917337 0.99201,0 1.52534,0.917337 0.53334,0.906669 0.53334,2.485341 0,1.632005 -0.53334,2.517341 -0.53333,0.885336 -1.52534,0.885336 z m -1.29067,-3.402677 q 0,0.682669 0.096,1.216004 l 2.26134,-2.91201 q -0.16,-0.501334 -0.43733,-0.778669 -0.26667,-0.277334 -0.62934,-0.277334 -0.608,0 -0.94933,0.746669 -0.34134,0.746669 -0.34134,2.00534 z m 1.29067,2.752008 q 0.60801,0 0.94934,-0.714668 0.34133,-0.714669 0.34133,-2.03734 0,-0.586669 -0.0747,-1.06667 l -2.26134,2.869342 q 0.33067,0.949336 1.04533,0.949336 z" />
    <path
       id="path1053"
       style="font-style:normal;font-variant:normal;font-weight:normal;font-stretch:normal;font-size:10.6667px;font-family:Inconsolata;-inkscape-font-specification:'Inconsolata, Normal';font-variant-ligatures:normal;font-variant-caps:normal;font-variant-numeric:normal;font-variant-east-asian:normal"
       d="m 119.97437,46.647523 q -0.992,0 -1.52534,-0.885336 -0.53333,-0.885336 -0.53333,-2.517341 0,-1.578672 0.53333,-2.485341 0.53334,-0.917337 1.52534,-0.917337 0.99201,0 1.52534,0.917337 0.53334,0.906669 0.53334,2.485341 0,1.632005 -0.53334,2.517341 -0.53333,0.885336 -1.52534,0.885336 z m -1.29067,-3.402677 q 0,0.682669 0.096,1.216004 l 2.26134,-2.91201 q -0.16,-0.501334 -0.43733,-0.778669 -0.26667,-0.277334 -0.62934,-0.277334 -0.608,0 -0.94933,0.746669 -0.34134,0.746669 -0.34134,2.00534 z m 1.29067,2.752008 q 0.608,0 0.94934,-0.714668 0.34133,-0.714669 0.34133,-2.03734 0,-0.586669 -0.0747,-1.06667 l -2.26134,2.869342 q 0.33066,0.949336 1.04533,0.949336 z" />
    <path
       id="path1055"
       style="font-style:normal;font-variant:normal;font-weight:normal;font-stretch:normal;font-size:10.6667px;font-family:Inconsolata;-inkscape-font-specification:'Inconsolata, Normal';font-variant-ligatures:normal;font-variant-caps:normal;font-variant-numeric:normal;font-variant-east-asian:normal"
       d="m 125.20103,46.647523 q -0.52266,0 -1.00267,-0.192 -0.48,-0.192001 -0.82133,-0.565336 l 0.49067,-0.586668 0.0747,-0.08533 0.0533,0.05333 q 0.0107,0.08533 0.0427,0.170667 0.032,0.07467 0.14934,0.202667 0.18133,0.160001 0.416,0.266668 0.23467,0.096 0.56533,0.096 0.64001,0 0.94934,-0.373334 0.30933,-0.373335 0.30933,-0.960003 0,-0.757336 -0.512,-1.06667 -0.50133,-0.320001 -1.35467,-0.234668 v -0.597335 q 0.69334,0 1.04534,-0.181334 0.352,-0.181334 0.46933,-0.480001 0.128,-0.309335 0.128,-0.650669 0,-0.458668 -0.26666,-0.714669 -0.256,-0.266668 -0.68267,-0.266668 -0.32,0 -0.62934,0.106667 -0.29867,0.106667 -0.58667,0.384002 l -0.448,-0.448002 q 0.36267,-0.373334 0.78934,-0.522668 0.43733,-0.160001 0.864,-0.160001 0.81067,0 1.26934,0.458669 0.45867,0.458668 0.45867,1.19467 0,0.522668 -0.256,0.93867 -0.25601,0.405334 -0.78934,0.576001 0.56533,0.181334 0.91734,0.597336 0.352,0.416001 0.352,1.09867 0,0.522668 -0.23467,0.970669 -0.224,0.437335 -0.672,0.704003 -0.43734,0.266667 -1.08801,0.266667 z" />
    <path
       id="path1057"
       style="font-style:normal;font-variant:normal;font-weight:normal;font-stretch:normal;font-size:10.6667px;font-family:Inconsolata;-inkscape-font-specification:'Inconsolata, Normal';font-variant-ligatures:normal;font-variant-caps:normal;font-variant-numeric:normal;font-variant-east-asian:normal"
       d="m 130.53436,46.647523 q -0.52267,0 -1.00267,-0.192 -0.48,-0.192001 -0.82133,-0.565336 l 0.49066,-0.586668 0.0747,-0.08533 0.0533,0.05333 q 0.0107,0.08533 0.0427,0.170667 0.032,0.07467 0.14934,0.202667 0.18133,0.160001 0.416,0.266668 0.23466,0.096 0.56533,0.096 0.64,0 0.94934,-0.373334 0.30933,-0.373335 0.30933,-0.960003 0,-0.757336 -0.512,-1.06667 -0.50133,-0.320001 -1.35467,-0.234668 v -0.597335 q 0.69334,0 1.04534,-0.181334 0.352,-0.181334 0.46933,-0.480001 0.128,-0.309335 0.128,-0.650669 0,-0.458668 -0.26667,-0.714669 -0.256,-0.266668 -0.68266,-0.266668 -0.32001,0 -0.62934,0.106667 -0.29867,0.106667 -0.58667,0.384002 l -0.448,-0.448002 q 0.36267,-0.373334 0.78934,-0.522668 0.43733,-0.160001 0.864,-0.160001 0.81067,0 1.26934,0.458669 0.45866,0.458668 0.45866,1.19467 0,0.522668 -0.256,0.93867 -0.256,0.405334 -0.78933,0.576001 0.56533,0.181334 0.91733,0.597336 0.352,0.416001 0.352,1.09867 0,0.522668 -0.23466,0.970669 -0.224,0.437335 -0.672,0.704003 -0.43734,0.266667 -1.08801,0.266667 z" />
  </g>
  <g
     style="font-size:13.3333px;line-height:1.25;font-family:GurbaniBoliLite;-inkscape-font-specification:'GurbaniBoliLite, Normal';letter-spacing:0px;word-spacing:0px"
     id="text929"
     aria-label="SMART HEALTH AT WORK">
    <path
       id="path1060"
       style="font-style:italic;font-variant:normal;font-weight:normal;font-stretch:normal;font-size:8px;font-family:Cantarell;-inkscape-font-specification:'Cantarell, Normal';font-variant-ligatures:normal;font-variant-caps:normal;font-variant-numeric:normal;font-variant-east-asian:normal"
       d="m 125.00621,71.006308 c 1.24,0 2.176,-0.632 2.368,-1.608 0.392,-1.968 -2.872,-1.184 -2.584,-2.616 0.112,-0.584 0.648,-0.904 1.496,-0.904 0.472,0 0.968,0.096 1.336,0.264 l 0.304,-0.52 c -0.432,-0.208 -0.944,-0.32 -1.472,-0.32 -1.24,0 -2.176,0.616 -2.368,1.584 -0.384,1.904 2.864,1.192 2.584,2.608 -0.112,0.56 -0.664,0.92 -1.504,0.92 -0.504,0 -1.104,-0.136 -1.6,-0.36 l -0.304,0.52 c 0.56,0.28 1.152,0.432 1.744,0.432 z" />
    <path
       id="path1062"
       style="font-style:italic;font-variant:normal;font-weight:normal;font-stretch:normal;font-size:8px;font-family:Cantarell;-inkscape-font-specification:'Cantarell, Normal';font-variant-ligatures:normal;font-variant-caps:normal;font-variant-numeric:normal;font-variant-east-asian:normal"
       d="m 128.07821,70.926308 h 0.632 l 0.872,-4.36 1.104,3.496 h 0.52 l 2.528,-3.568 -0.888,4.432 h 0.632 l 1.112,-5.552 h -0.656 l -2.832,3.976 -1.232,-3.976 h -0.68 z" />
    <path
       id="path1064"
       style="font-style:italic;font-variant:normal;font-weight:normal;font-stretch:normal;font-size:8px;font-family:Cantarell;-inkscape-font-specification:'Cantarell, Normal';font-variant-ligatures:normal;font-variant-caps:normal;font-variant-numeric:normal;font-variant-east-asian:normal"
       d="m 134.2702,70.926308 h 0.696 l 0.92,-1.648 h 2.312 l 0.224,1.648 h 0.744 l -0.84,-5.552 h -0.864 z m 1.936,-2.224 1.536,-2.76 0.376,2.76 z" />
    <path
       id="path1066"
       style="font-style:italic;font-variant:normal;font-weight:normal;font-stretch:normal;font-size:8px;font-family:Cantarell;-inkscape-font-specification:'Cantarell, Normal';font-variant-ligatures:normal;font-variant-caps:normal;font-variant-numeric:normal;font-variant-east-asian:normal"
       d="m 139.9582,70.926308 h 0.664 l 0.448,-2.248 h 1.096 c 0.056,0 0.112,0 0.176,-0.008 l 0.84,2.256 h 0.792 l -0.928,-2.4 c 0.728,-0.264 1.256,-0.856 1.408,-1.6 0.192,-0.976 -0.408,-1.552 -1.544,-1.552 h -1.84 z m 1.224,-2.808 0.432,-2.168 h 1.096 c 0.792,0 1.176,0.408 1.04,1.096 -0.136,0.68 -0.632,1.072 -1.392,1.072 z" />
    <path
       id="path1068"
       style="font-style:italic;font-variant:normal;font-weight:normal;font-stretch:normal;font-size:8px;font-family:Cantarell;-inkscape-font-specification:'Cantarell, Normal';font-variant-ligatures:normal;font-variant-caps:normal;font-variant-numeric:normal;font-variant-east-asian:normal"
       d="m 146.11019,70.926308 h 0.664 l 0.992,-4.976 h 1.856 l 0.12,-0.576 h -4.368 l -0.12,0.576 h 1.848 z" />
    <path
       id="path1070"
       style="font-style:italic;font-variant:normal;font-weight:normal;font-stretch:normal;font-size:8px;font-family:Cantarell;-inkscape-font-specification:'Cantarell, Normal';font-variant-ligatures:normal;font-variant-caps:normal;font-variant-numeric:normal;font-variant-east-asian:normal"
       d="m 151.20618,70.926308 h 0.664 l 0.52,-2.584 h 2.968 l -0.52,2.584 h 0.664 l 1.112,-5.552 h -0.664 l -0.48,2.392 h -2.968 l 0.48,-2.392 h -0.664 z" />
    <path
       id="path1072"
       style="font-style:italic;font-variant:normal;font-weight:normal;font-stretch:normal;font-size:8px;font-family:Cantarell;-inkscape-font-specification:'Cantarell, Normal';font-variant-ligatures:normal;font-variant-caps:normal;font-variant-numeric:normal;font-variant-east-asian:normal"
       d="m 156.97417,70.926308 h 3.488 l 0.112,-0.576 h -2.824 l 0.408,-2.008 h 2.608 l 0.112,-0.576 h -2.608 l 0.36,-1.816 h 2.824 l 0.12,-0.576 h -3.488 z" />
    <path
       id="path1074"
       style="font-style:italic;font-variant:normal;font-weight:normal;font-stretch:normal;font-size:8px;font-family:Cantarell;-inkscape-font-specification:'Cantarell, Normal';font-variant-ligatures:normal;font-variant-caps:normal;font-variant-numeric:normal;font-variant-east-asian:normal"
       d="m 160.96617,70.926308 h 0.696 l 0.92,-1.648 h 2.312 l 0.224,1.648 h 0.744 l -0.84,-5.552 h -0.864 z m 1.936,-2.224 1.536,-2.76 0.376,2.76 z" />
    <path
       id="path1076"
       style="font-style:italic;font-variant:normal;font-weight:normal;font-stretch:normal;font-size:8px;font-family:Cantarell;-inkscape-font-specification:'Cantarell, Normal';font-variant-ligatures:normal;font-variant-caps:normal;font-variant-numeric:normal;font-variant-east-asian:normal"
       d="m 166.65417,70.926308 h 3.152 l 0.12,-0.592 h -2.488 l 0.992,-4.96 h -0.664 z" />
    <path
       id="path1078"
       style="font-style:italic;font-variant:normal;font-weight:normal;font-stretch:normal;font-size:8px;font-family:Cantarell;-inkscape-font-specification:'Cantarell, Normal';font-variant-ligatures:normal;font-variant-caps:normal;font-variant-numeric:normal;font-variant-east-asian:normal"
       d="m 171.89416,70.926308 h 0.664 l 0.992,-4.976 h 1.856 l 0.12,-0.576 h -4.368 l -0.12,0.576 h 1.848 z" />
    <path
       id="path1080"
       style="font-style:italic;font-variant:normal;font-weight:normal;font-stretch:normal;font-size:8px;font-family:Cantarell;-inkscape-font-specification:'Cantarell, Normal';font-variant-ligatures:normal;font-variant-caps:normal;font-variant-numeric:normal;font-variant-east-asian:normal"
       d="m 175.23016,70.926308 h 0.664 l 0.52,-2.584 h 2.968 l -0.52,2.584 h 0.664 l 1.112,-5.552 h -0.664 l -0.48,2.392 h -2.968 l 0.48,-2.392 h -0.664 z" />
    <path
       id="path1082"
       style="font-style:italic;font-variant:normal;font-weight:normal;font-stretch:normal;font-size:8px;font-family:Cantarell;-inkscape-font-specification:'Cantarell, Normal';font-variant-ligatures:normal;font-variant-caps:normal;font-variant-numeric:normal;font-variant-east-asian:normal"
       d="m 182.07814,70.926308 h 0.696 l 0.92,-1.648 h 2.312 l 0.224,1.648 h 0.744 l -0.84,-5.552 h -0.864 z m 1.936,-2.224 1.536,-2.76 0.376,2.76 z" />
    <path
       id="path1084"
       style="font-style:italic;font-variant:normal;font-weight:normal;font-stretch:normal;font-size:8px;font-family:Cantarell;-inkscape-font-specification:'Cantarell, Normal';font-variant-ligatures:normal;font-variant-caps:normal;font-variant-numeric:normal;font-variant-east-asian:normal"
       d="m 188.95814,70.926308 h 0.664 l 0.992,-4.976 h 1.856 l 0.12,-0.576 h -4.368 l -0.12,0.576 h 1.848 z" />
    <path
       id="path1086"
       style="font-style:italic;font-variant:normal;font-weight:normal;font-stretch:normal;font-size:8px;font-family:Cantarell;-inkscape-font-specification:'Cantarell, Normal';font-variant-ligatures:normal;font-variant-caps:normal;font-variant-numeric:normal;font-variant-east-asian:normal"
       d="m 195.08613,70.926308 h 0.664 l 2.416,-4.704 0.608,4.704 h 0.64 l 2.76,-5.552 h -0.664 l -2.216,4.64 -0.56,-4.6 h -0.744 l -2.368,4.648 -0.328,-4.688 h -0.768 z" />
    <path
       id="path1088"
       style="font-style:italic;font-variant:normal;font-weight:normal;font-stretch:normal;font-size:8px;font-family:Cantarell;-inkscape-font-specification:'Cantarell, Normal';font-variant-ligatures:normal;font-variant-caps:normal;font-variant-numeric:normal;font-variant-east-asian:normal"
       d="m 204.12613,70.982308 c 1.6,0 2.904,-1.16 3.248,-2.904 0.336,-1.664 -0.48,-2.776 -2.032,-2.776 -1.576,0 -2.856,1.152 -3.2,2.872 -0.336,1.688 0.456,2.808 1.984,2.808 z m 0.192,-0.576 c -1.168,0 -1.76,-0.928 -1.48,-2.328 0.264,-1.312 1.184,-2.192 2.304,-2.192 1.192,0 1.808,0.912 1.536,2.288 -0.272,1.336 -1.216,2.232 -2.36,2.232 z" />
    <path
       id="path1090"
       style="font-style:italic;font-variant:normal;font-weight:normal;font-stretch:normal;font-size:8px;font-family:Cantarell;-inkscape-font-specification:'Cantarell, Normal';font-variant-ligatures:normal;font-variant-caps:normal;font-variant-numeric:normal;font-variant-east-asian:normal"
       d="m 207.97411,70.926308 h 0.664 l 0.448,-2.248 h 1.096 c 0.056,0 0.112,0 0.176,-0.008 l 0.84,2.256 h 0.792 l -0.928,-2.4 c 0.728,-0.264 1.256,-0.856 1.408,-1.6 0.192,-0.976 -0.408,-1.552 -1.544,-1.552 h -1.84 z m 1.224,-2.808 0.432,-2.168 h 1.096 c 0.792,0 1.176,0.408 1.04,1.096 -0.136,0.68 -0.632,1.072 -1.392,1.072 z" />
    <path
       id="path1092"
       style="font-style:italic;font-variant:normal;font-weight:normal;font-stretch:normal;font-size:8px;font-family:Cantarell;-inkscape-font-specification:'Cantarell, Normal';font-variant-ligatures:normal;font-variant-caps:normal;font-variant-numeric:normal;font-variant-east-asian:normal"
       d="m 216.1501,70.926308 h 0.872 l -2.056,-2.928 3.064,-2.624 h -0.816 l -3.032,2.64 0.528,-2.64 h -0.664 l -1.112,5.552 h 0.664 l 0.576,-2.864 z" />
  </g>
  <g
     transform="translate(2.601042,-1.6683227)"
     style="font-size:13.3333px;line-height:1.25;font-family:GurbaniBoliLite;-inkscape-font-specification:'GurbaniBoliLite, Normal';letter-spacing:0px;word-spacing:0px"
     id="text933"
     aria-label="POWERED BY:">
    <path
       id="path973"
       style="font-style:normal;font-variant:normal;font-weight:normal;font-stretch:normal;font-size:10.6667px;font-family:Inconsolata;-inkscape-font-specification:'Inconsolata, Normal';font-variant-ligatures:normal;font-variant-caps:normal;font-variant-numeric:normal;font-variant-east-asian:normal"
       d="M 4.0312909,14.194979 V 7.5496244 H 6.164631 q 0.746669,0 1.2053371,0.2560008 0.4586682,0.2560008 0.6720022,0.6826688 0.2240007,0.4160013 0.2240007,0.9386697 0,0.5120016 -0.213334,0.9280033 -0.213334,0.416001 -0.6613355,0.661335 -0.4480014,0.245334 -1.173337,0.245334 H 4.7992934 v 2.933343 z m 0.7680025,-3.594678 h 1.3333375 q 0.7253356,0 1.0453366,-0.309335 0.320001,-0.3200006 0.320001,-0.8426689 0,-0.4906683 -0.320001,-0.8426694 Q 6.8579665,8.2536266 6.1432976,8.2536266 H 4.7992934 Z" />
    <path
       id="path975"
       style="font-style:normal;font-variant:normal;font-weight:normal;font-stretch:normal;font-size:10.6667px;font-family:Inconsolata;-inkscape-font-specification:'Inconsolata, Normal';font-variant-ligatures:normal;font-variant-caps:normal;font-variant-numeric:normal;font-variant-east-asian:normal"
       d="m 11.40196,14.312312 q -1.141337,0 -1.7600052,-0.885336 -0.6186686,-0.885336 -0.6186686,-2.517341 0,-1.5786717 0.6186686,-2.4853412 0.6186682,-0.9173362 1.7600052,-0.9173362 1.141337,0 1.760006,0.9173362 0.618669,0.9066695 0.618669,2.4853412 0,1.632005 -0.618669,2.517341 -0.618669,0.885336 -1.760006,0.885336 z m 0,-0.650668 q 0.757336,0 1.184004,-0.714669 0.426668,-0.714669 0.426668,-2.03734 0,-1.2586706 -0.426668,-2.0053397 -0.426668,-0.746669 -1.184004,-0.746669 -0.757335,0 -1.184003,0.746669 -0.4266684,0.7466691 -0.4266684,2.0053397 0,1.322671 0.4266684,2.03734 0.426668,0.714669 1.184003,0.714669 z" />
    <path
       id="path977"
       style="font-style:normal;font-variant:normal;font-weight:normal;font-stretch:normal;font-size:10.6667px;font-family:Inconsolata;-inkscape-font-specification:'Inconsolata, Normal';font-variant-ligatures:normal;font-variant-caps:normal;font-variant-numeric:normal;font-variant-east-asian:normal"
       d="m 15.316619,14.194979 -1.06667,-6.6453546 h 0.693335 l 0.714669,4.4906806 1.06667,-4.0000124 h 0.234668 l 1.077336,4.0213464 0.608002,-4.5120146 h 0.629336 L 18.217961,14.194979 H 17.92996 L 16.788624,9.8536317 15.625953,14.194979 Z" />
    <path
       id="path979"
       style="font-style:normal;font-variant:normal;font-weight:normal;font-stretch:normal;font-size:10.6667px;font-family:Inconsolata;-inkscape-font-specification:'Inconsolata, Normal';font-variant-ligatures:normal;font-variant-caps:normal;font-variant-numeric:normal;font-variant-east-asian:normal"
       d="M 20.031279,14.194979 V 7.5389577 h 4.07468 v 0.6613354 h -3.370677 v 2.1866739 h 2.784009 v 0.682669 h -2.784009 v 2.464007 h 3.338677 v 0.661336 z" />
    <path
       id="path981"
       style="font-style:normal;font-variant:normal;font-weight:normal;font-stretch:normal;font-size:10.6667px;font-family:Inconsolata;-inkscape-font-specification:'Inconsolata, Normal';font-variant-ligatures:normal;font-variant-caps:normal;font-variant-numeric:normal;font-variant-east-asian:normal"
       d="M 25.33261,14.194979 V 7.5496244 h 1.962672 q 1.173337,0 1.685339,0.5226683 0.522668,0.5226683 0.522668,1.3760044 0,0.3733345 -0.170667,0.7466689 -0.16,0.373335 -0.469335,0.650669 -0.298667,0.277334 -0.714669,0.384001 l 1.536005,2.965343 h -0.832002 l -1.472005,-2.933343 h -1.290671 v 2.933343 z m 0.757335,-3.594678 h 1.290671 q 0.714669,0 1.03467,-0.309335 0.320001,-0.3200006 0.320001,-0.8426689 0,-0.501335 -0.320001,-0.8426694 -0.320001,-0.3520011 -1.03467,-0.3520011 h -1.290671 z" />
    <path
       id="path983"
       style="font-style:normal;font-variant:normal;font-weight:normal;font-stretch:normal;font-size:10.6667px;font-family:Inconsolata;-inkscape-font-specification:'Inconsolata, Normal';font-variant-ligatures:normal;font-variant-caps:normal;font-variant-numeric:normal;font-variant-east-asian:normal"
       d="M 30.69794,14.194979 V 7.5389577 h 4.074679 v 0.6613354 h -3.370677 v 2.1866739 h 2.784009 v 0.682669 h -2.784009 v 2.464007 h 3.338677 v 0.661336 z" />
    <path
       id="path985"
       style="font-style:normal;font-variant:normal;font-weight:normal;font-stretch:normal;font-size:10.6667px;font-family:Inconsolata;-inkscape-font-specification:'Inconsolata, Normal';font-variant-ligatures:normal;font-variant-caps:normal;font-variant-numeric:normal;font-variant-east-asian:normal"
       d="M 35.977935,14.205645 V 7.5496244 h 1.546671 q 0.853336,0 1.322671,0.2346674 0.480001,0.2346674 0.810669,0.6720021 0.650669,0.8746694 0.650669,2.4533411 -0.04267,1.013337 -0.341335,1.760006 -0.288,0.736002 -0.917336,1.141337 -0.618668,0.394667 -1.653338,0.394667 z m 0.704002,-0.586668 h 0.682669 q 1.141337,0 1.674672,-0.682669 0.533335,-0.693335 0.522668,-1.984006 -0.01067,-1.3013376 -0.490668,-2.03734 -0.469335,-0.7360023 -1.589339,-0.7360023 h -0.800002 z" />
    <path
       id="path987"
       style="font-style:normal;font-variant:normal;font-weight:normal;font-stretch:normal;font-size:10.6667px;font-family:Inconsolata;-inkscape-font-specification:'Inconsolata, Normal';font-variant-ligatures:normal;font-variant-caps:normal;font-variant-numeric:normal;font-variant-east-asian:normal"
       d="M 46.580595,14.194979 V 7.5496244 h 1.888006 q 1.152003,0 1.674672,0.4480014 0.533335,0.4480014 0.533335,1.1626703 0,0.4693349 -0.256001,0.8853359 -0.256001,0.416002 -0.725336,0.586669 0.565335,0.192 0.90667,0.672002 0.341334,0.469335 0.341334,1.024003 0,0.842669 -0.597335,1.354671 -0.597335,0.512002 -1.888006,0.512002 z m 0.736002,-3.893346 h 1.045337 q 0.885336,0 1.22667,-0.298668 0.341335,-0.2986671 0.341335,-0.7573353 0,-0.4373347 -0.330668,-0.746669 -0.330668,-0.320001 -1.120004,-0.320001 h -1.16267 z m 0,3.242677 h 1.269337 q 0.693336,0 1.130671,-0.277334 0.437334,-0.288001 0.437334,-0.981337 0,-0.597335 -0.394668,-0.970669 Q 49.37527,10.930968 48.4046,10.930968 h -1.088003 z" />
    <path
       id="path989"
       style="font-style:normal;font-variant:normal;font-weight:normal;font-stretch:normal;font-size:10.6667px;font-family:Inconsolata;-inkscape-font-specification:'Inconsolata, Normal';font-variant-ligatures:normal;font-variant-caps:normal;font-variant-numeric:normal;font-variant-east-asian:normal"
       d="M 53.748595,14.194979 V 11.57097 L 51.700589,7.5496244 h 0.853336 l 1.632005,3.2213436 1.472005,-3.2213436 h 0.789336 L 54.559265,11.57097 v 2.624009 z" />
    <path
       id="path991"
       style="font-style:normal;font-variant:normal;font-weight:normal;font-stretch:normal;font-size:10.6667px;font-family:Inconsolata;-inkscape-font-specification:'Inconsolata, Normal';font-variant-ligatures:normal;font-variant-caps:normal;font-variant-numeric:normal;font-variant-east-asian:normal"
       d="m 59.273928,10.909635 q -0.245334,0 -0.437335,-0.181334 -0.192,-0.181334 -0.192,-0.426668 0,-0.256001 0.192,-0.4373346 0.192001,-0.1813339 0.437335,-0.1813339 0.245334,0 0.437335,0.1813339 0.202667,0.1813336 0.202667,0.4373346 0,0.245334 -0.192001,0.426668 -0.192,0.181334 -0.448001,0.181334 z m 0,3.402677 q -0.266667,0 -0.448001,-0.170667 -0.181334,-0.181334 -0.181334,-0.437335 0,-0.256 0.192,-0.437334 0.192001,-0.181334 0.437335,-0.181334 0.245334,0 0.437335,0.181334 0.202667,0.181334 0.202667,0.437334 0,0.245335 -0.192001,0.426669 -0.181333,0.181333 -0.448001,0.181333 z" />
  </g>
</svg>
