<?xml version="1.0" encoding="UTF-8" standalone="no"?>
<svg
   xmlns:dc="http://purl.org/dc/elements/1.1/"
   xmlns:cc="http://creativecommons.org/ns#"
   xmlns:rdf="http://www.w3.org/1999/02/22-rdf-syntax-ns#"
   xmlns:svg="http://www.w3.org/2000/svg"
   xmlns="http://www.w3.org/2000/svg"
   xmlns:sodipodi="http://sodipodi.sourceforge.net/DTD/sodipodi-0.dtd"
   xmlns:inkscape="http://www.inkscape.org/namespaces/inkscape"
   inkscape:version="1.0 (4035a4fb49, 2020-05-01)"
   sodipodi:docname="logo-small.svg"
   id="svg12"
   version="1.1"
   viewBox="0 0 48 48"
   height="48"
   width="48">
  <metadata
     id="metadata16">
    <rdf:RDF>
      <cc:Work
         rdf:about="">
        <dc:format>image/svg+xml</dc:format>
        <dc:type
           rdf:resource="http://purl.org/dc/dcmitype/StillImage" />
        <dc:title>logo</dc:title>
      </cc:Work>
    </rdf:RDF>
  </metadata>
  <sodipodi:namedview
     inkscape:lockguides="false"
     showguides="true"
     inkscape:document-rotation="0"
     inkscape:current-layer="svg12"
     inkscape:window-maximized="0"
     inkscape:window-y="40"
     inkscape:window-x="0"
     inkscape:cy="11.83191"
     inkscape:cx="38.774008"
     inkscape:zoom="5.6375284"
     showgrid="false"
     id="namedview14"
     inkscape:window-height="998"
     inkscape:window-width="1918"
     inkscape:pageshadow="2"
     inkscape:pageopacity="0"
     guidetolerance="10"
     gridtolerance="10"
     objecttolerance="10"
     borderopacity="1"
     bordercolor="#666666"
     pagecolor="#ffffff" />
  <!-- Generator: Sketch 51.3 (57544) - http://www.bohemiancoding.com/sketch -->
  <title
     id="title2">logo</title>
  <desc
     id="desc4">Created with Sketch.</desc>
  <defs
     id="defs6">
    <rect
       id="rect2107"
       height="67.10701"
       width="194.52635"
       y="-9.3339529"
       x="-6.2959623" />
  </defs>
  <text
     id="text4353"
     y="-48.136044"
     x="4.2678823"
     style="font-style:normal;font-weight:normal;font-size:40px;line-height:1.25;font-family:sans-serif;letter-spacing:0px;word-spacing:0px;fill:#000000;fill-opacity:1;stroke:none"
     xml:space="preserve" />
  <g
     transform="translate(-0.15964876,2.078985)"
     aria-label=")"
     id="text846"
     style="font-style:normal;font-weight:normal;font-size:40px;line-height:1.25;font-family:sans-serif;letter-spacing:0px;word-spacing:0px;fill:#bc0000;fill-opacity:1;stroke:none">
    <path
       d="m 45.225101,21.162674 q 0,5.527344 -1.816406,10.175781 -1.796875,4.648438 -5.546875,9.042969 h -7.363281 v -0.566406 q 1.5625,-1.386719 3.046875,-3.261719 1.484375,-1.875 2.636719,-4.199219 1.210937,-2.421875 1.914062,-5.136719 0.722656,-2.714843 0.722656,-6.054687 0,-3.203125 -0.742187,-6.035156 Q 37.354008,12.295486 36.182133,9.9712677 34.951664,7.5493927 33.506351,5.7525177 32.08057,3.9361115 30.498539,2.5103302 V 1.943924 h 7.363281 q 3.75,4.3945312 5.546875,9.042969 1.816406,4.648437 1.816406,10.175781 z"
       style="font-style:normal;font-variant:normal;font-weight:bold;font-stretch:normal;font-size:40px;font-family:Verdana;-inkscape-font-specification:'Verdana, Normal';font-variant-ligatures:normal;font-variant-caps:normal;font-variant-numeric:normal;font-variant-east-asian:normal;fill:#ff5555"
       id="path869" />
  </g>
  <g
     transform="translate(0.88584169,3.909002)"
     aria-label="âš"
     id="text943"
     style="font-size:40px;line-height:1.25;font-family:GurbaniBoliLite;-inkscape-font-specification:GurbaniBoliLite;letter-spacing:0px;word-spacing:0px;opacity:0.973217">
    <path
       d="M 10.258948,21.778152 8.3922828,20.434153 q 1.3813322,-4.367996 2.5386642,-7.46666 1.157333,-3.0986645 2.090665,-4.8533297 2.053332,-3.84533 3.807997,-3.84533 1.343999,0 2.949331,2.4266646 1.530665,2.2773313 2.799997,5.8613281 H 20.152273 Q 19.032274,9.6448287 18.061608,8.0394967 17.202942,6.6208312 16.829609,6.6208312 q -0.298666,0 -1.045332,1.1199991 -0.709333,1.119999 -1.605332,3.1359977 -1.045333,2.351998 -2.053332,5.077329 -0.970666,2.725331 -1.866665,5.823995 z m 4.143996,6.682661 Q 11.341614,26.370148 8.8776157,24.578149 6.4509511,22.748818 4.6589527,21.143486 0.85095591,17.783488 0.85095591,16.32749 q 0,-1.530666 1.67999859,-2.277332 0.746666,-0.335999 1.9039984,-0.522666 1.1573323,-0.224 2.7626643,-0.149333 l 2.6879977,0.07467 -0.6719994,2.239999 -2.0159983,-0.07467 q -2.1653315,0 -3.2479973,0.298666 -0.746666,0.224 -0.746666,0.410667 0,0.261333 0.8586659,1.194665 0.858666,0.896 2.3893313,2.202665 1.6799986,1.455999 4.1066629,3.285331 2.463998,1.791998 5.674662,3.994663 z M 27.1336,23.756817 26.274934,21.554152 q 4.106663,-3.583997 4.106663,-4.703996 0,-0.149333 -0.485332,-0.373333 Q 29.410932,16.21549 28.477599,16.066157 27.320267,15.87949 25.528268,15.76749 23.773603,15.618157 21.384272,15.618157 H 19.33094 q -1.605332,0 -3.17333,0 -1.567999,0 -3.061331,0.07467 l 0.671999,-2.239999 q 1.269332,-0.03733 2.613331,-0.03733 1.343999,-0.03733 2.837331,-0.03733 h 1.941332 q 3.098664,0 5.263995,0.186666 2.165332,0.186667 3.434664,0.56 2.837331,0.821332 2.837331,2.575998 0,1.082665 -1.231999,2.650664 -1.269332,1.642665 -4.330663,4.40533 z m -1.493332,10.602657 q -1.493332,0 -3.583997,-0.933332 -2.053331,-0.895999 -4.293329,-2.575998 l 1.866665,-1.381332 q 1.007999,0.746666 2.127998,1.381332 1.119999,0.634666 2.127998,1.007999 1.007999,0.373333 1.642665,0.373333 0.298667,0 0.336,-0.07467 0.07467,-0.112 0.07467,-0.56 0,-0.858666 -0.410667,-2.501331 -0.373333,-1.642665 -1.082666,-3.770664 -0.671999,-2.127998 -1.567998,-4.442663 -0.895999,-2.314664 -1.903999,-4.479996 h 2.501332 q 1.343999,2.949331 2.351998,5.898662 1.045332,2.949331 1.642665,5.413329 0.597333,2.463998 0.597333,3.95733 0,2.687997 -2.426665,2.687997 z M 8.0936164,34.172808 q -2.1653315,0 -2.1653315,-2.911998 0,-2.725331 1.1199991,-7.093327 l 1.9413316,1.343999 q -0.9333325,4.06933 -0.9333325,5.823995 0,0.485333 0.037333,0.597333 0.074667,0.112 0.2239998,0.112 0.6346661,0 2.2026651,-0.746666 1.567999,-0.746666 3.658664,-1.978665 2.127998,-1.231999 4.367996,-2.762665 2.277331,-1.567998 4.330663,-3.17333 l 0.858666,2.090665 q -1.829332,1.455998 -4.06933,2.986664 -2.202665,1.530665 -4.442663,2.837331 -2.239998,1.306665 -4.106663,2.090664 -1.8666655,0.784 -3.0239976,0.784 z"
       style="font-style:normal;font-variant:normal;font-weight:normal;font-stretch:normal;font-size:37.3333px;font-family:'Comic Sans MS';-inkscape-font-specification:'Comic Sans MS'"
       id="path866" />
  </g>
  <text
     id="text947"
     y="-39.160362"
     x="-17.65653"
     style="font-size:40px;line-height:1.25;font-family:GurbaniBoliLite;-inkscape-font-specification:GurbaniBoliLite;letter-spacing:0px;word-spacing:0px"
     xml:space="preserve"><tspan
       y="-39.160362"
       x="-17.65653"
       id="tspan945"
       sodipodi:role="line" /></text>
  <text
     xml:space="preserve"
     style="font-size:40px;line-height:1.25;font-family:GurbaniBoliLite;-inkscape-font-specification:GurbaniBoliLite;letter-spacing:0px;word-spacing:0px"
     x="-111.53504"
     y="-17.744659"
     id="text849"><tspan
       sodipodi:role="line"
       id="tspan847"
       x="-111.53504"
       y="-17.744659" /></text>
  <text
     id="text1506"
     y="78.28334"
     x="225.07397"
     style="font-size:40px;line-height:1.25;font-family:GurbaniBoliLite;-inkscape-font-specification:GurbaniBoliLite;letter-spacing:0px;word-spacing:0px"
     xml:space="preserve"><tspan
       y="78.28334"
       x="225.07397"
       id="tspan1504"
       sodipodi:role="line" /></text>
  <text
     style="font-size:40px;line-height:1.25;font-family:GurbaniBoliLite;-inkscape-font-specification:GurbaniBoliLite;letter-spacing:0px;word-spacing:0px;white-space:pre;shape-inside:url(#rect2107);"
     id="text2105"
     xml:space="preserve" />
</svg>
