<?xml version="1.0" encoding="UTF-8" standalone="no"?>
<svg
   xmlns:dc="http://purl.org/dc/elements/1.1/"
   xmlns:cc="http://creativecommons.org/ns#"
   xmlns:rdf="http://www.w3.org/1999/02/22-rdf-syntax-ns#"
   xmlns:svg="http://www.w3.org/2000/svg"
   xmlns="http://www.w3.org/2000/svg"
   xmlns:xlink="http://www.w3.org/1999/xlink"
   xmlns:sodipodi="http://sodipodi.sourceforge.net/DTD/sodipodi-0.dtd"
   xmlns:inkscape="http://www.inkscape.org/namespaces/inkscape"
   id="7d20109a-a0f0-4dfa-976a-751f0ae87d51"
   data-name="Layer 1"
   width="1125.12"
   height="800.94"
   viewBox="0 0 1125.12 800.94"
   version="1.1"
   sodipodi:docname="undraw_hang_out_h9ud.svg"
   inkscape:version="0.92.5 (2060ec1f9f, 2020-04-08)">
  <metadata
     id="metadata833">
    <rdf:RDF>
      <cc:Work
         rdf:about="">
        <dc:format>image/svg+xml</dc:format>
        <dc:type
           rdf:resource="http://purl.org/dc/dcmitype/StillImage" />
      </cc:Work>
    </rdf:RDF>
  </metadata>
  <sodipodi:namedview
     pagecolor="#ffffff"
     bordercolor="#666666"
     borderopacity="1"
     objecttolerance="10"
     gridtolerance="10"
     guidetolerance="10"
     inkscape:pageopacity="0"
     inkscape:pageshadow="2"
     inkscape:window-width="1918"
     inkscape:window-height="998"
     id="namedview831"
     showgrid="false"
     inkscape:zoom="1.1786151"
     inkscape:cx="638.7801"
     inkscape:cy="288.71991"
     inkscape:window-x="0"
     inkscape:window-y="40"
     inkscape:window-maximized="0"
     inkscape:current-layer="7d20109a-a0f0-4dfa-976a-751f0ae87d51" />
  <defs
     id="defs10">
    <linearGradient
       id="9460e000-b540-487b-970a-49d5722f90c2"
       x1="652.58"
       y1="850.47"
       x2="652.58"
       y2="265.49"
       gradientUnits="userSpaceOnUse">
      <stop
         offset="0"
         stop-color="gray"
         stop-opacity="0.25"
         id="stop2" />
      <stop
         offset="0.54"
         stop-color="gray"
         stop-opacity="0.12"
         id="stop4" />
      <stop
         offset="1"
         stop-color="gray"
         stop-opacity="0.1"
         id="stop6" />
    </linearGradient>
    <linearGradient
       id="d3efc67a-a667-44d9-839e-ddeb4c4ea6af"
       x1="1069.38"
       y1="751.23"
       x2="1069.38"
       y2="686.58"
       xlink:href="#9460e000-b540-487b-970a-49d5722f90c2" />
  </defs>
  <title
     id="title12">hang out</title>
  <path
     d="m 84.856186,551.36557 c 17.579994,72.21 54.779994,134.64 113.579994,164.88 122.19,62.88 397.76,30.45 603.43,-6.77 106.36,-19.26 199.88002,-72.36 267.81002,-147.17 z"
     id="path14"
     inkscape:connector-curvature="0"
     style="opacity:0.1;fill:#1c3ed3" />
  <path
     d="M 1082.0781,212.51451 H 969.23805 a 9.38,9.38 0 1 1 0,-18.75 h 19.5 a 9.38,9.38 0 1 1 0,-18.75 h -13.93 a 9.38,9.38 0 1 1 0,-18.75 h 58.90005 c -13.08,-5.84 -28.3,-10 -46.00005,-12.17 -160.6,-19.83 -217.94,-6.71 -238.17,6.78 -24.95,16.64 -52.8,28.88 -82.54,34.78 -99.04,19.65 -284.34,43.28999 -452.34,-7.57 -83.45,-25.27 -145.499999,17.44 -182.690004,88.82999 H 1101.6581 c -1.4,-20.75 -5.58,-39.91 -13.26,-56.67999 a 9.87,9.87 0 0 1 -6.32,2.28 z"
     id="path16"
     inkscape:connector-curvature="0"
     style="opacity:0.1;fill:#1c3ed3" />
  <path
     d="m 707.09204,436.20776 -1.47,-0.08 -15.36,-0.87 -147.16,-8.31 -15.9,-0.9 -234.3,-13.16 -65.67,-3.7 -10.4,-0.58 -9.23,-0.52 -186.370001,-10.49 a 458.93,458.93 0 0 0 4.38,126 l 156.790001,5.5 12.43,0.45 2.2,0.07 74.38,2.62 4,0.14 8.58,0.3 75,2.64 10.28,0.36 35.86,1.27 h 0.67 l 5.27,0.19 17.95,0.63 v 0 l 15.75,0.55 30,1.06 h 0.63 l 2.68,0.09 2.83,0.11 h 0.62 l 47.82,1.67 13.4,0.48 h 0.56 l 6.45,0.23 v 0 h 1.2 0.48 l 5.67,0.21 17.31,0.61 v 0 l 6.5,0.23 8.35,0.29 h 0.31 l 11.46,0.4 33.21,1.25 9.12,0.31 h 1 l 44.18,1.56 25.65,0.9 31.98,1.23 5.12,0.17 8.27,0.29 30.06,1.06 226.75006,8 a 446.33,446.33 0 0 0 68.83,-100.92 z m -426.34,70 a 9.94,9.94 0 0 1 -6.5,-2.4 v 0 a 9.89,9.89 0 0 1 -2.06,-2.5 9.1,9.1 0 0 1 -1.19,-4.47 9,9 0 0 1 1.61,-5.13 10.49,10.49 0 0 1 1.08,-1.3 9.91,9.91 0 0 1 7.06,-2.92 h 19.5 a 9.38,9.38 0 1 1 0,-18.75 h -13.93 a 9.1,9.1 0 0 1 -0.91,0 9.37,9.37 0 0 1 0.91,-18.71 h 112.84 a 9.38,9.38 0 1 1 0,18.75 h 13.93 a 9.38,9.38 0 1 1 0,18.75 h -19.5 a 9.38,9.38 0 1 1 0,18.75 z"
     id="path18"
     inkscape:connector-curvature="0"
     style="opacity:0.1;fill:#1c3ed3" />
  <path
     d="m 1116.984,274.76254 -778.36008,18.2 -85.55,2 -217.770001,5.1 c -13.17,32.51 -21.89,69.26 -25.8999999,107.36 H 1098.034 a 430.57,430.57 0 0 0 15.71,-68.44 c 3.24,-22.39 4.55,-44.05 3.24,-64.22 z m -888.00008,82.87 h -19.5 a 9.59,9.59 0 0 1 9.75,9.37 c 0,0.2 0,0.39 0,0.57 a 9.32,9.32 0 0 1 -4.32,7.23 10,10 0 0 1 -5.41,1.58 H 96.663916 a 9.38,9.38 0 1 1 0,-18.75 h 19.510004 a 9.38,9.38 0 1 1 0,-18.75 h -13.93 a 9.38,9.38 0 1 1 0,-18.75 h 112.84 a 9.38,9.38 0 1 1 0,18.75 h 13.93 a 10,10 0 0 1 4.63,1.14 9.36,9.36 0 0 1 5.13,8.24 9.61,9.61 0 0 1 -9.76,9.37 z"
     id="path20"
     inkscape:connector-curvature="0"
     style="opacity:0.1;fill:#1c3ed3" />
  <g
     id="g52"
     style="opacity:0.1"
     transform="translate(106.05668,-61.088644)">
    <path
       d="m 642.42,632.62 c 0,0 28.58,-67.62 81.87,-92.73 22.37,-10.53 40.87,-27.4 52.21,-48.73 a 181.94,181.94 0 0 0 13.09,-31.6"
       transform="translate(-37.44,-49.53)"
       stroke-miterlimit="10"
       id="path22"
       inkscape:connector-curvature="0"
       style="fill:none;stroke:#535461;stroke-width:2;stroke-miterlimit:10" />
    <path
       d="m 823.08,443.55 c -5.55,6.72 -34.32,16.52 -34.32,16.52 0,0 3.47,-29.14 9,-35.86 a 16.62,16.62 0 0 1 22.72,-2.49 15.13,15.13 0 0 1 2.6,21.83 z"
       transform="translate(-37.44,-49.53)"
       id="path24"
       inkscape:connector-curvature="0"
       style="fill:#1c3ed3" />
    <path
       d="m 813.21,496.74 c -8.46,2.74 -38.14,-4.06 -38.14,-4.06 0,0 19.38,-22.66 27.84,-25.39 8.46,-2.73 17.63,1.64 20.48,9.77 a 15.41,15.41 0 0 1 -10.18,19.68 z"
       transform="translate(-37.44,-49.53)"
       id="path26"
       inkscape:connector-curvature="0"
       style="fill:#1c3ed3" />
    <path
       d="m 759.7,559.62 c -8.74,-1.75 -30.8,-22 -30.8,-22 0,0 28.64,-10.15 37.38,-8.4 8.74,1.75 14.35,10 12.54,18.37 -1.81,8.37 -10.38,13.77 -19.12,12.03 z"
       transform="translate(-37.44,-49.53)"
       id="path28"
       inkscape:connector-curvature="0"
       style="fill:#1c3ed3" />
    <path
       d="m 708.07,598.42 c -8.92,-0.3 -34.23,-16.7 -34.23,-16.7 0,0 26.44,-14.66 35.36,-14.35 8.92,0.31 15.9,7.49 15.59,16.07 -0.31,8.58 -7.79,15.28 -16.72,14.98 z"
       transform="translate(-37.44,-49.53)"
       id="path30"
       inkscape:connector-curvature="0"
       style="fill:#1c3ed3" />
    <path
       d="m 747.43,473.67 c 1.14,8.51 20.47,31.21 20.47,31.21 0,0 12.73,-26.66 11.59,-35.18 -1.14,-8.52 -9.24,-14.52 -18.09,-13.42 -8.85,1.1 -15.11,8.88 -13.97,17.39 z"
       transform="translate(-37.44,-49.53)"
       id="path32"
       inkscape:connector-curvature="0"
       style="fill:#1c3ed3" />
    <path
       d="m 687.64,519.79 c 3.74,7.79 29.25,23.89 29.25,23.89 0,0 3.85,-29.1 0.11,-36.9 a 16.43,16.43 0 0 0 -21.44,-7.6 15.29,15.29 0 0 0 -7.92,20.61 z"
       transform="translate(-37.44,-49.53)"
       id="path34"
       inkscape:connector-curvature="0"
       style="fill:#1c3ed3" />
    <path
       d="m 635.93,572.28 c 2.31,8.29 24.63,28.3 24.63,28.3 0,0 8.91,-28.06 6.59,-36.35 -2.32,-8.29 -11.17,-13.2 -19.79,-11 a 15.48,15.48 0 0 0 -11.43,19.05 z"
       transform="translate(-37.44,-49.53)"
       id="path36"
       inkscape:connector-curvature="0"
       style="fill:#1c3ed3" />
    <path
       d="m 823.08,443.55 c -5.55,6.72 -34.32,16.52 -34.32,16.52 0,0 3.47,-29.14 9,-35.86 a 16.62,16.62 0 0 1 22.72,-2.49 15.13,15.13 0 0 1 2.6,21.83 z"
       transform="translate(-37.44,-49.53)"
       id="path38"
       inkscape:connector-curvature="0"
       style="opacity:0.25" />
    <path
       d="m 813.21,496.74 c -8.46,2.74 -38.14,-4.06 -38.14,-4.06 0,0 19.38,-22.66 27.84,-25.39 8.46,-2.73 17.63,1.64 20.48,9.77 a 15.41,15.41 0 0 1 -10.18,19.68 z"
       transform="translate(-37.44,-49.53)"
       id="path40"
       inkscape:connector-curvature="0"
       style="opacity:0.25" />
    <path
       d="m 759.7,559.62 c -8.74,-1.75 -30.8,-22 -30.8,-22 0,0 28.64,-10.15 37.38,-8.4 8.74,1.75 14.35,10 12.54,18.37 -1.81,8.37 -10.38,13.77 -19.12,12.03 z"
       transform="translate(-37.44,-49.53)"
       id="path42"
       inkscape:connector-curvature="0"
       style="opacity:0.25" />
    <path
       d="m 708.07,598.42 c -8.92,-0.3 -34.23,-16.7 -34.23,-16.7 0,0 26.44,-14.66 35.36,-14.35 8.92,0.31 15.9,7.49 15.59,16.07 -0.31,8.58 -7.79,15.28 -16.72,14.98 z"
       transform="translate(-37.44,-49.53)"
       id="path44"
       inkscape:connector-curvature="0"
       style="opacity:0.25" />
    <path
       d="m 747.43,473.67 c 1.14,8.51 20.47,31.21 20.47,31.21 0,0 12.73,-26.66 11.59,-35.18 -1.14,-8.52 -9.24,-14.52 -18.09,-13.42 -8.85,1.1 -15.11,8.88 -13.97,17.39 z"
       transform="translate(-37.44,-49.53)"
       id="path46"
       inkscape:connector-curvature="0"
       style="opacity:0.25" />
    <path
       d="m 687.64,519.79 c 3.74,7.79 29.25,23.89 29.25,23.89 0,0 3.85,-29.1 0.11,-36.9 a 16.43,16.43 0 0 0 -21.44,-7.6 15.29,15.29 0 0 0 -7.92,20.61 z"
       transform="translate(-37.44,-49.53)"
       id="path48"
       inkscape:connector-curvature="0"
       style="opacity:0.25" />
    <path
       d="m 635.93,572.28 c 2.31,8.29 24.63,28.3 24.63,28.3 0,0 8.91,-28.06 6.59,-36.35 -2.32,-8.29 -11.17,-13.2 -19.79,-11 a 15.48,15.48 0 0 0 -11.43,19.05 z"
       transform="translate(-37.44,-49.53)"
       id="path50"
       inkscape:connector-curvature="0"
       style="opacity:0.25" />
  </g>
  <g
     id="g70"
     opacity="0.1">
    <path
       d="M663.79,530.22s3.6-72.91,45.24-113.58c17.48-17.06,29.11-38.88,32.45-62.62a179.34,179.34,0,0,0,1.44-34"
       transform="translate(-37.44 -49.53)"
       stroke-miterlimit="10"
       id="path54"
       stroke-width="2"
       stroke="#535461"
       fill="none" />
    <path
       d="M769,294.26c-2.93,8.11-26.68,26.53-26.68,26.53s-6.79-28.61-3.87-36.71,12.14-12.4,20.57-9.59A15.4,15.4,0,0,1,769,294.26Z"
       transform="translate(-37.44 -49.53)"
       id="path56"
       fill="#1c3ed3" />
    <path
       d="M778,347.59c-7,5.27-37.39,8.32-37.39,8.32s10.47-27.55,17.51-32.83a16.6,16.6,0,0,1,22.69,2.7A15.14,15.14,0,0,1,778,347.59Z"
       transform="translate(-37.44 -49.53)"
       id="path58"
       fill="#1c3ed3" />
    <path
       d="M749.25,424c-8.85,1.14-36.65-11-36.65-11s23.51-18.7,32.36-19.84,17,4.83,18.16,13.34S758.09,422.82,749.25,424Z"
       transform="translate(-37.44 -49.53)"
       id="path60"
       fill="#1c3ed3" />
    <path
       d="M713.92,477c-8.52,2.56-38-4.85-38-4.85s19.89-22.25,28.41-24.81,17.59,2,20.25,10.19A15.44,15.44,0,0,1,713.92,477Z"
       transform="translate(-37.44 -49.53)"
       id="path62"
       fill="#1c3ed3" />
    <path
       d="M708,346.79c4,7.67,30.08,22.92,30.08,22.92s2.81-29.21-1.2-36.88a16.47,16.47,0,0,0-21.7-6.9A15.26,15.26,0,0,0,708,346.79Z"
       transform="translate(-37.44 -49.53)"
       id="path64"
       fill="#1c3ed3" />
    <path
       d="M667.53,409.36c6.21,6.16,35.83,13.21,35.83,13.21s-6.41-28.68-12.62-34.84a16.64,16.64,0,0,0-22.86-.34A15.11,15.11,0,0,0,667.53,409.36Z"
       transform="translate(-37.44 -49.53)"
       id="path66"
       fill="#1c3ed3" />
    <path
       d="M636.85,475.37c5,7.08,33,18.84,33,18.84s-1.28-29.31-6.32-36.39a16.58,16.58,0,0,0-22.47-4.05A15.17,15.17,0,0,0,636.85,475.37Z"
       transform="translate(-37.44 -49.53)"
       id="path68"
       fill="#1c3ed3" />
  </g>
  <path
     d="M631.7,137.54l17.41,3.68A122.12,122.12,0,0,0,631.7,137.54Z"
     transform="translate(-37.44 -49.53)"
     fill="#dea3a2"
     id="path74" />
  <path
     d="M928.64,99.25a46.59,46.59,0,0,0-8.87,6.11,15.87,15.87,0,0,0-5.16,9.24c-.19,1.52-.09,3.08-.43,4.58a14.45,14.45,0,0,1-3,5.55,75.44,75.44,0,0,1-7.49,8.29"
     transform="translate(-37.44 -49.53)"
     fill="none"
     id="path90" />
  <path
     d="M1063.51,152.51c-4.81.13-9.8.3-14.08,2.5-2.18,1.13-4.08,2.73-6.22,3.93a18.92,18.92,0,0,1-9.07,2.36Z"
     transform="translate(-37.44 -49.53)"
     opacity="0.1"
     id="path94" />
  <path
     d="M996.84,172.34c1-.8,2.6-.18,3.45.81s1.34,2.26,2.22,3.22c1.75,1.9,4.62,2.11,7.2,2.21Z"
     transform="translate(-37.44 -49.53)"
     opacity="0.1"
     id="path96" />
  <path
     d="M969.34,70.21l-4.62,2.42c-4.72,2.47-9.47,5-13.62,8.31Z"
     transform="translate(-37.44 -49.53)"
     opacity="0.1"
     id="path98" />
  <ellipse
     cx="237.65"
     cy="719.04"
     rx="25.44"
     ry="3.49"
     fill="#1c3ed3"
     opacity="0.1"
     id="ellipse104" />
  <ellipse
     cx="140.21"
     cy="728.92"
     rx="25.44"
     ry="3.49"
     fill="#1c3ed3"
     opacity="0.1"
     id="ellipse106" />
  <ellipse
     cx="25.44"
     cy="715.54"
     rx="25.44"
     ry="3.49"
     fill="#1c3ed3"
     opacity="0.1"
     id="ellipse108" />
  <ellipse
     cx="179.21"
     cy="757.05"
     rx="18.08"
     ry="2.48"
     fill="#1c3ed3"
     opacity="0.1"
     id="ellipse110" />
  <ellipse
     cx="78.08"
     cy="754.57"
     rx="18.08"
     ry="2.48"
     fill="#1c3ed3"
     opacity="0.1"
     id="ellipse112" />
  <path
     d="m 177.1,777.66 c 0,0 35.68,-116.95 -5.58,-163.79 -30.87,-35 -65.9,-30.85 -81.59,-26.52 A 29,29 0 0 0 71.21,602.9 c -5.48,11.84 -4.49,31.05 34.23,53.47 64.84,37.53 68.87,89 68.87,89 z"
     transform="translate(-37.44,-49.53)"
     id="path114"
     inkscape:connector-curvature="0"
     style="opacity:0.86231887;fill:#1c3ed3" />
  <path
     d="M95.51,603.94s105.17,32.88,81.59,173.72"
     transform="translate(-37.44 -49.53)"
     fill="none"
     stroke="#565987"
     stroke-miterlimit="10"
     id="path116" />
  <path
     d="M156.94,615.73s-14.48,9.76-9.88,24.42"
     transform="translate(-37.44 -49.53)"
     fill="none"
     stroke="#565987"
     stroke-miterlimit="10"
     id="path118" />
  <path
     d="M106.06,624.41s8.85-9,19.63-4"
     transform="translate(-37.44 -49.53)"
     fill="none"
     stroke="#565987"
     stroke-miterlimit="10"
     id="path120" />
  <path
     d="M147.63,669.71s15.55-7.89,19.57,2"
     transform="translate(-37.44 -49.53)"
     fill="none"
     stroke="#565987"
     stroke-miterlimit="10"
     id="path122" />
  <path
     d="M186.1,686.15s-11.67-.93-11.89,4.65"
     transform="translate(-37.44 -49.53)"
     fill="none"
     stroke="#565987"
     stroke-miterlimit="10"
     id="path124" />
  <path
     d="m 178.55,778.6 c 0,0 -41.79,-85 -53.27,-83.14 -5.45,0.88 -8,6.24 -9.1,11.63 a 34.22,34.22 0 0 0 2.28,20.69 c 5.93,13.6 21.85,39.43 60.09,50.82 z"
     transform="translate(-37.44,-49.53)"
     id="path126"
     inkscape:connector-curvature="0"
     style="opacity:0.52898554;fill:#1c3ed3" />
  <path
     d="M125.59,711.59s43.86,63.59,52.34,66.38"
     transform="translate(-37.44 -49.53)"
     fill="none"
     stroke="#565987"
     stroke-miterlimit="10"
     id="path128" />
  <line
     x1="84.12"
     y1="671.98"
     x2="94.36"
     y2="671.98"
     fill="none"
     stroke="#565987"
     stroke-miterlimit="10"
     id="line130" />
  <line
     x1="96.38"
     y1="695.25"
     x2="112.43"
     y2="695.94"
     fill="none"
     stroke="#565987"
     stroke-miterlimit="10"
     id="line132" />
  <line
     x1="106.15"
     y1="676.64"
     x2="104.41"
     y2="684.99"
     fill="none"
     stroke="#565987"
     stroke-miterlimit="10"
     id="line134" />
  <line
     x1="123.21"
     y1="702.07"
     x2="122.9"
     y2="709.67"
     fill="none"
     stroke="#565987"
     stroke-miterlimit="10"
     id="line136" />
  <path
     d="m 177.3,778.6 c 0,0 41.79,-85 53.27,-83.14 5.45,0.88 8,6.24 9.1,11.63 a 34.22,34.22 0 0 1 -2.28,20.69 c -5.93,13.6 -21.85,39.43 -60.09,50.82 z"
     transform="translate(-37.44,-49.53)"
     id="path138"
     inkscape:connector-curvature="0"
     style="opacity:0.58695655;fill:#1c3ed3" />
  <path
     d="m 230.26,711.59 c 0,0 -43.86,63.59 -52.33,66.41"
     transform="translate(-37.44,-49.53)"
     stroke-miterlimit="10"
     id="path140"
     inkscape:connector-curvature="0"
     style="opacity:0.34782607;fill:none;stroke:#565987;stroke-miterlimit:10" />
  <line
     x1="196.85"
     y1="671.98"
     x2="186.61"
     y2="671.98"
     fill="none"
     stroke="#565987"
     stroke-miterlimit="10"
     id="line142" />
  <line
     x1="184.59"
     y1="695.25"
     x2="168.54"
     y2="695.94"
     fill="none"
     stroke="#565987"
     stroke-miterlimit="10"
     id="line144" />
  <line
     x1="174.83"
     y1="676.64"
     x2="176.57"
     y2="684.99"
     fill="none"
     stroke="#565987"
     stroke-miterlimit="10"
     id="line146" />
  <line
     x1="157.76"
     y1="702.07"
     x2="158.07"
     y2="709.67"
     fill="none"
     stroke="#565987"
     stroke-miterlimit="10"
     id="line148" />
  <path
     d="m 105.56,798.45 a 7.31,7.31 0 0 1 -2.38,-3.59 3.19,3.19 0 0 1 1.66,-3.66 c 1.53,-0.58 3.16,0.48 4.4,1.54 1.24,1.06 2.65,2.29 4.27,2.07 a 6.51,6.51 0 0 1 -2,-6.09 2.56,2.56 0 0 1 0.56,-1.24 c 0.85,-0.9 2.38,-0.51 3.4,0.2 3.22,2.27 4.12,6.65 4.14,10.6 a 19.93,19.93 0 0 0 0.06,-4.37 4.48,4.48 0 0 1 1.64,-3.86 4.86,4.86 0 0 1 2.5,-0.59 c 1.45,-0.05 3.06,0.09 4,1.15 1.24,1.32 0.92,3.53 -0.15,5 a 15.86,15.86 0 0 1 -4.2,3.37 9.12,9.12 0 0 0 -3,2.86 3.42,3.42 0 0 0 -0.23,0.51 h -9.09 a 25.59,25.59 0 0 1 -5.58,-3.9 z"
     transform="translate(-37.44,-49.53)"
     id="path150"
     inkscape:connector-curvature="0"
     style="opacity:0.97101446;fill:#1c3ed3" />
  <path
     d="M264.78,764.21a7.22,7.22,0,0,1-2.38-3.59,3.19,3.19,0,0,1,1.66-3.65c1.53-.59,3.16.47,4.39,1.54s2.66,2.29,4.28,2.06a6.5,6.5,0,0,1-2-6.09,2.62,2.62,0,0,1,.56-1.23c.85-.91,2.39-.52,3.4.2,3.23,2.26,4.13,6.65,4.15,10.59a19.84,19.84,0,0,0,.05-4.36,4.48,4.48,0,0,1,1.64-3.86,4.91,4.91,0,0,1,2.5-.59c1.45-.06,3.07.09,4.06,1.15,1.23,1.32.91,3.53-.16,5a15.67,15.67,0,0,1-4.2,3.36,9.53,9.53,0,0,0-3,2.86,2.71,2.71,0,0,0-.22.52H270.4A25.16,25.16,0,0,1,264.78,764.21Z"
     transform="translate(-37.44 -49.53)"
     fill="#1c3ed3"
     id="path152" />
  <path
     d="m 211.71,798.45 a 7.31,7.31 0 0 1 -2.38,-3.59 3.2,3.2 0 0 1 1.67,-3.66 c 1.52,-0.58 3.15,0.48 4.39,1.54 1.24,1.06 2.65,2.29 4.27,2.07 a 6.53,6.53 0 0 1 -2,-6.09 2.65,2.65 0 0 1 0.56,-1.24 c 0.85,-0.9 2.38,-0.51 3.4,0.2 3.22,2.27 4.12,6.65 4.14,10.6 a 19.93,19.93 0 0 0 0.06,-4.37 4.48,4.48 0 0 1 1.64,-3.86 4.86,4.86 0 0 1 2.5,-0.59 c 1.45,-0.05 3.07,0.09 4.06,1.15 1.23,1.32 0.91,3.53 -0.16,5 a 15.7,15.7 0 0 1 -4.2,3.37 9.22,9.22 0 0 0 -3,2.86 2.61,2.61 0 0 0 -0.22,0.51 h -9.09 a 25.41,25.41 0 0 1 -5.64,-3.9 z"
     transform="translate(-37.44,-49.53)"
     id="path154"
     inkscape:connector-curvature="0"
     style="opacity:0.91304345;fill:#1c3ed3" />
  <path
     d="M61.22,729.25s-3.4,4.45,1.58,11.18,9.09,12.41,7.43,16.61c0,0-7.52-12.5-13.64-12.68S54.49,736.76,61.22,729.25Z"
     transform="translate(-37.44 -49.53)"
     fill="#1c3ed3"
     id="path156" />
  <path
     d="M61.22,729.25a5.62,5.62,0,0,0-.69,1.39c-6,7-9.15,13.56-3.41,13.72,5.34.16,11.75,9.71,13.29,12.13,0,.18-.11.37-.18.55,0,0-7.52-12.5-13.64-12.68S54.49,736.76,61.22,729.25Z"
     transform="translate(-37.44 -49.53)"
     opacity="0.1"
     id="path158"
     style="fill:#ffcc00" />
  <path
     d="M54.89,734.93c0,1.56.17,2.84.39,2.84s.39-1.28.39-2.84-.22-.83-.43-.83S54.89,733.36,54.89,734.93Z"
     transform="translate(-37.44 -49.53)"
     fill="#ffd037"
     id="path160" />
  <path
     d="M52.71,736.8c1.38.75,2.58,1.2,2.69,1s-.93-.95-2.31-1.7-.83-.21-.94,0S51.34,736.05,52.71,736.8Z"
     transform="translate(-37.44 -49.53)"
     fill="#ffd037"
     id="path162" />
  <path
     d="M79.23,729.25s3.41,4.45-1.58,11.18S68.57,752.84,70.23,757c0,0,7.51-12.5,13.63-12.68S86,736.76,79.23,729.25Z"
     transform="translate(-37.44 -49.53)"
     fill="#1c3ed3"
     id="path164" />
  <path
     d="M79.23,729.25a5.62,5.62,0,0,1,.69,1.39c6,7,9.15,13.56,3.41,13.72-5.34.16-11.75,9.71-13.29,12.13a4,4,0,0,0,.19.55s7.51-12.5,13.63-12.68S86,736.76,79.23,729.25Z"
     transform="translate(-37.44 -49.53)"
     opacity="0.1"
     id="path166"
     style="fill:#ffcc00" />
  <path
     d="M85.56,734.93c0,1.56-.17,2.84-.39,2.84s-.39-1.28-.39-2.84.22-.83.43-.83S85.56,733.36,85.56,734.93Z"
     transform="translate(-37.44 -49.53)"
     fill="#ffd037"
     id="path168" />
  <path
     d="M87.74,736.8c-1.38.75-2.58,1.2-2.68,1s.92-.95,2.3-1.7.84-.21.94,0S89.12,736.05,87.74,736.8Z"
     transform="translate(-37.44 -49.53)"
     fill="#ffd037"
     id="path170" />
  <path
     d="M84.48,756.45s-9.53-.29-12.4-2.33-14.66-4.49-15.37-1.21-14.33,16.31-3.57,16.4,25-1.68,27.87-3.42S84.48,756.45,84.48,756.45Z"
     transform="translate(-37.44 -49.53)"
     fill="#a8a8a8"
     id="path172" />
  <path
     d="M53,768.17c10.76.08,25-1.68,27.87-3.43,2.18-1.33,3.05-6.1,3.34-8.3h.32s-.61,7.69-3.47,9.44-17.11,3.5-27.87,3.42c-3.1,0-4.18-1.13-4.12-2.77C49.45,767.53,50.64,768.15,53,768.17Z"
     transform="translate(-37.44 -49.53)"
     opacity="0.2"
     id="path174" />
  <path
     d="M1110.55,744.39c0-2.14-8.71-4-21.52-5-3.48-5.8-8.94-12.1-9.5-14.67-.76-3.48-9.23-3-16.25-1.27,4.42-5.68,10.79-12.35,16.43-12.52,5.9-.16,5.94-4.53,2.7-10.61a20.52,20.52,0,0,0,3.55-1.59c2.21-1.22,1.07-.83.9-1.14s.71-1.19-1.51,0a20.75,20.75,0,0,0-3.22,2.09,19.68,19.68,0,0,0,.32-4c0-2.53-.21-1.34-.56-1.34s-.7-1.19-.7,1.34a26.43,26.43,0,0,0,.12,2.69,84.27,84.27,0,0,0-9.06-11.85l0,0,0,0,0,.07,0,0c.06.09.15.22.25.4l0,.05c0,.07.09.16.13.25l0,.06a7.31,7.31,0,0,1,.36.78.42.42,0,0,1,0,.1l.15.38c1.05,2.91,1.77,8.56-3.63,15.87s-10.32,14.07-12,19.69c-1.65-5.62-6.47-12.26-12-19.69s-4.68-13-3.63-15.87l.15-.38,0-.1q.2-.45.36-.78l0-.06c0-.09.09-.18.13-.25l0-.05a3.26,3.26,0,0,1,.25-.4l0,0,0-.07,0,0,0,0a84.27,84.27,0,0,0-9.06,11.85c.07-.76.12-1.68.12-2.69,0-2.53-.35-1.34-.7-1.34s-.57-1.19-.57,1.34a19.52,19.52,0,0,0,.33,4,20.75,20.75,0,0,0-3.22-2.09c-2.22-1.21-1.34-.33-1.51,0s-1.32-.08.9,1.14a20.52,20.52,0,0,0,3.55,1.59c-3.24,6.08-3.2,10.45,2.7,10.61,6.78.2,14.64,9.83,18.87,15.8-4.22,2.89-16.69,3.58-19.36,3.69h0l-.51,0h0a47.8,47.8,0,0,0,1.06,6.55,28.88,28.88,0,0,0,1.21,3.94c-5.29.95-8.45,2.13-8.45,3.42,0,2.7,13.83,5,32.27,5.51a220.06,220.06,0,0,0,24.36,1.32c.5,0,1,0,1.38-.06l.2,0c.4,0,.77-.1,1.12-.16l.21-.05a7.37,7.37,0,0,0,.93-.25l.14-.06a6.17,6.17,0,0,0,.73-.33l.09,0a4.55,4.55,0,0,0,.6-.42l.12-.11a2.74,2.74,0,0,0,.43-.48l.06-.07C1102.85,748.18,1110.55,746.41,1110.55,744.39Z"
     transform="translate(-37.44 -49.53)"
     fill="url(#d3efc67a-a667-44d9-839e-ddeb4c4ea6af)"
     id="path178" />
  <path
     d="M583.85,455.11s3.3,9.08,12.38,8.26S583.85,455.11,583.85,455.11Z"
     transform="translate(-37.44 -49.53)"
     opacity="0.1"
     id="path260" />
  <path
     d="M592.65,441.36s6.05,1.1,8.26,6.32S592.65,441.36,592.65,441.36Z"
     transform="translate(-37.44 -49.53)"
     opacity="0.1"
     id="path262" />
  <path
     d="M721.7,461.17s25.31,2.75,26.41,9.08S721.7,461.17,721.7,461.17Z"
     transform="translate(-37.44 -49.53)"
     opacity="0.1"
     id="path274" />
  <ellipse
     cx="561.29"
     cy="445.65"
     rx="19.99"
     ry="5.42"
     opacity="0.1"
     id="ellipse330" />
  <ellipse
     cx="561.35"
     cy="445.45"
     rx="19.53"
     ry="5.42"
     fill="#fdf9f9"
     id="ellipse332" />
  <path
     d="M358,639.74l-.13-1.56C358.32,633,358,639.74,358,639.74Z"
     transform="translate(-37.44 -49.53)"
     fill="#e4aab4"
     id="path606" />
  <path
     d="M790.94,671.29s-6.6,4.59.92,6.42S790.94,671.29,790.94,671.29Z"
     transform="translate(-37.44 -49.53)"
     opacity="0.1"
     id="path662" />
  <path
     d="M601.46,618.83s10.45,6,11.55,11S601.46,618.83,601.46,618.83Z"
     transform="translate(-37.44 -49.53)"
     opacity="0.1"
     id="path740" />
  <path
     d="M643.28,730.36s14.31-2.2,18,.18S643.28,730.36,643.28,730.36Z"
     transform="translate(-37.44 -49.53)"
     opacity="0.1"
     id="path756" />
  <ellipse
     cx="1031.83"
     cy="694.45"
     rx="40.86"
     ry="5.61"
     fill="#1c3ed3"
     opacity="0.1"
     id="ellipse758" />
  <path
     d="M1071.92,686.43s5.48,7.16-2.53,18-14.6,19.93-11.93,26.67c0,0,12.07-20.07,21.9-20.35S1082.73,698.5,1071.92,686.43Z"
     transform="translate(-37.44 -49.53)"
     fill="#1c3ed3"
     id="path760" />
  <path
     d="M1071.92,686.43a8.66,8.66,0,0,1,1.12,2.24c9.59,11.27,14.7,21.78,5.48,22.05-8.59.24-18.88,15.59-21.35,19.47a9.06,9.06,0,0,0,.29.88s12.07-20.07,21.9-20.35S1082.73,698.5,1071.92,686.43Z"
     transform="translate(-37.44 -49.53)"
     opacity="0.1"
     id="path762" />
  <path
     d="M1082.1,695.55c0,2.52-.28,4.57-.63,4.57s-.63-2-.63-4.57.35-1.33.7-1.33S1082.1,693,1082.1,695.55Z"
     transform="translate(-37.44 -49.53)"
     fill="#ffd037"
     id="path764" />
  <path
     d="M1085.59,698.56c-2.21,1.21-4.14,1.94-4.31,1.63s1.5-1.53,3.71-2.74,1.34-.33,1.51,0S1087.81,697.36,1085.59,698.56Z"
     transform="translate(-37.44 -49.53)"
     fill="#ffd037"
     id="path766" />
  <path
     d="M1043,686.43s-5.48,7.16,2.53,18,14.6,19.93,11.93,26.67c0,0-12.07-20.07-21.9-20.35S1032.19,698.5,1043,686.43Z"
     transform="translate(-37.44 -49.53)"
     fill="#1c3ed3"
     id="path768" />
  <path
     d="m 1043,686.43 a 9.06,9.06 0 0 0 -1.12,2.24 c -9.59,11.27 -14.7,21.78 -5.48,22.05 8.59,0.24 18.89,15.59 21.35,19.47 a 7,7 0 0 1 -0.29,0.88 c 0,0 -12.07,-20.07 -21.9,-20.35 -9.83,-0.28 -3.37,-12.22 7.44,-24.29 z"
     transform="translate(-37.44,-49.53)"
     id="path770"
     inkscape:connector-curvature="0"
     style="opacity:0.55797101" />
  <path
     d="M1032.82,695.55c0,2.52.28,4.57.63,4.57s.64-2,.64-4.57-.36-1.33-.71-1.33S1032.82,693,1032.82,695.55Z"
     transform="translate(-37.44 -49.53)"
     fill="#ffd037"
     id="path772" />
  <path
     d="M1029.33,698.56c2.21,1.21,4.14,1.94,4.31,1.63s-1.49-1.53-3.71-2.74-1.34-.33-1.5,0S1027.12,697.36,1029.33,698.56Z"
     transform="translate(-37.44 -49.53)"
     fill="#ffd037"
     id="path774" />
  <path
     d="M1034.57,730.14s15.3-.47,19.92-3.76,23.55-7.21,24.69-1.94,23,26.21,5.72,26.35-40.16-2.7-44.76-5.5S1034.57,730.14,1034.57,730.14Z"
     transform="translate(-37.44 -49.53)"
     fill="#a8a8a8"
     id="path776" />
  <path
     d="M1085.21,749c-17.28.14-40.16-2.69-44.76-5.5-3.51-2.13-4.91-9.8-5.37-13.33l-.51,0s1,12.34,5.57,15.15,27.48,5.63,44.76,5.5c5,0,6.72-1.82,6.62-4.45C1090.83,747.93,1088.92,748.92,1085.21,749Z"
     transform="translate(-37.44 -49.53)"
     opacity="0.2"
     id="path778" />
  <g
     id="g1411"
     transform="translate(274.97004,257.12776)"
     style="opacity:0.73188405">
    <g
       id="g1138">
      <g
         id="g1136">
        <path
           id="path1134"
           d="m 477.867,102.4 c -18.825,0 -34.133,15.309 -34.133,34.133 0,18.824 15.309,34.133 34.133,34.133 18.824,0 34.133,-15.308 34.133,-34.133 0,-18.824 -15.309,-34.133 -34.133,-34.133 z m 0,51.2 c -9.412,0 -17.067,-7.654 -17.067,-17.067 0,-9.412 7.654,-17.067 17.067,-17.067 9.413,0 17.067,7.654 17.067,17.067 -0.001,9.413 -7.655,17.067 -17.067,17.067 z"
           inkscape:connector-curvature="0" />
      </g>
    </g>
    <g
       id="g1144">
      <g
         id="g1142">
        <path
           id="path1140"
           d="M 34.133,384 C 15.309,384 0,399.309 0,418.133 c 0,18.824 15.309,34.133 34.133,34.133 18.825,0 34.133,-15.309 34.133,-34.133 C 68.266,399.309 52.958,384 34.133,384 Z m 0,51.2 c -9.412,0 -17.067,-7.654 -17.067,-17.067 0,-9.413 7.654,-17.067 17.067,-17.067 9.412,0 17.067,7.654 17.067,17.067 0,9.413 -7.654,17.067 -17.067,17.067 z"
           inkscape:connector-curvature="0" />
      </g>
    </g>
    <g
       id="g1150">
      <g
         id="g1148">
        <path
           id="path1146"
           d="M 461.321,113.186 387.704,77.645 c -4.25,-2.057 -9.344,-0.265 -11.392,3.977 -2.048,4.241 -0.265,9.344 3.977,11.392 l 73.617,35.541 c 1.195,0.58 2.458,0.853 3.703,0.853 3.174,0 6.221,-1.775 7.688,-4.83 2.048,-4.241 0.265,-9.344 -3.976,-11.392 z"
           inkscape:connector-curvature="0" />
      </g>
    </g>
    <g
       id="g1156">
      <g
         id="g1154">
        <path
           id="path1152"
           d="m 384,443.733 c -18.825,0 -34.133,15.309 -34.133,34.133 0,18.824 15.308,34.134 34.133,34.134 18.825,0 34.133,-15.309 34.133,-34.133 0,-18.824 -15.308,-34.134 -34.133,-34.134 z m 0,51.2 c -9.412,0 -17.067,-7.654 -17.067,-17.067 0,-9.413 7.655,-17.066 17.067,-17.066 9.412,0 17.067,7.654 17.067,17.067 0,9.413 -7.655,17.066 -17.067,17.066 z"
           inkscape:connector-curvature="0" />
      </g>
    </g>
    <g
       id="g1162">
      <g
         id="g1160">
        <path
           id="path1158"
           d="m 367.454,454.52 -73.617,-35.541 c -4.25,-2.057 -9.344,-0.273 -11.392,3.977 -2.048,4.241 -0.265,9.344 3.977,11.392 l 73.617,35.541 c 1.195,0.58 2.458,0.853 3.703,0.853 3.174,0 6.221,-1.775 7.689,-4.83 2.047,-4.242 0.264,-9.344 -3.977,-11.392 z"
           inkscape:connector-curvature="0" />
      </g>
    </g>
    <g
       id="g1168">
      <g
         id="g1166">
        <path
           id="path1164"
           d="m 256,230.4 c -18.825,0 -34.133,15.309 -34.133,34.133 0,18.825 15.309,34.133 34.133,34.133 18.825,0 34.133,-15.309 34.133,-34.133 0,-18.824 -15.308,-34.133 -34.133,-34.133 z m 0,51.2 c -9.412,0 -17.067,-7.654 -17.067,-17.067 0,-9.412 7.654,-17.067 17.067,-17.067 9.412,0 17.067,7.654 17.067,17.067 0,9.413 -7.655,17.067 -17.067,17.067 z"
           inkscape:connector-curvature="0" />
      </g>
    </g>
    <g
       id="g1174">
      <g
         id="g1172">
        <path
           id="path1170"
           d="m 240.998,242.142 -56.55,-44.075 c -3.721,-2.876 -9.079,-2.236 -11.981,1.485 -2.893,3.721 -2.236,9.079 1.485,11.981 l 56.55,44.075 c 1.562,1.212 3.405,1.801 5.24,1.801 2.543,0 5.052,-1.126 6.741,-3.285 2.893,-3.722 2.236,-9.081 -1.485,-11.982 z"
           inkscape:connector-curvature="0" />
      </g>
    </g>
    <g
       id="g1180">
      <g
         id="g1178">
        <path
           id="path1176"
           d="m 409.6,221.867 c -51.755,0 -93.867,42.112 -93.867,93.867 0,51.755 42.112,93.867 93.867,93.867 51.755,0 93.867,-42.112 93.867,-93.867 0,-51.755 -42.112,-93.867 -93.867,-93.867 z m 0,170.666 c -42.351,0 -76.8,-34.449 -76.8,-76.8 0,-42.351 34.449,-76.8 76.8,-76.8 42.351,0 76.8,34.449 76.8,76.8 0,42.351 -34.449,76.8 -76.8,76.8 z"
           inkscape:connector-curvature="0"
           style="fill:#ff5555" />
      </g>
    </g>
    <g
       id="g1186">
      <g
         id="g1184">
        <path
           id="path1182"
           d="m 409.6,256 c -18.825,0 -34.133,15.309 -34.133,34.133 0,18.825 15.309,34.133 34.133,34.133 18.825,0 34.133,-15.309 34.133,-34.133 C 443.733,271.309 428.425,256 409.6,256 Z m 0,51.2 c -9.412,0 -17.067,-7.654 -17.067,-17.067 0,-9.412 7.654,-17.067 17.067,-17.067 9.412,0 17.067,7.654 17.067,17.067 0,9.413 -7.655,17.067 -17.067,17.067 z"
           inkscape:connector-curvature="0"
           style="fill:#803300" />
      </g>
    </g>
    <g
       id="g1192">
      <g
         id="g1190">
        <path
           id="path1188"
           d="m 434.355,341.333 h -49.51 c -14.583,0 -26.445,11.546 -26.445,25.728 v 22.494 c 0,3.046 1.621,5.862 4.258,7.39 14.302,8.277 30.532,12.655 46.942,12.655 16.41,0 32.64,-4.378 46.942,-12.655 2.637,-1.519 4.258,-4.344 4.258,-7.381 V 367.07 c 0,-14.191 -11.861,-25.737 -26.445,-25.737 z m 9.378,43.136 c -21.239,10.581 -47.027,10.581 -68.267,0 V 367.07 c 0,-4.779 4.207,-8.67 9.378,-8.67 h 49.51 c 5.171,0 9.378,3.891 9.378,8.67 v 17.399 z"
           inkscape:connector-curvature="0"
           style="fill:#552200" />
      </g>
    </g>
    <g
       id="g1198">
      <g
         id="g1196">
        <path
           id="path1194"
           d="m 204.8,324.267 c -51.755,0 -93.867,42.112 -93.867,93.867 0,51.755 42.112,93.866 93.867,93.866 51.755,0 93.867,-42.112 93.867,-93.867 0,-51.755 -42.112,-93.866 -93.867,-93.866 z m 0,170.666 c -42.351,0 -76.8,-34.449 -76.8,-76.8 0,-42.351 34.449,-76.8 76.8,-76.8 42.351,0 76.8,34.449 76.8,76.8 0,42.351 -34.449,76.8 -76.8,76.8 z"
           inkscape:connector-curvature="0"
           style="fill:#806600" />
      </g>
    </g>
    <g
       id="g1204">
      <g
         id="g1202">
        <path
           id="path1200"
           d="m 204.8,358.4 c -18.825,0 -34.133,15.309 -34.133,34.133 0,18.825 15.309,34.133 34.133,34.133 18.824,0 34.133,-15.309 34.133,-34.133 0,-18.824 -15.308,-34.133 -34.133,-34.133 z m 0,51.2 c -9.412,0 -17.067,-7.654 -17.067,-17.067 0,-9.412 7.654,-17.067 17.067,-17.067 9.412,0 17.067,7.654 17.067,17.067 0,9.413 -7.655,17.067 -17.067,17.067 z"
           inkscape:connector-curvature="0" />
      </g>
    </g>
    <g
       id="g1210"
       style="fill:#ac9393">
      <g
         id="g1208"
         style="fill:#ac9393">
        <path
           id="path1206"
           d="m 229.555,443.733 h -49.51 c -14.583,0 -26.445,11.546 -26.445,25.728 v 22.494 c 0,3.046 1.621,5.862 4.258,7.39 C 172.16,507.622 188.39,512 204.8,512 c 16.41,0 32.64,-4.378 46.942,-12.655 2.637,-1.519 4.258,-4.343 4.258,-7.381 V 469.47 c 0,-14.191 -11.861,-25.737 -26.445,-25.737 z m 9.378,43.136 c -21.24,10.581 -47.027,10.581 -68.267,0 V 469.47 c 0,-4.779 4.207,-8.67 9.378,-8.67 h 49.51 c 5.171,0 9.378,3.891 9.378,8.67 v 17.399 z"
           inkscape:connector-curvature="0"
           style="fill:#ac9393" />
      </g>
    </g>
    <g
       id="g1216">
      <g
         id="g1214">
        <path
           id="path1212"
           d="M 93.867,110.933 C 42.112,110.933 0,153.045 0,204.8 c 0,51.755 42.112,93.867 93.867,93.867 51.755,0 93.867,-42.112 93.867,-93.867 -0.001,-51.755 -42.113,-93.867 -93.867,-93.867 z m 0,170.667 c -42.351,0 -76.8,-34.449 -76.8,-76.8 0,-42.351 34.449,-76.8 76.8,-76.8 42.351,0 76.8,34.449 76.8,76.8 0,42.351 -34.449,76.8 -76.8,76.8 z"
           inkscape:connector-curvature="0"
           style="fill:#000080" />
      </g>
    </g>
    <g
       id="g1222">
      <g
         id="g1220">
        <path
           id="path1218"
           d="m 93.867,145.067 c -18.825,0 -34.133,15.309 -34.133,34.133 0,18.824 15.309,34.133 34.133,34.133 18.825,0 34.133,-15.309 34.133,-34.133 0,-18.824 -15.309,-34.133 -34.133,-34.133 z m 0,51.2 c -9.412,0 -17.067,-7.654 -17.067,-17.067 0,-9.413 7.654,-17.067 17.067,-17.067 9.412,0 17.067,7.654 17.067,17.067 0,9.413 -7.655,17.067 -17.067,17.067 z"
           inkscape:connector-curvature="0" />
      </g>
    </g>
    <g
       id="g1228">
      <g
         id="g1226"
         style="fill:#808000">
        <path
           id="path1224"
           d="m 118.622,230.4 h -49.51 c -14.583,0 -26.445,11.546 -26.445,25.728 v 22.494 c 0,3.046 1.621,5.862 4.258,7.39 14.302,8.277 30.532,12.655 46.942,12.655 16.41,0 32.64,-4.378 46.942,-12.655 2.637,-1.519 4.258,-4.344 4.258,-7.381 v -22.494 c 0,-14.191 -11.862,-25.737 -26.445,-25.737 z M 128,273.536 c -21.239,10.581 -47.027,10.581 -68.267,0 v -17.399 c 0,-4.779 4.207,-8.67 9.378,-8.67 h 49.51 c 5.171,0 9.378,3.891 9.378,8.67 v 17.399 z"
           inkscape:connector-curvature="0"
           style="fill:#808000" />
      </g>
    </g>
    <g
       id="g1234">
      <g
         id="g1232">
        <path
           id="path1230"
           d="M 298.667,0 C 246.912,0 204.8,42.112 204.8,93.867 c 0,51.755 42.112,93.867 93.867,93.867 51.755,0 93.867,-42.112 93.867,-93.867 C 392.533,42.112 350.421,0 298.667,0 Z m 0,170.667 c -42.351,0 -76.8,-34.449 -76.8,-76.8 0,-42.351 34.449,-76.8 76.8,-76.8 42.351,0 76.8,34.449 76.8,76.8 0,42.351 -34.449,76.8 -76.8,76.8 z"
           inkscape:connector-curvature="0"
           style="fill:#008080" />
      </g>
    </g>
    <g
       id="g1240">
      <g
         id="g1238">
        <path
           id="path1236"
           d="m 298.667,34.133 c -18.825,0 -34.133,15.309 -34.133,34.133 0,18.824 15.309,34.133 34.133,34.133 18.824,0 34.133,-15.308 34.133,-34.132 0,-18.824 -15.309,-34.134 -34.133,-34.134 z m 0,51.2 c -9.412,0 -17.067,-7.654 -17.067,-17.067 0,-9.412 7.654,-17.067 17.067,-17.067 9.413,0 17.067,7.654 17.067,17.067 -10e-4,9.413 -7.655,17.067 -17.067,17.067 z"
           inkscape:connector-curvature="0" />
      </g>
    </g>
    <g
       id="g1246"
       style="fill:#aad400">
      <g
         id="g1244"
         style="fill:#aad400">
        <path
           id="path1242"
           d="m 323.422,119.467 h -49.51 c -14.583,0 -26.445,11.546 -26.445,25.728 v 22.494 c 0,3.046 1.621,5.862 4.258,7.39 14.302,8.277 30.532,12.655 46.942,12.655 16.41,0 32.64,-4.378 46.942,-12.655 2.637,-1.519 4.258,-4.344 4.258,-7.381 v -22.494 c 0,-14.192 -11.862,-25.737 -26.445,-25.737 z m 9.378,43.136 c -21.239,10.581 -47.027,10.581 -68.267,0 v -17.399 c 0,-4.779 4.207,-8.67 9.378,-8.67 h 49.51 c 5.171,0 9.378,3.891 9.378,8.67 v 17.399 z"
           inkscape:connector-curvature="0"
           style="fill:#aad400" />
      </g>
    </g>
    <g
       id="g1252">
      <g
         id="g1250">
        <path
           id="path1248"
           d="m 219.827,88.311 c -3.063,-3.567 -8.448,-3.994 -12.032,-0.93 l -59.136,50.603 c -3.584,3.063 -4.002,8.448 -0.939,12.032 1.69,1.971 4.079,2.987 6.485,2.987 1.963,0 3.934,-0.674 5.547,-2.057 l 59.136,-50.603 c 3.585,-3.063 4.003,-8.448 0.939,-12.032 z"
           inkscape:connector-curvature="0" />
      </g>
    </g>
    <g
       id="g1258">
      <g
         id="g1256">
        <path
           id="path1254"
           d="m 407.893,225.289 -51.2,-68.267 c -2.825,-3.78 -8.175,-4.523 -11.947,-1.707 -3.772,2.825 -4.531,8.175 -1.707,11.938 l 51.2,68.267 c 1.681,2.236 4.241,3.413 6.835,3.413 1.775,0 3.576,-0.555 5.112,-1.707 3.772,-2.824 4.532,-8.174 1.707,-11.937 z"
           inkscape:connector-curvature="0" />
      </g>
    </g>
    <g
       id="g1264">
      <g
         id="g1262">
        <path
           id="path1260"
           d="m 337.86,343.953 c -2.825,-3.772 -8.175,-4.531 -11.947,-1.707 l -47.667,35.746 c -3.772,2.825 -4.531,8.175 -1.707,11.938 1.681,2.236 4.241,3.413 6.835,3.413 1.783,0 3.575,-0.563 5.112,-1.707 l 47.667,-35.746 c 3.772,-2.823 4.532,-8.174 1.707,-11.937 z"
           inkscape:connector-curvature="0" />
      </g>
    </g>
    <g
       id="g1270">
      <g
         id="g1268">
        <path
           id="path1266"
           d="M 119.467,409.6 H 59.733 c -4.71,0 -8.533,3.814 -8.533,8.533 0,4.719 3.823,8.533 8.533,8.533 h 59.733 c 4.71,0 8.533,-3.814 8.533,-8.533 0,-4.719 -3.822,-8.533 -8.532,-8.533 z"
           inkscape:connector-curvature="0" />
      </g>
    </g>
    <g
       id="g1276">
      <g
         id="g1274">
        <path
           id="path1272"
           d="M 93.867,0 C 75.042,0 59.733,15.309 59.733,34.133 c 0,18.825 15.309,34.133 34.133,34.133 18.825,0 34.133,-15.309 34.133,-34.133 C 128,15.309 112.691,0 93.867,0 Z m 0,51.2 C 84.455,51.2 76.8,43.546 76.8,34.133 c 0,-9.412 7.654,-17.067 17.067,-17.067 9.412,0 17.067,7.654 17.067,17.067 -10e-4,9.413 -7.655,17.067 -17.067,17.067 z"
           inkscape:connector-curvature="0" />
      </g>
    </g>
    <g
       id="g1282">
      <g
         id="g1280">
        <path
           id="path1278"
           d="m 93.867,51.2 c -4.71,0 -8.533,3.814 -8.533,8.533 v 59.733 c 0,4.719 3.823,8.533 8.533,8.533 4.71,0 8.533,-3.814 8.533,-8.533 V 59.733 c 0,-4.719 -3.823,-8.533 -8.533,-8.533 z"
           inkscape:connector-curvature="0" />
      </g>
    </g>
    <g
       id="g1284" />
    <g
       id="g1286" />
    <g
       id="g1288" />
    <g
       id="g1290" />
    <g
       id="g1292" />
    <g
       id="g1294" />
    <g
       id="g1296" />
    <g
       id="g1298" />
    <g
       id="g1300" />
    <g
       id="g1302" />
    <g
       id="g1304" />
    <g
       id="g1306" />
    <g
       id="g1308" />
    <g
       id="g1310" />
    <g
       id="g1312" />
  </g>
  <circle
     style="opacity:0.32300002;fill:#aa4400;fill-opacity:1"
     id="path1413"
     cx="361.01694"
     cy="433.98392"
     r="15.696388" />
  <circle
     style="opacity:0.32300002;fill:#ff00ff;fill-opacity:1"
     id="path1415"
     cx="567.1911"
     cy="323.68497"
     r="14.847935" />
  <ellipse
     style="opacity:0.32300002;fill:#0000ff;fill-opacity:1"
     id="path1417"
     cx="699.12561"
     cy="545.55554"
     rx="14.423708"
     ry="21.211336" />
  <ellipse
     style="opacity:0.32300002;fill:#ccff00;fill-opacity:1"
     id="path1004"
     cx="470.24011"
     cy="652.38232"
     rx="9.5299196"
     ry="14.345407" />
</svg>
