<?xml version="1.0" encoding="UTF-8" standalone="no"?>
<svg
   xmlns:dc="http://purl.org/dc/elements/1.1/"
   xmlns:cc="http://creativecommons.org/ns#"
   xmlns:rdf="http://www.w3.org/1999/02/22-rdf-syntax-ns#"
   xmlns:svg="http://www.w3.org/2000/svg"
   xmlns="http://www.w3.org/2000/svg"
   xmlns:sodipodi="http://sodipodi.sourceforge.net/DTD/sodipodi-0.dtd"
   xmlns:inkscape="http://www.inkscape.org/namespaces/inkscape"
   id="9384b02b-49b7-431a-934f-218f90990cfd"
   data-name="Layer 1"
   width="941.51"
   height="824.82"
   viewBox="0 0 941.51 824.82"
   version="1.1"
   sodipodi:docname="undraw_businesswoman_pc12.svg"
   inkscape:version="0.92.5 (2060ec1f9f, 2020-04-08)">
  <metadata
     id="metadata264">
    <rdf:RDF>
      <cc:Work
         rdf:about="">
        <dc:format>image/svg+xml</dc:format>
        <dc:type
           rdf:resource="http://purl.org/dc/dcmitype/StillImage" />
      </cc:Work>
    </rdf:RDF>
  </metadata>
  <sodipodi:namedview
     pagecolor="#ffffff"
     bordercolor="#666666"
     borderopacity="1"
     objecttolerance="10"
     gridtolerance="10"
     guidetolerance="10"
     inkscape:pageopacity="0"
     inkscape:pageshadow="2"
     inkscape:window-width="1918"
     inkscape:window-height="998"
     id="namedview262"
     showgrid="false"
     inkscape:zoom="1.1444921"
     inkscape:cx="300.03313"
     inkscape:cy="418.80344"
     inkscape:window-x="0"
     inkscape:window-y="40"
     inkscape:window-maximized="0"
     inkscape:current-layer="9384b02b-49b7-431a-934f-218f90990cfd" />
  <defs
     id="defs9">
    <linearGradient
       id="b0d57a94-2a20-4bb1-ba9f-a5b1ad7b8bc7"
       x1="432.56"
       y1="817.82"
       x2="432.56"
       y2="166.66"
       gradientUnits="userSpaceOnUse">
      <stop
         offset="0"
         stop-color="gray"
         stop-opacity="0.25"
         id="stop2" />
      <stop
         offset="0.54"
         stop-color="gray"
         stop-opacity="0.12"
         id="stop4" />
      <stop
         offset="1"
         stop-color="gray"
         stop-opacity="0.1"
         id="stop6" />
    </linearGradient>
  </defs>
  <title
     id="title11">businesswoman</title>
  <ellipse
     cx="482.08"
     cy="798.12"
     rx="42.38"
     ry="356.13"
     transform="translate(-503.7 1128.97) rotate(-82.14)"
     fill="#1c3ed3"
     opacity="0.1"
     id="ellipse13" />
  <path
     d="m 72.774997,634.42125 c 6.41,15.45 14.82,30.26 26.590003,41.62 14.34,13.84 32.15,21.39 51.22,25 a 154.27,154.27 0 0 0 17,2.2 c 15.07,1.16 30.5,0.39 45.3,-1.22 a 535.59,535.59 0 0 0 106.7,-22.83 q 8.55,-2.76 17,-5.81 12.75,-4.57 25.27,-9.81 c 34,-14.21 69.15,-32.33 105.32,-26.71 17.53,2.73 34,11 51.57,13.46 a 92.21,92.21 0 0 0 36.84,-2.62 126.59,126.59 0 0 0 17,-5.87 193.44,193.44 0 0 0 35.32,-20 c 26.5,-18.52 50.28,-41.48 78.18,-57.52 30.76,-17.69 64.81,-26.1 99.5,-32.37 q 8.48,-1.53 17,-2.92 c 16.05,-2.65 32.14,-5.1 48,-8 15.28,-2.82 30.83,-6.27 44.13,-14.75 9.49,-6 17.47,-14.43 24.79,-23.26 a 277.49,277.49 0 0 0 34.52,-53.22 q 0.75,-1.5 1.47,-3 c 14.69,-30.14 24.57,-63 30.63,-97 0.18,-1 0.35,-2 0.52,-3 5.7,-33.33 7.78005,-67.79 7.15,-102 l -0.06,-3 c -0.39,-16.89 -1.44,-33.71 -3,-50.29 -1.12,-11.66 -2.62,-23.76 -8.66,-33.56 -6.04,-9.8 -15.87,-16.1 -25.71,-21.34 -43.3,-23.070001 -84.81,-29.490001 -131.39,-18.310001 -7.48,1.790001 -14.93,3.720001 -22.38,5.720001 -5.67,1.52 -11.34,3.09 -17,4.67 -39.13,10.91 -78.16,22.52 -118.61,26 q -5.87,0.51 -11.73,0.78 -11.61,0.54 -23.22,0.24 a 401.19,401.19 0 0 1 -59.44,-6.12 q -8.52,-1.47 -17,-3.26 c -24.42,-5.09 -48.59,-11.88 -72.42,-19.38 q -7.29,-2.3 -14.56,-4.68 c -10.92,-3.570001 -21.84,-7.210001 -32.78,-10.750001 -32.66,-10.57 -65.48,-20.26 -99.25,-24.16 q -4.34,-0.49 -8.68,-0.87 c -2.77,-0.24 -5.55,-0.43 -8.32,-0.57 -52.45,-2.8 -105.5,9.85 -152,35.740001 q -8.66,4.82 -17,10.24 -11.57,7.53 -22.43,16.2 c -14.84,11.85 -28.73,25.34 -39.310003,41.55 -10.31,15.79 -17,33.52 -20.85,52.16 -0.21,1 -0.41,2 -0.59,3 -5.65,30.09 -3.89,62.36 2.45,92.51 0.67,3.16 1.38,6.33 2.12,9.49 0.23,1 0.47,2 0.71,3 6.84,28.51 15.58,56.94 13.3,86.09 -0.29,3.67 -0.75,7.31 -1.35,10.91 -0.17,1 -0.34,2 -0.53,3 -4.46,23.78 -14.6,46.34 -20.68,69.89 a 215.32,215.32 0 0 0 9.35,134.73 z"
     id="path15"
     inkscape:connector-curvature="0"
     style="opacity:0.1;fill:#1c3ed3" />
  <path
     d="M227.41,298.86H148.8c.23,1,.47,2,.71,3h77.9v97H161.46c-.17,1-.34,2-.53,3h66.48V673.09a154.27,154.27,0,0,0,17,2.2V401.86h152V651.24q8.55-2.76,17-5.81V401.86h219V619.75a126.59,126.59,0,0,0,17-5.87v-212h213V504q8.48-1.53,17-2.92V401.86h151.46q.75-1.5,1.47-3H879.41v-97H1063c.18-1,.35-2,.52-3H879.41v-102h191.23l-.06-3H879.41V76.08c-5.67,1.52-11.34,3.09-17,4.67V193.86h-208l-.52-.57,78.16-85.77q-11.61.54-23.22.24L649.41,173V101.64q-8.52-1.47-17-3.26V169.7L545.48,74.31c-10.92-3.57-21.84-7.21-32.78-10.75L630.91,193.29l-.52.57h-217V39.41q-4.34-.49-8.68-.87c-2.77-.24-5.55-.43-8.32-.57V193.86h-152V73.71q-8.66,4.82-17,10.24V193.86H144.82c-.21,1-.41,2-.59,3h83.18Zm169-102v102h-152v-102Zm17,0h219v102h-219Zm449,102h-213V199.59l3-2.73h210Zm-213,100v-97h213v97Zm-236,0v-97h219v97Zm-169-97h152v97h-152Z"
     transform="translate(-129.25 -37.59)"
     fill="#1c3ed3"
     opacity="0.1"
     id="path17" />
  <path
     d="M317.5,126.62h1.31a3.24,3.24,0,0,1-1.6-2.62h0c0-2.06,2.53-3.75,5.62-3.75h39.42c3.09,0,5.62,1.69,5.62,3.75h0c0,2.07-2.53,3.76-5.62,3.76h-1.32a3.27,3.27,0,0,1,1.61,2.62c0,1.76-1.84,3.25-4.31,3.65h11.35c3.09,0,5.63,1.69,5.63,3.75s-2.54,3.76-5.63,3.76H330.16c-3.09,0-5.62-1.69-5.62-3.76,0-1.76,1.84-3.24,4.3-3.64H317.5c-3.1,0-5.63-1.69-5.63-3.76S314.4,126.62,317.5,126.62Z"
     transform="translate(-129.25 -37.59)"
     fill="#1c3ed3"
     opacity="0.1"
     id="path73" />
  <path
     d="M744.66,162.39H746a3.26,3.26,0,0,1-1.6-2.62h0c0-2.07,2.53-3.76,5.62-3.76h39.42c3.09,0,5.62,1.69,5.62,3.76h0c0,2.06-2.53,3.75-5.62,3.75h-1.32a3.28,3.28,0,0,1,1.61,2.62c0,1.77-1.84,3.25-4.3,3.65h11.34c3.1,0,5.63,1.69,5.63,3.76s-2.53,3.75-5.63,3.75H757.33c-3.1,0-5.63-1.69-5.63-3.75,0-1.76,1.84-3.25,4.3-3.65H744.66c-3.1,0-5.63-1.69-5.63-3.76S741.56,162.39,744.66,162.39Z"
     transform="translate(-129.25 -37.59)"
     fill="#1c3ed3"
     opacity="0.1"
     id="path75" />
  <path
     d="M257,315.45h1.32a3.26,3.26,0,0,1-1.61-2.62h0c0-2.07,2.53-3.76,5.62-3.76h39.42c3.09,0,5.62,1.69,5.62,3.76h0c0,2.06-2.53,3.75-5.62,3.75h-1.32a3.26,3.26,0,0,1,1.61,2.62c0,1.76-1.84,3.25-4.3,3.65h11.34c3.1,0,5.63,1.69,5.63,3.76s-2.53,3.75-5.63,3.75H269.71c-3.1,0-5.63-1.69-5.63-3.75,0-1.77,1.84-3.25,4.31-3.65H257c-3.09,0-5.63-1.69-5.63-3.76S254,315.45,257,315.45Z"
     transform="translate(-129.25 -37.59)"
     fill="#1c3ed3"
     opacity="0.1"
     id="path77" />
  <g
     id="virus-covid19-file-data-coronavirus"
     transform="matrix(2.4345923,0,0,2.4345923,736.48573,168.37538)">
    <path
       id="path1292"
       d="m 46,13 h 8 L 44,3 v 8 a 2,2 0 0 0 2,2 z"
       inkscape:connector-curvature="0"
       style="fill:#9bc9ff" />
    <circle
       id="circle1294"
       r="7"
       cy="16"
       cx="32"
       style="fill:#9bc9ff" />
    <path
       id="path1296"
       d="M 33.414,17.414 A 2,2 0 1 0 32,18 1.994,1.994 0 0 0 33.414,17.414 Z"
       inkscape:connector-curvature="0"
       style="fill:#9bc9ff" />
    <path
       id="path1298"
       d="m 16,28 h 6 v 6 h -6 z"
       inkscape:connector-curvature="0"
       style="fill:#9bc9ff" />
    <path
       id="path1300"
       d="m 16,39 h 6 v 6 h -6 z"
       inkscape:connector-curvature="0"
       style="fill:#9bc9ff" />
    <path
       id="path1302"
       d="m 16,50 h 6 v 6 h -6 z"
       inkscape:connector-curvature="0"
       style="fill:#9bc9ff" />
    <g
       id="g1342"
       style="fill:#1e81ce">
      <path
         id="path1304"
         d="m 54.707,12.293 -10,-10 A 1,1 0 0 0 44,2 H 10 A 1,1 0 0 0 9,3 v 58 a 1,1 0 0 0 1,1 h 44 a 1,1 0 0 0 1,-1 V 13 A 1,1 0 0 0 54.707,12.293 Z M 45,5.414 51.586,12 H 46 A 1,1 0 0 1 45,11 Z M 11,60 V 4 h 32 v 7 a 3,3 0 0 0 3,3 h 7 v 46 z"
         inkscape:connector-curvature="0" />
      <path
         id="path1306"
         d="m 22,35 h -6 a 1,1 0 0 1 -1,-1 v -6 a 1,1 0 0 1 1,-1 h 5 a 1,1 0 0 1 0,2 h -4 v 4 h 5 a 1,1 0 0 1 0,2 z"
         inkscape:connector-curvature="0" />
      <path
         id="path1308"
         d="m 39,30 h -6 a 1,1 0 0 1 0,-2 h 6 a 1,1 0 0 1 0,2 z"
         inkscape:connector-curvature="0" />
      <path
         id="path1310"
         d="m 39,34 h -6 a 1,1 0 0 1 0,-2 h 6 a 1,1 0 0 1 0,2 z"
         inkscape:connector-curvature="0" />
      <path
         id="path1312"
         d="M 48,41 H 33 a 1,1 0 0 1 0,-2 h 15 a 1,1 0 0 1 0,2 z"
         inkscape:connector-curvature="0" />
      <path
         id="path1314"
         d="M 48,45 H 28 a 1,1 0 0 1 0,-2 h 20 a 1,1 0 0 1 0,2 z"
         inkscape:connector-curvature="0" />
      <path
         id="path1316"
         d="m 20,34 a 1,1 0 0 1 -0.707,-0.293 l -2,-2 a 1,1 0 0 1 1.414,-1.414 l 1.226,1.226 4.3,-5.159 a 1.0004804,1.0004804 0 0 1 1.538,1.28 l -5,6 a 1,1 0 0 1 -0.724,0.359 z"
         inkscape:connector-curvature="0" />
      <path
         id="path1318"
         d="m 22,46 h -6 a 1,1 0 0 1 -1,-1 v -6 a 1,1 0 0 1 1,-1 h 5 a 1,1 0 0 1 0,2 h -4 v 4 h 5 a 1,1 0 0 1 0,2 z"
         inkscape:connector-curvature="0" />
      <path
         id="path1320"
         d="m 20,45 a 1,1 0 0 1 -0.707,-0.293 l -2,-2 a 1,1 0 0 1 1.414,-1.414 l 1.226,1.226 4.3,-5.159 a 1.0004804,1.0004804 0 0 1 1.538,1.28 l -5,6 a 1,1 0 0 1 -0.724,0.359 z"
         inkscape:connector-curvature="0" />
      <path
         id="path1322"
         d="M 48,52 H 33 a 1,1 0 0 1 0,-2 h 15 a 1,1 0 0 1 0,2 z"
         inkscape:connector-curvature="0" />
      <path
         id="path1324"
         d="M 48,56 H 28 a 1,1 0 0 1 0,-2 h 20 a 1,1 0 0 1 0,2 z"
         inkscape:connector-curvature="0" />
      <path
         id="path1326"
         d="m 22,57 h -6 a 1,1 0 0 1 -1,-1 v -6 a 1,1 0 0 1 1,-1 h 5 a 1,1 0 0 1 0,2 h -4 v 4 h 5 a 1,1 0 0 1 0,2 z"
         inkscape:connector-curvature="0" />
      <path
         id="path1328"
         d="m 20,56 a 1,1 0 0 1 -0.707,-0.293 l -2,-2 a 1,1 0 0 1 1.414,-1.414 l 1.226,1.226 4.3,-5.159 a 1.0004804,1.0004804 0 0 1 1.538,1.28 l -5,6 a 1,1 0 0 1 -0.724,0.359 z"
         inkscape:connector-curvature="0" />
      <path
         id="path1330"
         d="m 36,15 h -1.184 a 2.746,2.746 0 0 0 -0.117,-0.285 l 0.836,-0.837 a 1,1 0 1 0 -1.414,-1.414 l -0.836,0.837 A 2.746,2.746 0 0 0 33,13.184 V 12 a 1,1 0 0 0 -2,0 v 1.184 a 2.746,2.746 0 0 0 -0.285,0.117 l -0.836,-0.837 a 1,1 0 1 0 -1.414,1.414 l 0.836,0.837 A 2.746,2.746 0 0 0 29.184,15 H 28 a 1,1 0 0 0 0,2 h 1.184 a 2.746,2.746 0 0 0 0.117,0.285 l -0.836,0.837 a 1,1 0 1 0 1.414,1.414 l 0.836,-0.837 A 2.746,2.746 0 0 0 31,18.816 V 20 a 1,1 0 0 0 2,0 v -1.184 a 2.746,2.746 0 0 0 0.285,-0.117 l 0.836,0.837 a 1,1 0 1 0 1.414,-1.414 L 34.699,17.285 A 2.746,2.746 0 0 0 34.816,17 H 36 a 1,1 0 0 0 0,-2 z m -5,1 a 1,1 0 1 1 1,1 1,1 0 0 1 -1,-1 z"
         inkscape:connector-curvature="0" />
      <path
         id="path1332"
         d="m 32,8 a 8,8 0 1 0 8,8 8.009,8.009 0 0 0 -8,-8 z m 0,14 a 6,6 0 1 1 6,-6 6.006,6.006 0 0 1 -6,6 z"
         inkscape:connector-curvature="0" />
      <path
         id="path1334"
         d="m 29,30 h -1 a 1,1 0 0 1 0,-2 h 1 a 1,1 0 0 1 0,2 z"
         inkscape:connector-curvature="0" />
      <path
         id="path1336"
         d="m 29,34 h -1 a 1,1 0 0 1 0,-2 h 1 a 1,1 0 0 1 0,2 z"
         inkscape:connector-curvature="0" />
      <path
         id="path1338"
         d="m 29,41 h -1 a 1,1 0 0 1 0,-2 h 1 a 1,1 0 0 1 0,2 z"
         inkscape:connector-curvature="0" />
      <path
         id="path1340"
         d="m 29,52 h -1 a 1,1 0 0 1 0,-2 h 1 a 1,1 0 0 1 0,2 z"
         inkscape:connector-curvature="0" />
    </g>
  </g>
  <g
     id="g1539"
     transform="matrix(1.2937042,0,0,1.2937042,232.51009,191.7419)">
    <path
       id="path1483"
       d="m 447.25,87.55 c -4.143,0 -7.5,3.357 -7.5,7.5 0,45.49 -37.01,82.5 -82.5,82.5 h -60 v 15 h 60 c 53.762,0 97.5,-43.738 97.5,-97.5 0,-4.143 -3.357,-7.5 -7.5,-7.5 z"
       inkscape:connector-curvature="0"
       style="fill:#a8e5ff" />
    <path
       id="path1485"
       d="m 259.75,285 v 196.592 l -24.87,8.29 c -3.93,1.31 -6.053,5.557 -4.744,9.487 1.31,3.93 5.559,6.054 9.487,4.744 l 29.998,-10 c 3.063,-1.021 5.128,-3.887 5.128,-7.115 V 285 Z"
       inkscape:connector-curvature="0"
       style="fill:#116f97" />
    <path
       id="path1487"
       d="m 334.75,285 v 196.592 l 24.87,8.29 c 3.93,1.31 6.053,5.557 4.744,9.487 -1.31,3.93 -5.559,6.054 -9.487,4.744 l -29.998,-10 c -3.063,-1.021 -5.128,-3.887 -5.128,-7.115 V 285 Z"
       inkscape:connector-curvature="0"
       style="fill:#084f6d" />
    <path
       id="path1489"
       d="m 297.25,390 h 22.5 l 22.5,-15 v -75 h -75 z"
       inkscape:connector-curvature="0"
       style="fill:#7dd9ff" />
    <path
       id="path1491"
       d="m 297.25,390 h -22.5 l -22.5,-15 v -75 h 45 z"
       inkscape:connector-curvature="0"
       style="fill:#a8e5ff" />
    <path
       id="path1493"
       d="m 282.25,240 15,90 c 24.853,0 45,-20.147 45,-45 z"
       inkscape:connector-curvature="0"
       style="fill:#084f6d" />
    <path
       id="path1495"
       d="m 252.25,285 c 0,24.853 20.147,45 45,45 v -90 z"
       inkscape:connector-curvature="0"
       style="fill:#116f97" />
    <path
       id="path1497"
       d="m 319.75,164.989 h -22.5 l -30,60.011 30,59.989 45,0.011 v -90 z"
       inkscape:connector-curvature="0"
       style="fill:#30b054" />
    <path
       id="path1499"
       d="M 274.75,164.989 252.25,195 v 90 l 45,-0.011 v -120 z"
       inkscape:connector-curvature="0"
       style="fill:#80bf63" />
    <path
       id="path1501"
       d="m 257.256,164.989 c -11.046,0 -20.006,8.966 -20.006,20.012 v 205 h 37.5 V 164.989 Z"
       inkscape:connector-curvature="0"
       style="fill:#dbf4ff" />
    <path
       id="path1503"
       d="m 337.25,164.989 h -17.5 V 390 h 37.5 V 185 c 0,-11.045 -8.954,-20.011 -20,-20.011 z"
       inkscape:connector-curvature="0"
       style="fill:#a8e5ff" />
    <path
       id="path1505"
       d="M 332.079,23.604 C 326.557,9.775 313.049,0 297.25,0 281.451,0 267.943,9.775 262.421,23.604 256.509,25.616 252.25,31.202 252.25,37.795 V 90 h 90 V 37.795 c 0,-6.593 -4.259,-12.179 -10.171,-14.191 z"
       inkscape:connector-curvature="0"
       style="fill:#85453d" />
    <path
       id="path1507"
       d="m 297.25,45 v 101 l 45,-46 V 90 c 0,-24.853 -20.147,-45 -45,-45 z"
       inkscape:connector-curvature="0"
       style="fill:#e18f4e" />
    <path
       id="path1509"
       d="m 297.25,45 c -24.853,0 -45,20.147 -45,45 v 10 l 60,46 V 90 c 0,-24.853 -6.716,-45 -15,-45 z"
       inkscape:connector-curvature="0"
       style="fill:#ffa754" />
    <path
       id="path1511"
       d="m 312.251,100 -15,64.989 c 0,0 45,-9.989 45,-54.989 v -10 z"
       inkscape:connector-curvature="0"
       style="fill:#60312c" />
    <path
       id="path1513"
       d="m 297.25,90 c -6.759,0 -12.551,4.128 -15,10 h -30 v 10 c 0,45 45,54.989 45,54.989 0,0 15,-9.989 15,-54.989 v -10 c -2.449,-5.872 -8.241,-10 -15,-10 z"
       inkscape:connector-curvature="0"
       style="fill:#85453d" />
    <path
       id="path1515"
       d="m 124.75,117.501 v 42.5 h 15 v -42.5 c 4.142,0 7.5,-3.358 7.5,-7.5 0,-4.142 -3.358,-7.5 -7.5,-7.5 h -15 c -4.142,0 -7.5,3.358 -7.5,7.5 0,4.142 3.358,7.5 7.5,7.5 z"
       inkscape:connector-curvature="0"
       style="fill:#2dade3" />
    <path
       id="path1517"
       d="m 139.75,252.501 v -42.5 h -15 v 42.5 c -4.142,0 -7.5,3.358 -7.5,7.5 0,4.142 3.358,7.5 7.5,7.5 h 15 c 4.142,0 7.5,-3.358 7.5,-7.5 0,-4.142 -3.358,-7.5 -7.5,-7.5 z"
       inkscape:connector-curvature="0"
       style="fill:#1990c2" />
    <path
       id="path1519"
       d="m 79.217,142.574 30.052,30.052 10.607,-10.607 -30.052,-30.052 c 2.929,-2.929 2.929,-7.678 0,-10.607 -2.929,-2.929 -7.678,-2.929 -10.607,0 L 68.61,131.967 c -2.929,2.929 -2.929,7.678 0,10.607 2.929,2.929 7.678,2.929 10.607,0 z"
       inkscape:connector-curvature="0"
       style="fill:#2dade3" />
    <path
       id="path1521"
       d="m 185.283,227.427 -30.052,-30.052 -10.607,10.607 30.052,30.052 c -2.929,2.929 -2.929,7.678 0,10.607 2.929,2.929 7.678,2.929 10.607,0 l 10.607,-10.607 c 2.929,-2.929 2.929,-7.678 0,-10.607 -2.929,-2.929 -7.678,-2.929 -10.607,0 z"
       inkscape:connector-curvature="0"
       style="fill:#1990c2" />
    <path
       id="path1523"
       d="m 107.25,177.501 h -42.5 c 0,-4.142 -3.358,-7.5 -7.5,-7.5 -4.142,0 -7.5,3.358 -7.5,7.5 v 15 c 0,4.142 3.358,7.5 7.5,7.5 4.142,0 7.5,-3.358 7.5,-7.5 h 42.5 z"
       inkscape:connector-curvature="0"
       style="fill:#2dade3" />
    <path
       id="path1525"
       d="m 207.25,170.001 c -4.142,0 -7.5,3.358 -7.5,7.5 h -42.5 v 15 h 42.5 c 0,4.142 3.358,7.5 7.5,7.5 4.142,0 7.5,-3.358 7.5,-7.5 v -15 c 0,-4.143 -3.358,-7.5 -7.5,-7.5 z"
       inkscape:connector-curvature="0"
       style="fill:#1990c2" />
    <path
       id="path1527"
       d="m 119.876,207.982 -10.607,-10.607 -30.052,30.052 c -2.929,-2.929 -7.678,-2.929 -10.607,0 -2.929,2.929 -2.929,7.678 0,10.607 l 10.607,10.607 c 2.929,2.929 7.678,2.929 10.607,0 2.929,-2.929 2.929,-7.678 0,-10.607 z"
       inkscape:connector-curvature="0"
       style="fill:#2dade3" />
    <path
       id="path1529"
       d="m 144.624,162.02 10.607,10.607 30.052,-30.052 c 2.929,2.929 7.678,2.929 10.607,0 2.929,-2.929 2.929,-7.678 0,-10.607 l -10.607,-10.607 c -2.929,-2.929 -7.678,-2.929 -10.607,0 -2.929,2.929 -2.929,7.678 0,10.607 z"
       inkscape:connector-curvature="0"
       style="fill:#1990c2" />
    <path
       id="path1531"
       d="m 132.25,140.001 v 90 c 24.853,0 45,-20.147 45,-45 0,-24.853 -20.147,-45 -45,-45 z"
       inkscape:connector-curvature="0"
       style="fill:#2dade3" />
    <path
       id="path1533"
       d="m 147.25,185.001 c 0,-24.853 -6.716,-45 -15,-45 -24.853,0 -45,20.147 -45,45 0,24.853 20.147,45 45,45 8.284,0 15,-20.148 15,-45 z"
       inkscape:connector-curvature="0"
       style="fill:#49c9ff" />
    <circle
       id="circle1535"
       r="7.5"
       cy="185.00101"
       cx="147.25"
       style="fill:#1990c2" />
    <circle
       id="circle1537"
       r="7.5"
       cy="185.00101"
       cx="117.25"
       style="fill:#2dade3" />
  </g>
</svg>
